<mxfile host="65bd71144e">
    <diagram id="aGQo7Fn-6WEPqm-TmLkM" name="アーキテクチャ図">
        <mxGraphModel dx="1637" dy="1957" grid="1" gridSize="10" guides="1" tooltips="1" connect="1" arrows="1" fold="1" page="1" pageScale="1" pageWidth="827" pageHeight="1169" math="0" shadow="0">
            <root>
                <mxCell id="0"/>
                <mxCell id="1" parent="0"/>
                <mxCell id="6" value="VPC" style="sketch=0;outlineConnect=0;gradientColor=none;html=1;whiteSpace=wrap;fontSize=12;fontStyle=0;shape=mxgraph.aws4.group;grIcon=mxgraph.aws4.group_vpc;strokeColor=#879196;fillColor=none;verticalAlign=top;align=left;spacingLeft=30;fontColor=#879196;dashed=0;" parent="1" vertex="1">
                    <mxGeometry x="-123" y="-40" width="1003" height="840" as="geometry"/>
                </mxCell>
                <mxCell id="67" style="edgeStyle=none;html=1;entryX=0.5;entryY=0;entryDx=0;entryDy=0;entryPerimeter=0;fontSize=16;fontColor=#FFFFFF;" edge="1" parent="1" source="35" target="63">
                    <mxGeometry relative="1" as="geometry"/>
                </mxCell>
                <mxCell id="35" value="&lt;font color=&quot;#ffffff&quot;&gt;Internet&lt;br&gt;gateway&lt;/font&gt;" style="sketch=0;outlineConnect=0;fontColor=#232F3E;gradientColor=none;strokeColor=#232F3E;fillColor=#ffffff;dashed=0;verticalLabelPosition=bottom;verticalAlign=top;align=center;html=1;fontSize=12;fontStyle=0;aspect=fixed;shape=mxgraph.aws4.resourceIcon;resIcon=mxgraph.aws4.internet_gateway;" parent="1" vertex="1">
                    <mxGeometry x="326.5" y="-134" width="60" height="60" as="geometry"/>
                </mxCell>
                <mxCell id="34" style="edgeStyle=none;html=1;" parent="1" source="30" target="31" edge="1">
                    <mxGeometry relative="1" as="geometry"/>
                </mxCell>
                <mxCell id="36" style="edgeStyle=none;html=1;exitX=0.5;exitY=1;exitDx=0;exitDy=0;exitPerimeter=0;" parent="1" source="31" target="35" edge="1">
                    <mxGeometry relative="1" as="geometry"/>
                </mxCell>
                <mxCell id="58" value="" style="group" vertex="1" connectable="0" parent="1">
                    <mxGeometry x="544" y="-330" width="90" height="108" as="geometry"/>
                </mxCell>
                <mxCell id="52" value="" style="sketch=0;points=[[0,0,0],[0.25,0,0],[0.5,0,0],[0.75,0,0],[1,0,0],[0,1,0],[0.25,1,0],[0.5,1,0],[0.75,1,0],[1,1,0],[0,0.25,0],[0,0.5,0],[0,0.75,0],[1,0.25,0],[1,0.5,0],[1,0.75,0]];outlineConnect=0;fontColor=#232F3E;gradientColor=#945DF2;gradientDirection=north;fillColor=#5A30B5;strokeColor=#ffffff;dashed=0;verticalLabelPosition=bottom;verticalAlign=top;align=center;html=1;fontSize=12;fontStyle=0;aspect=fixed;shape=mxgraph.aws4.resourceIcon;resIcon=mxgraph.aws4.route_53;" vertex="1" parent="58">
                    <mxGeometry x="6" width="78" height="78" as="geometry"/>
                </mxCell>
                <mxCell id="57" value="Route53" style="text;strokeColor=none;align=center;fillColor=none;html=1;verticalAlign=middle;whiteSpace=wrap;rounded=0;fontSize=16;fontColor=#FFFFFF;" vertex="1" parent="58">
                    <mxGeometry y="78" width="90" height="30" as="geometry"/>
                </mxCell>
                <mxCell id="60" value="" style="group" vertex="1" connectable="0" parent="1">
                    <mxGeometry x="326.5" y="-530" width="129.75" height="77.69999999999999" as="geometry"/>
                </mxCell>
                <mxCell id="30" value="" style="outlineConnect=0;dashed=0;verticalLabelPosition=bottom;verticalAlign=top;align=center;html=1;shape=mxgraph.aws3.users;fillColor=#D2D3D3;gradientColor=none;" parent="60" vertex="1">
                    <mxGeometry width="66" height="77.7" as="geometry"/>
                </mxCell>
                <mxCell id="59" value="users" style="text;strokeColor=none;align=center;fillColor=none;html=1;verticalAlign=middle;whiteSpace=wrap;rounded=0;fontSize=16;fontColor=#FFFFFF;" vertex="1" parent="60">
                    <mxGeometry x="69.75" y="30" width="60" height="30" as="geometry"/>
                </mxCell>
                <mxCell id="62" value="" style="group" vertex="1" connectable="0" parent="1">
                    <mxGeometry x="316.75" y="-330.00333333333333" width="139.5" height="66.60000000000002" as="geometry"/>
                </mxCell>
                <mxCell id="31" value="" style="outlineConnect=0;dashed=0;verticalLabelPosition=bottom;verticalAlign=top;align=center;html=1;shape=mxgraph.aws3.internet_3;fillColor=#D2D3D3;gradientColor=none;" parent="62" vertex="1">
                    <mxGeometry width="79.5" height="66.60000000000001" as="geometry"/>
                </mxCell>
                <mxCell id="61" value="internet" style="text;strokeColor=none;align=center;fillColor=none;html=1;verticalAlign=middle;whiteSpace=wrap;rounded=0;fontSize=16;fontColor=#FFFFFF;" vertex="1" parent="62">
                    <mxGeometry x="79.5" y="30.00333333333333" width="60" height="30" as="geometry"/>
                </mxCell>
                <mxCell id="3" value="&lt;font style=&quot;font-size: 16px;&quot;&gt;Region（ap-northeast1 東京）&lt;/font&gt;" style="sketch=0;outlineConnect=0;gradientColor=none;html=1;whiteSpace=wrap;fontSize=12;fontStyle=0;shape=mxgraph.aws4.group;grIcon=mxgraph.aws4.group_region;strokeColor=#879196;fillColor=none;verticalAlign=top;align=left;spacingLeft=30;fontColor=#879196;dashed=1;" parent="1" vertex="1">
                    <mxGeometry x="-170" y="-90" width="1090" height="920" as="geometry"/>
                </mxCell>
                <mxCell id="80" style="edgeStyle=none;html=1;fontSize=16;fontColor=#FF9933;" edge="1" parent="1" source="3">
                    <mxGeometry relative="1" as="geometry">
                        <mxPoint x="-160" y="395.46296296296305" as="targetPoint"/>
                    </mxGeometry>
                </mxCell>
                <mxCell id="42" value="Availability ZoneA" style="fillColor=none;strokeColor=#147EBA;dashed=1;verticalAlign=top;fontStyle=0;fontColor=#FFFFFF;" parent="1" vertex="1">
                    <mxGeometry x="-100" y="130" width="440" height="640" as="geometry"/>
                </mxCell>
                <mxCell id="26" value="Availability ZoneC" style="fillColor=none;strokeColor=#147EBA;dashed=1;verticalAlign=top;fontStyle=0;fontColor=#FFFFFF;" parent="1" vertex="1">
                    <mxGeometry x="400" y="130" width="453.5" height="640" as="geometry"/>
                </mxCell>
                <mxCell id="27" value="Public subnet１" style="points=[[0,0],[0.25,0],[0.5,0],[0.75,0],[1,0],[1,0.25],[1,0.5],[1,0.75],[1,1],[0.75,1],[0.5,1],[0.25,1],[0,1],[0,0.75],[0,0.5],[0,0.25]];outlineConnect=0;gradientColor=none;html=1;whiteSpace=wrap;fontSize=12;fontStyle=0;container=1;pointerEvents=0;collapsible=0;recursiveResize=0;shape=mxgraph.aws4.group;grIcon=mxgraph.aws4.group_security_group;grStroke=0;strokeColor=#26741a;fillColor=#E9F3E6;verticalAlign=top;align=left;spacingLeft=30;fontColor=#248814;dashed=0;strokeWidth=3;" parent="1" vertex="1">
                    <mxGeometry x="-80" y="170" width="400" height="560" as="geometry"/>
                </mxCell>
                <mxCell id="39" value="" style="sketch=0;outlineConnect=0;fontColor=#232F3E;gradientColor=none;fillColor=#D45B07;strokeColor=none;dashed=0;verticalLabelPosition=bottom;verticalAlign=top;align=center;html=1;fontSize=12;fontStyle=0;aspect=fixed;pointerEvents=1;shape=mxgraph.aws4.ecs_service;" parent="27" vertex="1">
                    <mxGeometry x="75.91" y="229" width="39" height="48" as="geometry"/>
                </mxCell>
                <mxCell id="83" value="&lt;font color=&quot;#000000&quot;&gt;service&lt;/font&gt;" style="text;strokeColor=none;align=center;fillColor=none;html=1;verticalAlign=middle;whiteSpace=wrap;rounded=0;dashed=1;labelBackgroundColor=#FFFFFF;strokeWidth=8;fontSize=16;fontColor=#FF9933;opacity=70;" vertex="1" parent="27">
                    <mxGeometry x="110" y="238" width="60" height="30" as="geometry"/>
                </mxCell>
                <mxCell id="84" value="&lt;font color=&quot;#000000&quot;&gt;task&lt;/font&gt;" style="text;strokeColor=none;align=center;fillColor=none;html=1;verticalAlign=middle;whiteSpace=wrap;rounded=0;dashed=1;labelBackgroundColor=#FFFFFF;strokeWidth=8;fontSize=16;fontColor=#FF9933;opacity=70;" vertex="1" parent="27">
                    <mxGeometry x="100" y="335" width="60" height="30" as="geometry"/>
                </mxCell>
                <mxCell id="40" value="" style="sketch=0;outlineConnect=0;fontColor=#232F3E;gradientColor=none;fillColor=#D45B07;strokeColor=none;dashed=0;verticalLabelPosition=bottom;verticalAlign=top;align=center;html=1;fontSize=12;fontStyle=0;aspect=fixed;pointerEvents=1;shape=mxgraph.aws4.ecs_task;" parent="27" vertex="1">
                    <mxGeometry x="84.08000000000001" y="330" width="30.83" height="40" as="geometry"/>
                </mxCell>
                <mxCell id="91" value="" style="fillColor=none;strokeColor=#FF3333;verticalAlign=top;fontStyle=0;fontColor=#FF9933;" vertex="1" parent="27">
                    <mxGeometry x="50" y="220" width="310" height="260" as="geometry"/>
                </mxCell>
                <mxCell id="28" value="Public subnet２" style="points=[[0,0],[0.25,0],[0.5,0],[0.75,0],[1,0],[1,0.25],[1,0.5],[1,0.75],[1,1],[0.75,1],[0.5,1],[0.25,1],[0,1],[0,0.75],[0,0.5],[0,0.25]];outlineConnect=0;gradientColor=none;html=1;whiteSpace=wrap;fontSize=12;fontStyle=0;container=1;pointerEvents=0;collapsible=0;recursiveResize=0;shape=mxgraph.aws4.group;grIcon=mxgraph.aws4.group_security_group;grStroke=0;strokeColor=#248814;fillColor=#E9F3E6;verticalAlign=top;align=left;spacingLeft=30;fontColor=#248814;dashed=0;strokeWidth=3;" parent="1" vertex="1">
                    <mxGeometry x="420" y="170" width="400" height="560" as="geometry"/>
                </mxCell>
                <mxCell id="88" value="&lt;font color=&quot;#000000&quot;&gt;service&lt;/font&gt;" style="text;strokeColor=none;align=center;fillColor=none;html=1;verticalAlign=middle;whiteSpace=wrap;rounded=0;dashed=1;labelBackgroundColor=#FFFFFF;strokeWidth=8;fontSize=16;fontColor=#FF9933;opacity=70;" vertex="1" parent="28">
                    <mxGeometry x="110" y="240" width="60" height="30" as="geometry"/>
                </mxCell>
                <mxCell id="89" value="" style="sketch=0;outlineConnect=0;fontColor=#232F3E;gradientColor=none;fillColor=#D45B07;strokeColor=none;dashed=0;verticalLabelPosition=bottom;verticalAlign=top;align=center;html=1;fontSize=12;fontStyle=0;aspect=fixed;pointerEvents=1;shape=mxgraph.aws4.ecs_task;" vertex="1" parent="28">
                    <mxGeometry x="79.17000000000007" y="330" width="30.83" height="40" as="geometry"/>
                </mxCell>
                <mxCell id="90" value="&lt;font color=&quot;#000000&quot;&gt;task&lt;/font&gt;" style="text;strokeColor=none;align=center;fillColor=none;html=1;verticalAlign=middle;whiteSpace=wrap;rounded=0;dashed=1;labelBackgroundColor=#FFFFFF;strokeWidth=8;fontSize=16;fontColor=#FF9933;opacity=70;" vertex="1" parent="28">
                    <mxGeometry x="100" y="335" width="60" height="30" as="geometry"/>
                </mxCell>
                <mxCell id="92" value="" style="fillColor=none;strokeColor=#FF3333;verticalAlign=top;fontStyle=0;fontColor=#FF9933;" vertex="1" parent="28">
                    <mxGeometry x="41.81" y="220" width="330" height="260" as="geometry"/>
                </mxCell>
                <mxCell id="87" value="" style="sketch=0;outlineConnect=0;fontColor=#232F3E;gradientColor=none;fillColor=#D45B07;strokeColor=none;dashed=0;verticalLabelPosition=bottom;verticalAlign=top;align=center;html=1;fontSize=12;fontStyle=0;aspect=fixed;pointerEvents=1;shape=mxgraph.aws4.ecs_service;" vertex="1" parent="28">
                    <mxGeometry x="71" y="231" width="39" height="48" as="geometry"/>
                </mxCell>
                <mxCell id="99" value="Security group" style="fillColor=none;strokeColor=#DD3522;verticalAlign=top;fontStyle=0;fontColor=#DD3522;dashed=1;labelBackgroundColor=#FFFFFF;strokeWidth=3;fontSize=16;opacity=70;" vertex="1" parent="28">
                    <mxGeometry x="-530" y="-80" width="980" height="700" as="geometry"/>
                </mxCell>
                <mxCell id="25" value="" style="fillColor=none;strokeColor=#FF9933;verticalAlign=top;fontStyle=0;fontColor=#FF9933;" parent="1" vertex="1">
                    <mxGeometry x="-50" y="220" width="860" height="470" as="geometry"/>
                </mxCell>
                <mxCell id="65" value="" style="group" vertex="1" connectable="0" parent="1">
                    <mxGeometry x="330" y="-50" width="69" height="102" as="geometry"/>
                </mxCell>
                <mxCell id="63" value="" style="outlineConnect=0;dashed=0;verticalLabelPosition=bottom;verticalAlign=top;align=center;html=1;shape=mxgraph.aws3.application_load_balancer;fillColor=#F58534;gradientColor=none;fontSize=16;fontColor=#FFFFFF;" vertex="1" parent="65">
                    <mxGeometry x="-10" y="30" width="69" height="72" as="geometry"/>
                </mxCell>
                <mxCell id="64" value="ALB" style="text;strokeColor=none;align=center;fillColor=none;html=1;verticalAlign=middle;whiteSpace=wrap;rounded=0;fontSize=16;fontColor=#FFFFFF;" vertex="1" parent="1">
                    <mxGeometry x="326.5" y="52" width="60" height="30" as="geometry"/>
                </mxCell>
                <mxCell id="68" value="&lt;font color=&quot;#ffffff&quot;&gt;Certificate&lt;br&gt;manager&lt;/font&gt;" style="sketch=0;outlineConnect=0;fontColor=#232F3E;gradientColor=none;strokeColor=#232F3E;fillColor=#ffffff;dashed=0;verticalLabelPosition=bottom;verticalAlign=top;align=center;html=1;fontSize=12;fontStyle=0;aspect=fixed;shape=mxgraph.aws4.resourceIcon;resIcon=mxgraph.aws4.certificate_manager_2;" vertex="1" parent="1">
                    <mxGeometry x="414" y="-20" width="60" height="60" as="geometry"/>
                </mxCell>
                <mxCell id="55" value="" style="group" vertex="1" connectable="0" parent="1">
                    <mxGeometry x="-50" y="260" width="50" height="72.5" as="geometry"/>
                </mxCell>
                <mxCell id="53" value="" style="outlineConnect=0;dashed=0;verticalLabelPosition=bottom;verticalAlign=top;align=center;html=1;shape=mxgraph.aws3.emr_cluster;fillColor=#F58534;gradientColor=none;" vertex="1" parent="55">
                    <mxGeometry width="40.21739130434783" height="49.11290322580645" as="geometry"/>
                </mxCell>
                <mxCell id="54" value="&lt;font color=&quot;#000000&quot;&gt;cluster&lt;/font&gt;" style="text;strokeColor=none;align=center;fillColor=none;html=1;verticalAlign=middle;whiteSpace=wrap;rounded=0;fontSize=16;" vertex="1" parent="55">
                    <mxGeometry x="6.521739130434783" y="49.11290322580645" width="43.47826086956522" height="23.387096774193548" as="geometry"/>
                </mxCell>
                <mxCell id="81" style="edgeStyle=none;html=1;exitX=1;exitY=0.5;exitDx=0;exitDy=0;exitPerimeter=0;fontSize=16;fontColor=#FF9933;" edge="1" parent="1" source="30" target="52">
                    <mxGeometry relative="1" as="geometry"/>
                </mxCell>
                <mxCell id="82" style="edgeStyle=none;html=1;exitX=0;exitY=0;exitDx=0;exitDy=0;fontSize=16;fontColor=#FF9933;" edge="1" parent="1" source="57" target="35">
                    <mxGeometry relative="1" as="geometry"/>
                </mxCell>
                <mxCell id="23" value="" style="sketch=0;points=[[0,0,0],[0.25,0,0],[0.5,0,0],[0.75,0,0],[1,0,0],[0,1,0],[0.25,1,0],[0.5,1,0],[0.75,1,0],[1,1,0],[0,0.25,0],[0,0.5,0],[0,0.75,0],[1,0.25,0],[1,0.5,0],[1,0.75,0]];outlineConnect=0;fontColor=#232F3E;gradientColor=#F78E04;gradientDirection=north;fillColor=#D05C17;strokeColor=#ffffff;dashed=1;verticalLabelPosition=bottom;verticalAlign=top;align=center;html=1;fontSize=12;fontStyle=0;aspect=fixed;shape=mxgraph.aws4.resourceIcon;resIcon=mxgraph.aws4.fargate;" parent="1" vertex="1">
                    <mxGeometry x="-50" y="220.00076923076924" width="40" height="40" as="geometry"/>
                </mxCell>
                <mxCell id="7" value="Amazon RDS" style="sketch=0;outlineConnect=0;fontColor=#232F3E;gradientColor=none;strokeColor=#ffffff;fillColor=#232F3E;dashed=0;verticalLabelPosition=middle;verticalAlign=bottom;align=center;html=1;whiteSpace=wrap;fontSize=10;fontStyle=1;spacing=3;shape=mxgraph.aws4.productIcon;prIcon=mxgraph.aws4.rds;" parent="1" vertex="1">
                    <mxGeometry x="170" y="430" width="60" height="84" as="geometry"/>
                </mxCell>
                <mxCell id="98" value="" style="group" vertex="1" connectable="0" parent="1">
                    <mxGeometry x="390" y="860" width="580" height="299" as="geometry"/>
                </mxCell>
                <mxCell id="37" value="Amazon ECR" style="sketch=0;outlineConnect=0;fontColor=#232F3E;gradientColor=none;strokeColor=#ffffff;fillColor=#232F3E;dashed=0;verticalLabelPosition=middle;verticalAlign=bottom;align=center;html=1;whiteSpace=wrap;fontSize=10;fontStyle=1;spacing=3;shape=mxgraph.aws4.productIcon;prIcon=mxgraph.aws4.ecr;" parent="98" vertex="1">
                    <mxGeometry x="80" y="20" width="80" height="100" as="geometry"/>
                </mxCell>
                <mxCell id="9" value="" style="shape=image;verticalLabelPosition=bottom;labelBackgroundColor=default;verticalAlign=top;aspect=fixed;imageAspect=0;image=data:image/png,iVBORw0KGgoAAAANSUhEUgAABLEAAAE1CAYAAAAYpnI9AAAACXBIWXMAAAsSAAALEgHS3X78AAAgAElEQVR4nO3dT3LbRrv24TupzOXD+QfxXYGUFZhZgZUViK4Pc8srMLyCyHNWmVpBpBUEWkGkFbwk5wdlrsBngIZNSSTFP+h+uoHfVaVyEttAR2o0gRtPd//y/ft3AZCyvCokfbJux74Wk8Ev1m0AAAAAAMC3X60bAAAAAAAAALyGEAsAAAAAAADRI8QCAAAAAABA9AixAAAAAAAAED1CLAAAAAAAAESPEAsAAAAAAADRI8QCAAAAAABA9AixAAAAAAAAED1CLAAAAAAAAESPEAsAAAAAAADRI8QCAAAAAABA9AixAAAAAAAAED1CLAAAAAAAAESPEAsAAAAAAADRI8QCAAAAAABA9AixAAAAAAAAED1CLAAAAAAAAESPEAsAAAAAAADRI8QCAAAAAABA9AixAAAAAAAAED1CLAAAAAAAAESPEAsAAAAAAADRI8QCAAAAAABA9AixAAAAAAAAED1CLAAAAAAAAESPEAsAAAAAAADRI8QCAAAAAABA9AixAAAAAAAAED1CLAAAAAAAAESPEAsAAAAAAADRI8QCAAAAAABA9AixAAAAAAAAED1CLAAAAAAAAESPEAsAAAAAAADRI8QCAAAAAABA9AixAAAAAAAAED1CLAAAAAAAAESPEAsAAAAAAADRI8QCAAAAAABA9AixAAAAAAAAEL3frBsARGQm6d66EQAAAAAA4KVfvn//bt0GAAAAAAAAYCumEwIAAAAAACB6hFgAAAAAAACIHiEWAAAAAAAAokeIBQAAAAAAgOgRYgEAAAAAACB6hFgAAAAAAACIHiEWAAAAAAAAovebdQO6LsurQtIn63bsazEZ/LLt97O8+h6qLS36vJgMik2/2dWfFQAAAAAAXUAlFgAAAAAAAKJHiAUAAAAAAIDoEWIBAAAAAAAgeoRYAAAAAAAAiB4hFgAAAAAAAKJHiAUAAAAAAIDoEWIBAAAAAAAgeoRYAAAAAAAAiB4hFgAAAAAAAKJHiAUALcvy6k2WV2+s2wEAAAAAXUKIBQDtm0p6yPJqZNwOAAAAAOgMQiwAaFGWVxeS3kk6lfRPllfXVGUBAAAAwPEIsQCgJS6smj77zx8klVlenYdvEQAAAAB0ByEWALRnKulkzX8/k/RvlldF0NYAAAAAQIcQYgFAC1amEW7zKcurB6qyAAAAAGB/hFgAcKQN0wg3oSoLAAAAAA5AiAUAx5tq/TTCbZqqrGH7zQEAAACA7iHEAoAj7DiNcJMzSUwvBAAAAIAdEGIBwIH2nEa4yYnq6YXjoxsEAAAAAB1GiAUAh5tq/2mEm3zN8uq6pWMBAAAAQOcQYgHAAbK8GunwaYSbfMjyatryMQEAAACgEwixAOAwU0/HvczyqnRTFQEAAAAADiEWAOwpy6tC0qnHU7yVRJAFAAAAACsIsQBgDy5YugpwqjMRZAEAAADAD4RYALCfQu0t5v4agiwAAAAAcAixAGBHWV4NJX0IfFqCLAAAAAAQIRYA7KMwOi9BFgAAAIDeI8QCgB24AOnCsAln8rcjIgAAAABEjxALAHZzpXBrYW3yLsurqXEbAAAAAMAEIRYA7GZs3QDnMsurELsjAgAAAEBUCLEA4BVZXl1IOrVux4q/XJsAAAAAoDcIsQDgdWPrBqwxzfLq3LoRAAAAABAKIRYAbJHl1VDSO+t2rHGiOshix0IAAAAAvUCIBQDbxTxt70xSYd0IAAAAAAiBEAsAthtbN+AVH1gfCwAAAEAfEGIBwAZuKuGZdTt2wLRCAAAAAJ1HiAUAm6VS4XQiaWrdCAAAAADwiRALADYbWTdgD++YVggAAACgywixAGCzGHcl3OaaaYUAAAAAuuo36wYAQIyyvBpZt+EAp5KuxI6F6Dm3nt3w2X+eLSaDWfDGAOi9dWPSYjIoLdoCAKkjxAKA9UbWDTjQVZZXUx7W0TfuIfFK9Vp2pxv+zFzSraRrrhEAPrkxqVA9Jp2s+X1JulM9HpUBmwYASfvl+/fv1m0AgOhkeVVKemvdjgPdLCaDsXUjgFCyvLqW9GGPv7KUVCwmg2tPTQLQU25af6H9xqR7SWPCdQB4HSEWAKyR5VXqg+N/uBlG17mHxVLS2YGHIPAF0Jojx6SlpNFiMnhotVEA0DEs7A4Az2R5dW7dhhYU1g0AfGohwJKkyyyvpq00CECvtTAmnUgqO3IPAgDeEGIBwEtduIG8dOtxAF1V6LgAq3GZ5VXRwnEA9Nutjh+TmiBreHxzAKCbCLEA4KUuhFiSNLZuAOCD2z10n/VmXvOJh0YAh8ry6krtraN5Imna0rEAoHMIsQDgpa6EWFfWDQA88dG3Cw/HBNBxKwu5t+mtC+sBAM8QYgHAS10JsU6yvBpbNwJok3tgfOfh0Jfu2ACwjwvV1VNt40UUAKxBiAUAL/m4GbVyYd0AoGWjRI8NoJt8fc6OPB0XAJL2m3UDViW6pf3nxWRQbPpNt1jsp2CtacliMvhl2+/zs4rHDj+rUu2t0xDK/WIyGFmcuIPl+++yvHqzmAy+WTcEaInPSslz1YszA8CufI1JJ1lenS8mgwdPxweAJFGJBQDdRzUWAAB+nHo8NlOcAeAZQiwAeGpk3QAPCLEAAAAAJI8QCwC67x0LVgMAAABIHSEWADzV1bBnZN0AAAAAADgGIRYAPOVz0WhLI+sGAAAAAMAxCLEAoB9G1g0AAAAAgGMQYgFAP5xZNwAAAAAAjkGIBQA9keXVyLoNAAAAAHAoQiwA6I+urvcFAAAAoAd+s24AACCYJzsvZnn1RnWw1fwqSUP3tfp3tk1FfJT0beXfv0l6cP88a74Wk8HsoBYDAAAAgEOIBQD9Mc7yaqg6pHrb0jHXBVzvnv+HLK+kOvCaqQ65HiQ9EG4BAAAA2BUhFgD0x6mkS8Pzn7mvHyFXlldLSWXztZgMHtb+TQAAAAC9R4gFALB0ojrUeidJWV7NVQdat4vJ4NawXQAAAAAiQ4gFAIhJUy126aq0ppKumXYIAAAAgN0JAQCxOpH0QdJ/s7wqs7waGbcHAAAAgCFCLABACt5K+seFWeev/mkAAAAAnUOIBQBPsbB43N5K+jfLq8K6IQAAAADCIsQCgKe+WTcAO/mU5dUDVVkAAABAfxBiAcBTM+sGYGdnqquyrqwbAgAAAMA/QiwAeGpm3QDs7S+3VtbQuiEAAAAA/CHEAoAVi8mgtG4DDvJW0gNVWQAAAEB3EWIBwEtz6wbgICeiKgsAAADoLEIsAHiJHQrT1lRlDa0bAgAAAKA9hFgA8BIhVvoeFpPBzLoRAAAAANpDiAUAL5XWDcDRCusGAAAAAGgXIRYAPMPi7sm752cIAAAAdA8hFgCs92jdAByssG4AAAAAgPYRYgHAerfWDcBBqMICAAAAOooQCwDWI8RK07V1AwAAAAD4QYgFAGssJoMHSXPrdmAv88VkQPgIAAAAdBQhFgBsVlo3AHsprBsAAAAAwB9CLADYjKlp6ZgvJoOpdSMAAAAA+EOIBQAbMKUwKYV1AwAAAAD4RYgFANtNrRuAV1GFBQAAAPQAIRYAbDe1bgBeVVg3AAAAAIB/hFgAsMViMphJurFuBzZ6pAoLAAAA6AdCLAB4XWHdAGx0Zd0AAAAAAGEQYgHAK1w11r11O/DC3WIyKK0bAQAAACAMQiwA2A0VP3FZip8JAAAA0CuEWACwg8Vk8CDWxorJtauQAwAAANAThFgAsLsr1RVAsPW4mAwK60YAAAAACOuX79+/W7cBAJKR5dW1pA/W7eixpaSRq4xDD2V5VUj65OnwnwlIAewjyyufD1N/sPYjADz1m3UDACAFWV6NVO9S+Na2Jb1XEGABAAAA/USIBQBbZHk1ljQW4VUM7haTwbV1IwAAAADYIMQCgGeyvBqqXv/qQtKpbWvgPKoOE3Eg16+Hks4lvZE0WvntXULaR0nf3D+XK79+ozquG7K8eqO6fwyffcn995NXDjGXNHP//KC6vzxImtFHuoFxBJZcVfyF6v7XjElLuXFG0u1iMri1al/M1ozvzTUsMb574cbLC9Xj5FDSmfutR9Xfy1LSdDEZfHvxl424a6zpK9LTMX6o9c9Fq+O69LN/NH2k9fGdNbEAQE8+aMb6+SGDOLAO1p7czepI9U1I8+trN6jHuld9s/IgqfS1eyRrYrUny6umf4xU9xHfoX2QPoJ2GI8jpaSHFPoIa2L55x6sp9ptjJqrDgYKj02KnvuejfQz8GN8D8SNndeSLnf440v3Z69Dh1kG9wBNEFrq5xh/0P8zIRaAXlq5OR+JiqvY/U6A9bqVIPZCcUx/fdTPt4yt/fwIsQ7nxr2mj4zkP5B4zVzSrerqidK4LVB/xpE2EWL548asQodtqPOo+gVYNFUuPjG+x8EFQ6X2//4/Shr7HOci7CNSHX42/WS2618ixALQC+6N1FA/3yhTbZWG94vJYGrdiFglVEG4VP0W/egHUUKs/Ty7aX1n3JxtWusj2E9C40jzUBxVHyHE8mPP6qtNOh1kMb7HxfXZWx0eDrU+8yChPiJJd6r7yKtTggmxACTPvfVo5vUP3dfq3H+qrNJEgLVBllfNA2fsNyTrPKounb895MGCEGs3LpgoVN+4xvC2dR9H9RHspgvjSAyfEYRY7Tqy+mqdx8VkcP76H0uHu+9t1m5lfI/AERVYzy0lnR87HTPxe4C5pKttYdaPEMvzTSEAAPsgwFrD7ZZZqBvB7EHrQBBibefeBBeKYyrYsczWCukyxpF2EWK1p6Xqq3WSH9slxvdYueD1Qe3124OD1471kXvVUyxnz3/j15V/7lRCDQBIFgHWM1lejbO8mkn6qm48eEr1m8FPkmZZXhXuJhAHyvJqlOVVKekfdePmVaKPtIpxBLHK8upNllfXqscvH33zylWmJInxPXpXarffnrmXDTvraB95K+nBVQ0/QYgFAIjFUvVb56l1Q2Lhbkpm6tZD53NPbmSN25KcLK+GHbxxfY4+coQejiNj47ZgD+4B9UHtTR9c50T11NmkML4n48rDMYtd/lBHw6tVJ5L+ft43VqcTsjgWAMDKXNJFlxf83Id7Y3ytNNeqOdZcdfl4ue43mU5Yc2+tr9TPpSC29hHUej6OeN/pq8F0wsO4MWyqcP1zvpgMhoHOdRQP64KlJKnx3U3f+8fT4Tfuzu36yLWkS0/njtGXxWRwJblKLPfNBwDAwp3qRSwJsCRleXWl+q10Hx88pbpS5J8sr6aJTy/wxt23PaifAZb0s4/c0kfWYxzRmaR/s7y6po/Ex1VfzRS2f56mMKVwZXzvY4AlpTe+j0If243vM/UrwJKkD83UwmY6YQodBADQPR8Xk8FF6ot6tmFl2sBfSm8nGR8uVU8vGFk3JBYB1o1JzTvVfeTFehl9xTjywgdJpds5DMbcGHYr6W/Z9M+hwTl3wvj+Qirju8+x5UlGw/guqa4++xFiMbADAEJ6VF0mfW3dkBisrAnSxfUMjnGi+o1s7/vJyvbdfX07v0mzXgZ9hHFkk6Yqy8e6NdiRUfVVEtz43ufqq01SGN+DFAMxvv9wmuXV+DfrVgAAemWpejvlwrohsXA3Z9y4bvfBVWTF/kbWC7dQ9bX6++Z1Fz/6yLrtuLuOcWQnf7k+Mqb6NxyDta+S4sb3r9btiFzfx/ep+jd1cJuLphJrZNkKAEAvNGtfFdYNiYGbOlCKB89dnal+C9mr6nF38/pVBFi7OFO9HffIuiGhMI7s7Z3q6YVD64b0AdVX262M73hd78Z3ScMsrx5EgPXc6NfX/wwAAEe5V73DUi/foK2zMjWs72Xh+zpRTx6GVsIJbl7300xBHVs3xDfGkYM1D8O9CsRDimDtq01m1g2QGN+P0Jvx3blUPV7hqRNCLACAL014NUplq+QQVh48uTHBWm76TSnCiWN8zfKqsG6EL4wjRztRXZHVyynKPkVcfbWM4UUa43srOj2+43Us7A4AaNNS0o2k/xBevbTy4BnTm2lEZGWBX8KJ431y03U6hXGkNc2i0SPrhnRBxNVXjVvrBjC+t6qT4zt204RYMQ40AIB0PEp6L2m4mAzGMbztjI0rfy/FZy42WAkn2F69PZddetBhHPHi1lXH4EARV1+tmlqenPHdi06N79gduxMCAA51r/rN5i2h1XbuTT+Lt2Ijqmu8uszySovJYGzdkGMwjnhzonr3z7FxO5KT0M6D95aV4YzvXnVifMdelqyJBQDY1aOkL5L+lPQ/brrgNQHWdu7m1XwaA+LldkorxQOOT0m/sWcc8e6SHQv3k0j1lVQvc2C29hnjexBJj+/YW0klFgBgnXvVN6czSSVrWx2Gt694jatkuBV9JITLLK++LSaDK+uG7INxJJgr94UtEqq+kuoAa7SYDL5ZnJzxPSgqsvrjlhALAPpjqXpB0ca3lX9/aP7d6mava3j7ites7FLFIr/hfMjy6mExGUytG7ILxpGgRtYNiJ2rvpoqjf54J2lsHGCVYnwP6TLLqzKV8R0HWUq6/Y3SWQDohPd8aMeDt6/Y0bV4wLHwNcurWewVpowjwXEtbpBg9dV4MRlYT79lfLfx1VXcWv/84UexmAy+/SppaN0SAMBRlmKtlNhMlebN61L1VNLm69G2Od2V5VUh6dK6HQfqQh+5TeBF7lRpjiPokITWvpLq6quhdYCR+PjeBVM3DRvdcr+YDK4ldicEgC6YMgUwHu7mNeab/WZaael+/bZLRYp74B9KOl/54gH7AO6h8JN1O15xr/37yBv97BtD1dOzYu0jJ6qDLLP1crZJYByR6j7yoDrgaPrJw6Y/vNI/ml9H7tdoKs2yvHoTY3+wQPXVYRIZ3+eqr9nm+p1J0rpx3oVBb/Tzum2+ToO09DDN+H7O9XywR/3sH6X7b7N1mzm5nXOlp31kqHY//x+1skEDIRYApO/augGouQ/yGG9e56qr9abbHjK3cTcuM/28mWmCrZHqG4sUHnTMue/Z1LgZ6zR95PbQaXbuYaHU0z7yRnX/iLGPnEkqFNli3gmMI+UhYcFK/5BWqofdQ3LTR0xDTx54a6x9dZiIx3ep/j411+9s17/07J5h9bptxvaR+zW2vnKq+mdhtjNlYg6+B3j255/3kZF+9pFDg897SRer1/gv/+///+9I0j8HHhAAYOtuMRnwAR0B92E9Uzw3cs000+tDg6t9uP//K0ljxf2GdpvPi8mg8HmCLK8eFFd10o3qcLP0fSLXR8aq+0lMfeTPGCo4pCjHESlsHzlX3T9MpmItJoNf9v07WV5999EW54+Qa7dRfXWcCMf3R9UvOm99h3wu+LxQfNMoPzZT0HzI8qqU9NbX8T0LfZ84VH0PMNZu9wBL1Wtgvfj5/fL9+3ffgy8AwJ+gN7jYLMurW8Vx479UfdN6bbgr01h1hUtMQcUuvIZYbopYLBU2N6pvDmcWJ3cPPFeK4+Z/qXodnRgqOWIbR6YWfWQlFL9SuEDvcTEZ7L2OTldCLKqvjhPh+B4kmHhuJagIee1us5R07mscSzTEiuE+sQk911Xx3evn7IG17SPEAoB0zReTwdC6EfjxYfy3dTskfZHbucW6IVKSYZa3EMtVmPzr49h7Mg2vnnPXzrXs+4h5VSvjyEsuzCokfQhwui+LyWDvqaWph1hUXx2P8f0loyB6k4MC6l0kFmKZh1dt+dW6AQCAgxXWDcCTBwBL95L+s5gMrmK6MVlMBlPVC3x+Nm5KDKbG539U/UA8juEBp7GYDG5dGP9Z9Q22lXcuRDLBOLLeYjL45oKl/6hun0+9W1+SnQdbMzU+f3PtRjO+u2u3UH0PcGfcnLMsr6Ja+9DAF9XXTxQvKI5FiAUAaVq6gAD2rmX3lnGper2HUSw3rs+t3Mj+rjpI6R1382y5TsrnxWRwHvPU45WHHd9BxTbXLkwyObdsx5E/Ix9HZovJYCTpo/yEnXex/r/7kOXVGzd19W/ZV8m8pumfFzE+fBuP76lcuxeS/lC9eLiVwk117Ju56hdY0bycaAMhFgCkqXdvjGPkdhGzWsT0UfU6D0n0hcVk8ODK+b9YtyWklelQFuaSfve9WH1bVoIKq8q9UxnsVGg8jtyrHkdirG55wY1352o3EF8qsh0qfaL6qj3G4/u9Iv7ePOdeolhWZZ2ofzMYblSP76V1Q9pGiAUA6WnmtMNeYXTeG0nRvnndxk0Nem/djoAK2VQ63Km+eQ2+sO+xXOj2p2ymF34yeFtfBD5f40vMFRybuLDzXPU42IZopmD5lFj11VwRV1+tKGTzvfzsrt2YvzcvuMrsC9UVlRYu3UuDPnjvppcm1Ud21YRYlmsQAAD2s3G3DoTj3mZbLOb5MfUbEzcV9nd1/P7DhSEhFqR+7iaBh7+tXHXBSDZ9pAh1IsNx5P0hi5jHZDEZjHV8IP4+lUqWYyRWffVFCVQHGo3vS9V9tgh83la5iso/1PHx3chSdQX21LohPjUhVnJv6QCgx6jCioPFz+F9KtMHX+MqhEbqdpBVGJzzvXu4T57rI0OFX0vtMmA1VujruXkIngY+rxcrgfi+a+0068RM225TTLK8GiZWfZXS2j1F4PMtVVdgTwOf1ws3xW2k8PcAbztcjdX0kc5nO0wnBIC03PRh2kPssrwaq14/J6TOPHg2uhxkuRAk9DpHXewj31T3kdBBVuH7BEbjyEUH+8iD2+HyvV7vJ3PVU5k6uU7MKrfg+IPSqr4qrRuyC4PxvZPhhOE9QBH4fCF0so9sQogFAGkprBsASeEXAe5cONHocJBVBD7flw73kSbICtlHQlRjWYwjZeBzBrOYDKZuraz/UT1V6aPqTQI+un//z2IyGC4mg+tEKn0O4qqvSkl/ieorX4qA5+p0OGF0D9C1aqxO95F1fnO/PshmPj4AYHdUYUXA3fiE3E67s+FEYzEZPLjv67/WbWmD27Eq5Fv6m9TXN3rNYjL45vpIqXAP5lfyFDQZjCMfuz6ONFwYUrqvXnHVV4XiD6+kuvqqSCy8shjfx10PJ4zuAcbqzhjRqwBL+lmJldTgAQA9VVg3AJLCVk/cdz2caLgbsK7sWhjyZ/YY+HxmXB8ZBzzl2D2w+hDyZ3bTlbX0sB7VV0GFvHY/xr7AfVsM7gFCrn3o0/u+BVgS0wkBIBVUYUXA3fCEWl9kKeki0Lmi4CpFbqzb0YJxoPMsVa9xlOKD4EHcA93nQKc7kYdrMPA40puQs69W1r5KYVZNUmtfbTAOdJ67voXP7h7gS8BTjgOey4ebvlTYPteEWKVlIwAAryqsGwBJYUOlXoUTK64UfhHv1rit7EMt1j3uY7jttpe/D3Q6HwFQqHFkqbqP9HEc6Tyqr8ILOL7PlX7AchBXfR7qHmAc6Dw+9PoFBZVYABA/qrDiEeqG4Uvib6oP5h5wxtbtOEKogOKuL9NMNhgrzELAZx6mnIQaR4o+TjPpA6qvzIQa3/sePo8DnefUBZMp6nUfaUIsPuAAIF6FdQMgZXl1rnBvYIsA54mWe/AOOaWgTSFuiJfq8RtYSXLBfqipNq39TAOOI499m4rUB1RfmQsxvt91JPA7mLsHCDVtPMUQ60vfX1D8Kv146wkAiA9VWPEIdaOT3G5NnhQKu+X20dwb3RAPlteMCz+mFc4DnGrc4rFCjSO9Djm7iOorW4HG996/oGgEHN9TC7GW6vmLTunpdMIQnQQAsJ/CugH4IcSNzn1fF+l8zgV5qd3Mh+gjc3dzj9o4wDnanFIYoo/cdCk86Duqr6IR4trlBcVT4wDnOMnyahTgPG3p4rW1t9UQa2bVCADAWl+4mYmDe4A9C3CqIsA5kuECvZReso0CnKMIcI5kuLAmxCLvo2MPwDiCA4xF9VUsRp6Pv1S4KdJJCDi+p1KNNedFZ201xOr1vEoAiAzlwnEZBTjHfYdv/o9RWDdgF4HWOuIGdr0iwDnaeMgZtXCM1zAFvVsuRfWVuUDj+3VXv39HChHsjQKcow2FdQNisRpicdEAQDy4mYnLKMA5pgHOkRwX2qSwNtYowDl4S7+GC399V+yNIjnGa4oA5wAaXa++aowCnGMa4BzJcbvw+h7fz7K8euP5HMda8hLrp9UQq7RqBADgibl4WI3NuefjU2GzXQrXg+8+shQPOdsUno9/4qoxjuG7j9xRhYVAOl999QzXrq0Q9wC+f8bHSuE+KBgqsQAgPuxOFxH3ds73Oja3no+fuql1A3Yw8nz8W8aFrUJcQwc/5AQaR6aejw9I/am+WjXyfPyp5+OnbhrgHKMA5zjG1LoBMfkRYi0mA9bEAgB7j1TkRCfE2znesG3h3lA/WrfjFb7XSyHo3MIFfDeeT3PMWOC9Us9NuwF86Vv11Sqf4zvX7itcf7vzfJqR5+Mf45FKvad+e/bvjwqzawoAYL0r6wbgBd8Pn9yc7Gaqeov56ATYnpuHnN3cql4I25eYQyz6B3z6op5WiQcY3x8CnKMLZp6PP/R8/GNMrRsQm+ch1kyEWABg5a5n5fmpGHo+fun5+F1xq0hDLBFQxKL0fPxjfs7DthqxAX0EviwlTfsYYDm+x/e3kv7xfA68znc19TEY35/59dm/M6UQAGwsRRVWrAgoIuCq1XzvUHQo37salZ6P3wnuIfve4ylOjtjByvc4Uno+PvrrRFKZ5dXQuiFGYt+1Di2JtCJuTrX+S89DrNKiEQAAXfMhFa2hz4NTfbeX0roBG4w8H7/0fPwuKT0f/9AwathmI5557HGVDMI4kXR7RIibspF1AxBMjP27tG5AjKjEAgB7c7Gwd8x8lpjHvlh5bPp4n7Ik4N6L7z5y6EOOz3Gkj9cFwjsTlcPothAb+eyL8X2NJyGWe4sTa6k+AHRVH3f6SUKAt87cnOwn1u+XzxvfWP+fY+X7+7X3z5pxBB3yNsurqXUjAosx2EB/ML6v8bwSS+IbBQAh3bHrWNR837zOPB+/UyKeenni8dilx2N3TqRVa77HEe7dEdJllleFdSMC8ubyOuIAABqMSURBVDm+Iy4j6waswfi+BiEWANhhMXfwmQu0z+fi7kOPxz7UzLoB6J1PWV6NrRsBdB0zNdZbF2KVoRsBAD3FYu7g5mR/PgOKvQXYsav0fHzsZ2jdgOf4HIGRr1ledXqqXY93ZEQcorrficmLECviUn0A6JLHxWRQWDcCr/K9lg0hVvqG1g3ACzPrBjwT445XQBvKjgdZQ+sGAHhpXSWWxG5JAODb2LoB2InXm/PFZMB0QqB9M+sGPONzHGFDJlg6kXQbYPMCIIS31g3AbjaFWGXIRgBAz3whvAAAtGBm3QD03qnqiiyCLABBEGIBQFhzSYV1IwAAAFpyJunauhFAx8ysGxArQiwACGvMTiMAAKBjLrO8mlo3AuiQmXUDYrU2xHIPWKyLBQDt+sLmGQCAFg2tG4CoLCV9dL9auMzyamx0buBY7AaYiE2VWJJ0G6wVANB9TCNMk9e1yzq+qxNgJbbryuc4curx2EjLnaThYjK4ljQybMfXLK8uDM8PHIqZEonYFmKVoRoBAD3ANMI0+f6ZsRBu+mbWDcALsV1XjP3waSnpz8VkcNHcZ7jNY94btmnakZc0M+sGIKjSugHYzcYQy015sSpFBYAu+cw0QmwQ28N2CqLaAnsxGcw8n2Lk+fhd1KvrKsuroXUbYOZedfXVixk0i8lgKulz8BbVTlTvWDg0On8rAozviAsz0RKxrRJLIo0EgGM9LiaDwroRiFYX3lQHE2AL9xgrZnoVyLTkzOOxS4/HPtTQugEIbinp42IyGG2r8nb3HzfBWvXUiaTbAOM20IYbQst0vBZikUYCwOGWksbWjcBRvK6JJR4+9+U79Dv05+2zcp2gcw+RVn74HkfoI/1yL+ncrX31qsVkMJbdgtVnSv95kplJ3bcU69YmhRALAPwp3LoUSFSAdcx4+NxPrN8vn9d5rP/PsfL9/dp7TAgwjgw9Hx9xWK2+mu35dy9kt/P82yyvpkbnbgP3cd03pgorLVtDLPehy1aTALC/u13fkiJ6c4/H9jntqYtircTy6STS6qJYjTwf/9A+4nMcIejsvr2qr55zz3Qj2VUVXWZ5VRidG9jm/bo15RC31yqxJKqxAGBfczGNsEtmPg+e5dXI5/E7ZuTz4EdUzJRttmONkefjd8nI8/EP7SOzNhvxTFSbHaBVx1RfPRFBkPUpy6ux0bmPUVo3AF7MJf3hNkBAYgixAKB94wDTRxCO7+qcC8/H7wRXjXTq8RTHVJ7P2mrEBiPPx+8Et4C01+rGI6aIex1HsrxiHOmmcZtV3a7/WvaVr1lepVY5OLNuAFo1V71r5zk7h6frt9f+wGIymGV59SimPADALj7zodg5M8/HH3k+flf4fvCaGf3dXRBQ7Mb39+mYNYVmbTVig5F48dxFrb8QW0wGZZZX7yV9bfvYOyqzvBoltGbozPPxl4pzKntXPKi+jr5JKhPqd9ji1RDLmUr6y2M7AKAL7t121ugW3zc8Z1leDVlU9FVjz8efHfoX3UNhi0154STLqwvW7XhVzEFniIrOK8/nQEcsJoOpq4j6YHD6E0m3WV6dp1C1HmJ8l3SRwvcCiMUu0wmlOsQCAGw2F9USnRSoso6Hzy3cVELfFeHlkX/f985fjC9buKmE7zyf5uAgKsA4csr6etjHYjK4knRjdPpT1RVZb4zOvy/GdyAiO4VYLhm+89wWAEgZb9G6jRtYW+MA5zi2UsZ7pU1CD3wWQlxD5ZF/3/c4MvZ8fHTMYjIYy3+/3ORMUiq7OPse33mRBexh10osiXn2ALDJe+bYd17p+finie7aFIrvG/zHFkLoso2GbHEiQoptCt8naKGa6ti//5pLgk4cYCS7IOsyy6up0bn3UXo+/pmrOAawg51DLLf9pNWWrAAQqxu25+2FMsA5xgHOkRwX7p14Pk0ZyTFew9v6Ndw0Op87V0rtPOSXLRzjNfQR7MUF+Beye867TOAlThngHEWAcwCdsE8llkQ1FgCsenSl+Oi+MsA53rKmzVpFgHOUxx7ALcw/P7ol21Gxt14R4Bxt3AOXLRzjNVdUY2FfbvwayS7I+prlVbTT6gON75dUYwG72TfESmXeMgD4tlR9w4cecG+qQ0y3KAKcIxkusPFdYSO1Fy6EeNlXBDhHMlzw+zbAqcpjDxBoHDkR1Vg4gFsWwbLvNDsmxorxHYjEXiGWG9ys5kwDQCyWkkYs5N470wDneBvz2+iQXDVJiJdndy1ey2VLx9nmNMsrQoqfpgHOsWxxd8FpS8fZ5hMVHTiEWx7hvdHpT1TvWDg0Ov9rygDnoBoL2MG+lVgS1VgAcMVC7r0Uakr9NdOBJNVvpH2vhSW1+HNdTAa3CjMdp6CPSFleFQpTqdfmtR9sHAl0HnSMC7JujE5/Iuk2xvEt4Pg+DXAOIGl7h1gs8A6g5z6zkHs/uTUxQlQjn6rnUwrclJIPgU7XdqgQIqQ4Uc8fdFy1QqiKtDaDzpnCjCPvqOrEodx6n1ZB1pniXYc5RLuoyAZecUgllsTbHQD9dLOYDArrRsDUNNB5PvR1kXf3Bn4a6HRtTiVsTFs+3iZ9DymmClOpN3cVGG2atny8jeeJsaIFybiS3TIyb7O8mhqde5tpqPNw7QKbHRpiTdtsBAAk4J6dCKGwn399vYm9Vv0mPoTW36q7tZN872LVmPZx/RQ3jTDEYu6Sn8qLqYdjrnOieCtaEDkX8I9kF2Rdums9GgHHd65dYIuDQixXCm1VYgoAoT1K6nPFAxx3Ux/q8+9UPXtp5HYjvAx0uqXHqcGhKtZ796Djqs8+BTxl6z/LwOPI29iCAKTD9dWx7JaS+eQ+F2ISanx/m+UVs5+ANQ6txJJ6vl4HgN5gJ0I8Nw14rnd9uYl162B9DXhKn9/XqcI99J1FOu2mda6PTAOe8s69uPVh6um468QYBCARbiObkWETvrprPxZThRvfP3DtAi8dHGK5D/X79poCANEhwMILbjpByM+/zt/EugeUMvBpvYVYbsyY+jr+GtFNu2mbm1pbKsw6WA2ffaRU2HHkOrIgAAlxQdZ7wyaUsfRfg/H9a8/XPwRe+O3Iv19I+qeFdgBAbJoA68G6IYhSobCff1+zvFIXd8ZcCbBChhM3AcLpa4XbYVGqq21mHe0jFgHWvQuafCoUbhw5UR0EdPZzza0Pd6G6auhc9ZTsxqOkB0m3Hhbq74XFZNCs0/iXwelPJN1meXUeyYvF0OP7tMvXrvTjXqC5flfN9PPanYVtFWJ1zHRCi7dIABDKuMs3CziO0eff165VZBkFWFKAJRGM1g/tYh9pAqxQi/03Ct8nMBhHmiArioqWtmR59cZNqf2v6oDlnZ4GWFLdfy4l/Z3l1YzKlsMsJoNr2a2LfKq6/5pveGIwvnfy2pXqtTCzvJpJ+lf1eodvn31dqr6u/5vlVS83M8FLR4VYTtHCMQAgJu95U4sdFAbn/Jrl1ZXBeVtnGGDdBHybWwQ6z6qvXVkjy/WRmcIHWCGqsBpFoPM0mofhToQ47v9jpv02hDhVHWZNfbSp69xOzXdGpz9TuIXVX1MEPt+JpH+78qLChc+l6rUwn4fOm1xKeujK9wCHOzrEohoLQMe87+J0HLTP8PPvr9QfvtwN6L8KH2AtJQULAV1Y9jnU+VZcZnl1G0PFwqFcOFEqfB+RAj6cGo0jJ6pDnKQDcTeO/K3D+8hl6mOpobHqKZoWovi5GY7vyb/MWnmJ9faAv36iDlYdYz9tVGJJVGMB6AYCLOzL6kbyMsurhxTL6t1uiyF3IVx1bbCeyrVstqd/p0Snn7hF6o8JJ45xF7AKq2E1jvyVYti5Mn2wjXHksi87wLbJjaMjSXOjJlxGEmJYje9JXrvSkxcUx1bYsuB9j7USYrkPe6uyUgBoAwEW9ubWTftidPoz1WX1SdzEZXl1nuXVg8IuhrtqvpgMitAndQ97ViHFmeogK4m39lleDd30kk9GTQhaqdcwHkfeqR5HRkbn38tKBcc+0wdf8yGV//+YuLHtQjYhjhRBiGE8vid17Uo/XmK1+YJimmKQh+O1VYkl2V3AAHAsAiwco5DdTXwzLaiMtSrLVU0UqqcPhl7baNXY6sRufLFaeuFE9Vv7qKuyXB950GHTS9pybbj7VSG7ceRU0j9u0eRoHwg9jyOFh2N2ngtgLYOkqfW4Zjy+N9fudeTXrq+XWCeKZ400BNRaiGW0Cw8AHIsAC0dxb2LHxs14q3rnniKmG1k33eNBdpU1jRuDKWLPjWUXUkh1H/k3tqAiy6sLtzPVJ9lMH2w8WlTqNSIZRy4lzSIcR1b7iC9vY30REDs3tr43On2zUcHQ6PyNsWzH9w9y165hG15Ymfrr8yVWEtXoaFeblVhSXY1leQEDwD4IsNAKt5tlDNPqPymCh9CVLbP32XXIl7kiqBZ3L/sK42ZIT4OKoVUjXDBRqp5aYt1HJPsAKZZx5ETxjCOjwH2Eh+EDuXspi0XOpbrPmq4PFcn4fiLpU5ZXM/cZbHntNhXYM7U79XedE+tppQiv1RDLvUWipA9ACgiw0Lax7Ba5XbX6EBpsqoVbz6iIKLxqjA0Wc19rMRlcK44dnZs+8l/XR0YhTuoebK5cH/lbtlMHV31006JiMFZ848h1qMDT9ZGxm3r0j8L2kVHAc3WOq2S0mpVzJunW6NySohrfT1V/Bge9dqUf0wanqsOrkNW10U6Vhx+/fP/+vfWDupuTWG5eAeA5Aix44cKAf6zbscaj6hv82zYf1t3N8YX7iiWQWPXZcorYOu7t+Ey2U+fWmavuI1MPfWSkuo+8a+u4LbpbTAZRvcWPfByZSipb7iNvVPePkfvV6tq4X0wGo33/UpZX7T9M/fRHBFOh9+Kq56w+D24Wk8HY6Nwxj+/NtXvb9rp/7kXZSHUAb7Xupdk47rm/R3cPEwtfIdZIcX74AgABFrxyO8H9Zd2OLZaqd/d6cF+zXR5IXRgxVH2z2vwa8wurgx5IQ0jgPmmpum+U7tdvuzxIr/SRc/c1Utx9ZC7pPJZKvVU9GEfO9XMcsdzwYRUhVgtckFPK7udq+uCfwPg+19Nr92HXMfDZfUAzxscQ2Jl93hNi2fASYklSlle3ivONG4D+IsBCEK6c3vc6ED404UVjqLhDiE2iDScaCYQUmzzvI28UTwixj6WkUUTTCF/o0DiSSh8hxGqJCzseZBdwmN7vJTq+z1VXka1zrjjCqk0IsXqm7YXdV43FIu8A4rCU9DsBFgK6Ul2+n5oT1TdjzVeKAdZS0kXMAZb0Y/2UFHd1ft5HUggn1rmKOcByujKOpNpHcCA3ZW0ku2fBr6HWg1wn0fH9VE+v29WvmAMsSYr68x7t8xZiuZvHwtfxAWBH0b9tR/e4z8CReJlj4SKh6z3VkCJ1H1N4qcE4Elxp3YAucePw2LAJpWWQJcb3kFL5zEdLfFZixbRLA4B+ehQBFozwAGrifUpTb1b6CA864dy4+9MkMI4Exb1CyxaTwa2k90anP5F069boCo7xPSiu3Z7xGmI5Y/HBCyA8AiyYc/1vJD4HQ0hyzTtCiqBMdy47FONIEHMXuKBlblz+YnT6U9W7rppgfA9iybXbP95DLDcnuvB9HgBYcaM6wGKOPMy5B1CTrZ97JMkAq8GDThBJBlgNxhHvCusGdNliMriS3RpRb91C6yYY370jwOqhEJVYzbTCuxDnAtB7XxaTwZgACzFxU9zei5tYH5IOsBpU23iVdIDVYBzx5rELY0js3DVoNbWusJpWKDG+e7RUvfYYeiZIiOWMxYULwK/37m0fEB33kDQSn4Vt6kSA1Vh50JkbN6VLOhFgNRhHWreU7eLjfTOSTZB1IuNKRsZ3L654ad1PwUIs18Eogwbgw1LS7116mEU38Ta2VZ0KsBquj5yLxYDb8LlLAVaDcaQ1S6W1m2ny3PPgWDZ9d2xwzicY31t108V7AOwmZCVWUwb9OeQ5AXTeo6RzbkKRipUHUG5iD9P50HplDRV2eD7c+8VkUFg3whfGkaMtVa+dWVo3pG8MQ9i3gc+3FuN7K9538QUFdhc0xJIkd0PBRQugDc0C7jPrhgD7WLmJ5/NwP73ZdXQxGXxbTAYj2S2GnKqlpD+6HHI2GEcOxssvY+57H3z5hyyvzkOfcx3G94MtJf3Zh/Ed2wUPsZwLUQIN4DgfWcAdKVu5ibXaejw1d+pJgLXKvW1+b92ORDThRGndkFAYR/bGy69IuCAi9Nhmtrj7Oozve2leYrEbIWxCrJUySgDYV/OW/dq6IUAb3GYEf4qXO9t8XEwGF30Nrd3D3u9iQeBtviwmg/O+hhOMIzvh5Vdk3NjW62okxvedNOFzr15iYTOrSqymjJTkGcA+7iUN+/SWHf3g3iyei2lBzz2qXv+q96H1yoLAvX7gW6OZXtL7nWkZRzZiHImYq0a6C3S6KANMxveNmvGd8BlPmIVYEuk7gL18XkwGIz7E0FWLyWDmpgV9FNUUUn3Ns27NCjd1bKy64oa39vWD75DpJT8xjrwQYhzxubj+zOOxYzJWgE0KYv48YXx/4U719PDYx/fS47F55tnANMSSfqTvvDECsEkzfbCwbggQgqsWOFe4N9OxuVddNVFYNyRWKxU3fV0Haa767Xxvp5i+hnEk6DhSejruvC/TY1eWmvEZ3iRxLTC+PxnfZ9aN2YHPYLT0eOykmYdYzoXYIhjAS0wfRC+5aooLSX+oP29k56q3zWbdix24t/ZXqtdS6cvLwKWkz0rj7bw5xpFg44ivvtirPu6CLJ+bfyXz/WR8T2p8Lz0dd8690Ga/fP/+3boNkqQsr4aqk8wT46YAiMNH1q8AallejSUVkk5tW+LFUtK1pGuqag6X5dVIdR95a9sSb75IKugjh2Mc8SfLq5na/77+J5FKlFZleXUu6d+WDztfTAbDlo8ZTA/G9xvV4/vMuiGHyPJqKumy5cN+piJ9s2hCLOnHoFWKIAvos0dJY94+AC917CF0LmkqwqtWdexhZ6mffWRm25TuYBxpn7vu/mnxkF/6vFmB66NfWzzkn4lV96zVwfH9VgmHV40sr96oXr+urQxjrroijXujDaIKsSSCLKDneNMO7CDLqwvVC+G+M27KIe4lTd3mLvDE3U9dqf23wyHMVVfVTPk88CfxceRRdXA1tW5II8ura0kfWjjUo6Teb2ST5dWVpL9aONSNW4O5Mzowvk/VsRdYbjz9u6XD/c7L/O2iC7EkL+k7gLjNVVdfldYNAVLipuI3D6Jnpo3Zbq76jSsVNYG5N8QXqh94Yu4jzVv5KZ8FYTGOtKeFaUUEWCta+H52LsBaxfgel5YyjPcxhfOxijLEkgiygB6h+gpowcqD6IXimGrwqLqyesobxTi4PjJS3UdiqL5pQomyC1N9uoBx5HhHVGQRYK1xxPezV2sKRTq+l5Ju+zS+H5FhLCVdEWDtJtoQSyLIAjqO6ivAE/d2dqR6m+7mV9/T9O9Vb9BSqg4leBCLnFtfZaS6f5zL/xpJj3raR2aez4cjMI4czl1bU+12TS1VV5cVHpuUtD3XgrpX/XK09Nik6DG+23HTPa+1+4uAe9UBVhJBfQyiDrEkgiygoz6rY3Phgdi5t7RD1TezzcNpY5cbrUdJzTVbrvz6jRuvbnChRfPA82blV2m3AGOuenFbqX6Y+eZ+ndFHuoFxZD9unZwL1d+v1eleS7mHfbH2285cONB8P9+s/NY3/az6mYVvWfw8ju/f+h4YbuKCxLHqcfJ5iNhUqnV6iqUv0YdYEkEW0CG8aQAAAAAAHCSJEEv6kWTeil0LgRQtVZd2X1s3BAAAAACQpmRCLOlHCWkpgiwgJTeqq68olQcAAAAAHCypEEv6EWTdyv/idACO86g6vCqtGwIAAAAASF9yIZb0Y2G6Uk8XSAQQB7aIBQAAAAC07lfrBhzCTUsaSbozbgqApz5LGhJgAQAAAADalmQl1qosr64lfbBuB9BzN6oXbp9ZNwQAAAAA0E3Jh1iSlOXVWNK1WPAdCO1edXhVWjcEAAAAANBtnQixpB8Lvk/FOllACIRXAAAAAICgOhNiST8WfJ9KemfcFKCr5qrDq6l1QwAAAAAA/dKpEKuR5dWVpEJMLwTaQngFAAAAADDVyRBLYnoh0BLCKwAAAABAFDobYjWyvCokfbJuB5CYe0nXi8ng1rohAAAAAABIPQixJCnLq5HqqqxT25YA0WPBdgAAAABAlHoRYkk/Fn2/ElVZwDo3qsOrmXVDAAAAAABYpzchVsOtlXUt6a11WwBjS9XXwvViMvhm3RgAAAAAALbpXYjVYAdD9Nij6uBqat0QAAAAAAB21dsQS/oxxbCQ9MG4KUAIN6rDqwfrhgAAAAAAsK9eh1iNLK+Gqhd+Z4ohumauesrglCmDAAAAAICUEWKtcLsYFiLMQtqWkm5F1RUAAAAAoEMIsdbI8upCdfXKqXVbgD3cSbplrSsAAAAAQBcRYm2R5dVYdWUWYRZi9ah6KuztYjKY2TYFAAAAAAB/CLF2wDRDRIbgCgAAAADQO4RYe3Bh1ljSpW1L0ENNcFWyzhUAAAAAoI8IsQ7gdjMcS7qSdGLaGHQZFVcAAAAAADiEWEdy62aNxVRDHG8pqVS9s+DtYjL4ZtscAAAAAADiQYjVEleddSXpQiwEj909ygVXi8mgtG0KAAAAAADxIsTyIMurC9Vh1oWYboin5qpDq1JUWwEAAAAAsDNCLM8ItHpvNbQqWdsKAAAAAIDDEGIF5AKtkZhy2GXN9MAHEVoBAAAAANAaQiwjbg2tJtR6Z9oYHGquOqxqAqvStjkAAAAAAHQXIVYksrwaqQ60RmKnwxg9CawkPbCeFQAAAAAA4RBiRcqFWueqQ61zMf0wlKV+hlUz1WFVadkgAAAAAABAiJWMLK/e6GmoNZR0Ztik1N1L+qafYdVMVFcBAAAAABAtQqzEuYqtofs6l/RGTEeU6gXWm5Dqya8EVQAAAAAApIcQq6NWKreaX6W6ikuqA68UpyfOVVdMST+rp6SfAdW3xWTwELxVAAAAAADAO0Ksnsvyqgm6pKeBV2PovtpWrvlvTcXUD6xHBQAAAAAAJOn/APTzekXw9ZjjAAAAAElFTkSuQmCC;" parent="98" vertex="1">
                    <mxGeometry x="340" y="180" width="141" height="36.28" as="geometry"/>
                </mxCell>
                <mxCell id="74" style="edgeStyle=none;html=1;exitX=0;exitY=0.5;exitDx=0;exitDy=0;fontSize=16;fontColor=#FFFFFF;" edge="1" parent="98" source="71" target="37">
                    <mxGeometry relative="1" as="geometry"/>
                </mxCell>
                <mxCell id="96" value="" style="group" vertex="1" connectable="0" parent="98">
                    <mxGeometry x="369.89" width="70" height="105" as="geometry"/>
                </mxCell>
                <mxCell id="72" value="" style="group" vertex="1" connectable="0" parent="96">
                    <mxGeometry y="35" width="70" height="70" as="geometry"/>
                </mxCell>
                <mxCell id="71" value="" style="whiteSpace=wrap;html=1;labelBackgroundColor=#FFFFFF;fontSize=16;fontColor=#FFFFFF;fillColor=#ffffff;" vertex="1" parent="72">
                    <mxGeometry width="70" height="70" as="geometry"/>
                </mxCell>
                <mxCell id="93" value="github" style="text;strokeColor=none;align=center;fillColor=none;html=1;verticalAlign=middle;whiteSpace=wrap;rounded=0;dashed=1;labelBackgroundColor=#FFFFFF;strokeWidth=8;fontSize=16;fontColor=#000000;opacity=70;" vertex="1" parent="96">
                    <mxGeometry x="10" width="60" height="30" as="geometry"/>
                </mxCell>
                <mxCell id="73" style="edgeStyle=none;html=1;exitX=0.5;exitY=0;exitDx=0;exitDy=0;entryX=0.5;entryY=1;entryDx=0;entryDy=0;fontSize=16;fontColor=#FFFFFF;" edge="1" parent="98" source="9" target="71">
                    <mxGeometry relative="1" as="geometry"/>
                </mxCell>
                <mxCell id="97" style="edgeStyle=none;html=1;fontSize=16;fontColor=#000000;strokeColor=#f50505;strokeWidth=3;" edge="1" parent="98" source="37" target="25">
                    <mxGeometry relative="1" as="geometry">
                        <Array as="points">
                            <mxPoint x="-20" y="60"/>
                        </Array>
                    </mxGeometry>
                </mxCell>
                <mxCell id="101" value="自動デプロイ" style="text;strokeColor=none;align=center;fillColor=none;html=1;verticalAlign=middle;whiteSpace=wrap;rounded=0;dashed=1;labelBackgroundColor=#FFFFFF;strokeWidth=3;fontSize=16;fontColor=#000000;opacity=70;" vertex="1" parent="98">
                    <mxGeometry x="190" y="37.5" width="100" height="30" as="geometry"/>
                </mxCell>
                <mxCell id="70" value="" style="shape=image;verticalLabelPosition=bottom;labelBackgroundColor=#FFFFFF;verticalAlign=top;aspect=fixed;imageAspect=0;image=data:image/png,iVBORw0KGgoAAAANSUhEUgAAAgAAAAIACAYAAAD0eNT6AAAABHNCSVQICAgIfAhkiAAAAAlwSFlzAAAQKQAAECkB9XjiDwAAABl0RVh0U29mdHdhcmUAd3d3Lmlua3NjYXBlLm9yZ5vuPBoAACAASURBVHic7d13uCVVlbDxt3M3NLmbDAKi0kQRRaIJRUVFxIQYEB1zxBnTZ0AdVBidkWGcMcyo6GAWHcEEGEYcQRAJkkRaBFFSk2mgc39/rNt0uOmcc6tqVXh/z7OeCw19zzq76uy9TtWuvUGSJEmSJEmSJEmSJEmSJEmSJDXDpOwEJPVtE2BLYANg5lDMGuGfR/qzdf8ZYNFQPNjHP6/5Z/cBtwB3lfaOJRXOAkCqh5nEoL5mbDXCn20JTE/KcTxLiEJg3bh5hD9blJSjpCEWAFI1NgDmAbsO/dyetQf5jfJSS3EPaxcHfwGuBq4a+nlfXmpSN1gASMXajNWD/K5r/PO2mUk10F9ZXRBctcY/35GZlNQmFgDSYLZm7YF+1c+5mUl1wALWLghW/bwpMympiSwApPHNBh4PHDgU+wIbp2akdd0NXAj8eiguABamZiTVnAWANNy2rB7sDwT2AqakZqR+LQcuY3VB8GvitoKkIRYA6rrJwJ6sPeBvn5qRyvIXVhcD/wdcDqxIzUhKZAGgrpkFHMDqwX5/Yoa+uuc+4HxWFwXnEesbSJ1gAaAu2Bx4NnA48DRgvdx0VFMPAOcAZwA/AG7LTUcqlwWA2moeMeA/l5jANzk3HTXMCmIi4feJguDq3HSk4lkAqC2mAAcRg/7hwM656ahl5hOFwBnE/IHluelIE2cBoCbbAHgGMeAfBmyam4464k7gR0Qx8BNctVANZQGgppkLvJAY9J9MfdfFVzcsAX5BFAPfJhYqkiQVZCpxL/97RIe70jBqGEuIc/S5xDkr1ZpXAFRnewDHAi8lZvJLTXEb8FXgS8R6A1LtWACobjYFjgZeCeyTm4pUiN8BpwJfI+YPSLVgAaA6mAI8nRj0DwdmpGYjlWMxMVfgVOAsfJJAySwAlGkXYtB/BbBVbipSpW4GvkIUA3/ITUVdZQGgqs0AXgb8HbBfci5SHfwG+C/gNOIqgVQJCwBVZWPgDcBbgS2Tc5Hq6BbgFOAzxPbGUqksAFS27YC3A68FZifnIjXBQuDzwMnAjcm5SFLf9iDucfrcvmEMFkuIz9AeSFIDPJlYJjW78zSMNsWPiM+WJNXKFGJ53t+S31EaRpvjt8RnbQrSBDkHQBMxi1ip7x3Aw5NzkbrkT8C/ECsNPpicixrKAkCD2ICY2PcWYnMeSTkWAP9GTBh0V0JJpZkGvBm4lfxLoYZhrI5bic/mNCSpQJOAo4D55Hd0hmGMHvOJz6pXdyVN2CHAReR3bIZh9B4XEZ9daVRWiRrN3sCJwKHZiUga2NnAe4BLshNR/UzOTkC1syOxj/nvcPCXmu5Q4rP8VeKzLT3EKwBaZQ7wfmK9/unJuUgq3hJin4ETgNuTc1ENuJiE1gfeDXwTeCKeE1JbTSF24Hw9MJW4MrA0NSOl8gpAd00ituT9CO7OJ3XRLcAHia2IVybnogQWAN20O/A54IDsRCSlOw94HXBFdiKqlpd7u2UW8Y3/y8AOualIqontgNcQ/cN5wLLcdFQVrwB0x6HEBKCdshORVFvXEROBz85OROXzMcD225x4BOgsHPwljW0noq/4KtF3qMW8BdBeqyb5fR/YNzkXSc2yB9F/3IGLCLWWtwDaaR4xye/g7EQkNd6viEmCV2cnomJ5BaBdZgLHA/+Nl/slFeNhxCTBGcD5OEmwNbwC0B6HEJP8HpGdiKTWupaYJPiz7EQ0cU4CbL6Nicf6foqDv6RyPYLoa75M9D1qMK8ANNvBwGnA9tmJSOqcvwAvI+YIqIGcA9BMU4EPAV8ANslNRVJHbQS8guiPfgWsyE1H/fIKQPPsRDyju192IpI05DfAS4mFhNQQzgFolpcBl+LgL6le9iP6ppdlJ6LeeQWgGTYkZvgfnZ2IJI3ja8STAvdmJ6KxWQDU3wHEJf8dkvOQpF5dT9wSOC85D43BSYD1NQX4AHAqsGluKpLUl42BVw798/8BK/NS0Wi8AlBPDyO+9R+YnYgkTdCviasBN2QnorU5CbB+jgIuw8FfUjscSPRpR2UnorVZANTHdOA/ga8Tz9dKUltsRPRt/0n0daoBbwHUwxbAd4kJf5LUZr8GjgRuy06k6ywA8j0G+B9gu+xEJKkiNwLPBS7JTqTLvAWQ68XEDFkHf0ldsh3R970wO5Eu8zHAHJOAE4BTgGnJuUhShmnAC4hx6H9zU+kmbwFUbwNiB7/DsxORpJr4HvBy4P7sRLrEAqBaOwFnALtlJyJJNfN7Yl7A9cl5dIZzAKrzFOBCHPwlaSR7Ar8FnpCdSFc4B6AabyJW9pudnYgk1dh6xI6CtwK/S86l9SwAyjUN+Cyxpr9XWyRpfFOA5wBzgbOBFbnptJdzAMozh1jc5+DsRCSpoX5OPClwV3YibWQBUI5tgXOAXbITkaSGuwJ4GnBLdiJtYwFQvJ2BnxI7+kmSJu5PwFPxCYFCeV+6WHsSq1s5+EtScR5O9K3zshNpEwuA4uxHrGa1RXIektRG2wDnAvtkJ9IWFgDFeCpx2X+T7EQkqcXmEBMDXSugABYAE3cE8ANg/exEJKkDNgR+AhyWnUjTWQBMzCuA7wAzshORpA6ZRWyj/uLsRJrMhYAG92bgc1hESVKGKcCRwM3Axcm5NJIFwGDeD3wCH6OUpEyTiFUDHwDOS86lcSwA+vdJ4H3ZSUiSHvI0YDoxQVA9sgDo3WTg88Slf0lSvRxM7B/w4+xEmsICoDeTgC8Cr8pORJI0qn2BLYknszQOC4DefAp4fXYSkqRxPZbYVvin2YnUnQXA+I4H3pOdhCSpZwcCS4jlgzUKC4CxvQ04MTsJSVLfDgFuAy7KTqSuLABGdwzwGXzUT5Ka6jBgPnB5diJ15OA2sucB38YCSZKabhmxYNCZ2YnUjQXAcE8lZpC6vK8ktcMi4mrAL7ITqRMLgLXtR8wcdWMfSWqXhcS8gAuzE6kLC4DV9gB+iVv6SlJb3Qk8EbgiO5E6sAAIDyceF9kyOxFJUqluBg4CrstOJJsFAGxDDP47JOchSarGn4ki4KbsRDJ1fSvbzYCzcfCXpC7ZETiHGAM6q8sFwAzisZBdsxORJFVuV2IM6OwTX11+zv2/iH2kJUndtB2wLfD97EQydLUAeAfw7uwkJEnpHg3cB5yfnUjVujgJ8OnAD+lu8SNJWtty4FnAWdmJVKlrBcAjgQuAjbMTkSTVyt3A44E/ZidSlS5NAtwYOAMHf0nScJ0bI7pSAEwBvgE8KjsRSVJtPYoYKzpxi7gTbxL4JPDy7CQkSbW3MzCbWCOm1bpQALwSOCk7CUlSY+wP3ABcmp1Imdo+CXB/YvvHzi70IEkayGLgybT48cA2FwDbAr/FDX4kSYO5BXgc8NfsRMrQ1kmAs4iVnRz8JUmD2pIYS2ZlJ1KGthYAXwIek52EJKnxHkOMKa3TxkmAbwTelZ2EJKk1dgcWELeVW6NtcwB2Iw5QKy/XSJLSPEjMB7gyO5GitOkWwAzgazj4S5KKN4sYY1rzVFmbbgH8M/Dc7CQkSa21BbAB8JPsRIrQllsAzyR2+GvL+5Ek1dNKYufAH2cnMlFtGDA3By4f+qmx3Qb8YSj+SNwC2hTYbOjnqn/eZuinpOa7F/gd8Bdi3/tVsXDo50xiktvuwB5EP6Cx3Ua01W3ZiUxEGwqAHxFXADS6o4lq9e4+/s4jgAPXiF1ox/kitdkS4PfAhWvEH4hvrb3aGvg48IrCs2uXHwOHZScxEU3v0N8K/Gt2EjV3A7Aj/XUAI9kUOGAongHsPcHfJ6kYfwFOB75LPAW1uIDfuS9wQQG/p+3eBpySncSgmlwA7ElUt62ZkVmSk4D3lPB7HwUcBbwEt1mWqvYnYtD/DuU9m/5H4kqgRreYKJZ+n51Il8wEriC+1Rpjx6MHbON+7E0UGjckvD/D6EpcA5xANZ9pgA+V/H7aElcQY5Iq8u/kH/QmxNWDNvCAJhHzBf4NuGOCuRuGAcuIb/pPonqP6DPXLse/D9jG6tNzyD/YTYnjB2zjIswCXgVcMkJehmGMHQuAjwHbkesC8tuiKfGcAdtYPdqS+GBkH+imRF3uzR8IfIOYoZzdJoZR5/gd8Erqc0n5reS3SVNiAe5AW6ofk3+QmxIXD9jGZdoa+DBwM/ntYxh1iSXEErMHUD9bELchstuoKdH4xYHq6mjyD26Tos47Ik4njuf55LeTYWTFzcREu62ot5+Q31ZNiqMHa2aNZhPgVvIPbJPiYQO1dPX2AU4FFpHfZoZRRZxHDBLTaIZjyG+zJsWtxJilgvwn+Qe1SfGHwZo51RzgvcSiJtntZxhFxyKi0N2H5tkCWEF+GzYp/nOgltYwB+PJ1298eqCWrocpwJHAueS3o2FMNJYDX6E5V+RGcyn5bdmkWEGMXZqA6cCV5B/MpsURgzR2DT0V+A357WkYg8SPgb1oh0+Q355NiyuJMUwDej/5B7FpsQzYaJDGrrFn43oCRnPiIuAptMvTyG/XJsb7B2lsxSpUD5J/AJsWvxmksRtgEvBC4Cry29gwRor5wItp9h4ro5mJ/fEg8SA13k9hcnYCY/gM9VkMo0l+mp1ASVYC3yb2LH8FcF1uOtJDFhAL5swDvkmcq22ziJiXo/7MJMYy9eHl5FduTY0n9d/cjTQVeC0+NWDkxULgI8AGdMM/kN/mTY2XD9DenbQZLvc7aNxP9yadzCD25L6L/PZvSiwnzpXbh+L+oT/LzqspsRT4LN1b9nVP8tu+qbGAGNtqpY73qr4IHJudREOdAxyanUSSLYFTiHkCbbQUuAW4aShuHoqFxH3GVbFonX8f6c+WjPIa04lNnFbFzHX+faQ/m02sZLcVsdTz1sSxaMoiN/06E3gnsTVvF90KbJ6dREN9idggrTbqVgA8Efjf7CQa7CTgPdlJJHs28B/k76LWq2VEp7rmwH7TOnEzq6+KNcEkYC5rFwWrYs0/24K4ldMENxH3+U/PTiTZj4BnZifRYE8CfpmdRB3NIFawy75U0+R4ad+t3k6zgX+lXpe17wZ+DXyeGEgOIQbBOk/ELdtkog0OIdrk80Qb3U3+8VoVK4iCsm2P1g7q4+QfkybHH4ixTus4nvyD0/TYo+9Wb7d9gcuo9hjcR+yh/kXgHcDTgW3LfqMttC3Rdu8g2vICom2rPJZXUM8d+jIdRX4/1/Q4vu9WL0ldbgFsDVwLrJedSIMtJb75jnZ/t6umErOXP0jcsy7KCmKAuGzo55VDcQPxIVfxJhFL6u42FLsTK+3tTrFXUhYBHyVuqS0t8Pe2wTxiLQ4N7gFgZ+LWnohLf9lVWdPj8r5bvVseTqyRMGj7LiW+hX6CmGewcbXpawwbE8fkE8QxWsrgx/nnwCOrTb9RpuCCQEXE5/pt+LaaR0yEyj4gTY+v9dvwHXUM8ejbeO25GPgV8U3wUOLqipphNnHMPkocw8WMf7zvwKePevVb8vu7pscyYJd+G76N/of8g9GGeG+/Dd9hc4HTWLv97gd+RtwqeBKuQtkmM4lj+kHiGN/P2sf+q8Q5od78F/n9XRviu/02fNscSP5BaEs8q8+2V0wyew8x0autz61ruGnEMX8PcQ6oP28hv79rS+zfZ9u3yq/JPwBtiR37bHtJGsRTyO/v2hKp+ytkPoN8BD5iU6RbsxOQ1AnOXi/OwcQE1hRZjwFOIR6dchJEMe7HSWqSqrEpMWlSxbiS2GdhRdUvnHUF4NU4+BdpQXYCkjrjLmIWu4qxG/F0UuUyrgCsB8wn1gRXMX5LrHonSVW4CfvwIv0VeASxCFVlMq4AHIcnTtFuy05AUqfY5xRrW+LpikpVXQDMAd5V8Wt2gbcAJFXJScfFey+wSZUvWHUB8AFgw4pfswssACRVySsAxduEihd0q7IA2Al4fYWv1yV+GCVVyT6nHG8BtqvqxaosAP4RmF7h63XJ/dkJSOqUhdkJtNRM4ENVvVhVBcCOwIsreq0umpqdgKROmZKdQIu9nJgUWLqqCoB34AlTJgsASVXKXEW27aYBb6vihao4iJsBr6rgdbrMAkBSlfxCV67XAhuV/SJVFABvIhb/UXn8MEqqkn1OuTYEXlf2i5RdAMwC3lzya8grAJKqZQFQvrdR8sT5sguAY4C5Jb+GLAAkVcsCoHxbA0eX+QJlFgCTgb8v8fdrNQsASVWyAKjGP1Dinj1lFgDPA3Yu8fdrtZnZCUjqFNd0qcZuwGFl/fIyC4B3lvi7tbZKnhmVpCHbZCfQIaWNpWUVAAcDjy/pd2u4h2UnIKlTKluuVjwReFwZv7isAsBv/9XaITsBSZ2yfXYCHVPKmFrG5IJ5wJUl/W6NbCXxyOXi7EQktd6GwD3ZSXTMcuBRwJ+K/KVlXAEoddaiRjQJK3JJ1bCvqd4UYkn9QhVdAGwFvKzg36ne7JCdgKRO8P5/jmOBOUX+wqILgLfi4yFZnAgoqQoWADlmEUvrF6bIAmAa8OoCf5/6s2N2ApI6YYfsBDrsNRS4CFORBcCzcNnfTPtmJyCpE0p5JE092QZ4WlG/rMgCwC1/cz0el+eUVK4puMZLtsLG2qJm628B/BXXpM+2N3BpdhKSWuvRwCXZSXTcYmKjoDsn+ouKugLwchz86+CA7AQktZp9TL4ZFLRLYFEFwLEF/R5NjB9OSWWyj6mHQsbcIgqAfYFdC/g9mrgDsxOQ1Gr2MfXwGGDPif6SIgoAv/3Xxw7EYkySVLSt8BHAOpnw2DvRAmAm8JKJJqFCPSE7AUmtZN9SLy8j1t8Z2EQLgCOBjSb4O1Ss52cnIKmV7FvqZQ7wnIn8gokWAF7+r59nA7Ozk5DUKrOJvkX1MqExeCIFwPbAUyby4irFLOC52UlIapXnEn2L6uUZwJaD/uWJFADHTPDvqzzOy5BUJPuUeppKrMMzkEFXApwEzAd2GvSFVaqlRFU44ZWiJHXepsAtTHDCmUpzNQM+ij/oN/gn4OBfZ9Nwwo6kYjwfB/86m8eA+zMMWgC8YsC/p+oclZ2ApFawL6m/gcbkQQqAyUzw0QNVwp0BJRXBvqT+Bpr4PUgBsB8wd5AXU2X+hLcAJBXjBcB12UloTNsA+/T7lwYpAPz2X293Ac8C7shORFIr3E70KXdnJ6IxHd7vXxikAOj7RVSZpUS1fk12IpJa5Q/AC4Fl2YloVKWPzTsBK43axqtHP3SSNGGvJ7+fM0aP7UY/dMP1ewXAy//19U/AF7KTkNRqnwVOzk5Coyr1KsDPyK9wjOHxXQZf1EmS+jEZ+AH5/Z4xPM4a47gN08+gsRGwABeEqJvLgAOAB7ITkdQZs4ELGHAFOpVmCbFL4H29/M/93AJ4Jg7+dbMIOBoHf0nVWgi8lBhwVB/Tgaf3+j/3UwB4/79+3g1clZ2EpE66FPhAdhIapud5AL3eApgK3AZsMlA6KsM5RKW3MjsRSZ01GfgFsT+M6uFOYHNg+Xj/Y69XAA7Cwb9O7gReiYO/pFwriHXo78lORA/ZFDiwl/+x1wLAxX/q5XXATdlJSBJwA/Dm7CS0lkLH7GvJf7zBiPjyOMdKkjJ8k/z+0Yj44zjHCuhtDsA8nGhWF9cDewH3JuchSevaBLic2JhG+eYRSziPqpdbAM8sJhcV4HU4+Euqp7uAN2YnoYccNt7/0EsBcFABiWjifgScnZ2EJI3hDODn2UkI6GHs7uUWwK3EIwXKswzYE7g6OxFJGsdewMUMttusinMbsMVY/8N4B2hnHPzr4PM4+EtqhsuAU7OTEJsTY/ioxisAenqWUKW6Bzg+OwlJ6sP7iOWClWvMMXy8AsD7//lOAG7PTkKS+nALcFJ2Ehp7DB9vDsBVxKMEynEd0f5uuCGpaWYB1wDbZSfSYVczxo6NY10B2BTYpfB01I934eAvqZkeBN6bnUTH7UKM5SMaqwA4gN43C1LxLgZOz05Ckibga8AV2Ul02CRiLB/RWAWAEwBzfSo7AUmaoJXAydlJdNyoY/lYBYATAPPcTKyrLUlN91VgQXYSHTbqWD5aATAdeGw5uagH/wEszU5CkgqwiOjTlOOxxJg+zGgFwD7AzNLS0VgWAZ/NTkKSCvQZYHF2Eh01kxjThxmtAPD+f57T8Ll/Se1yKzEhUDlGHNMtAOrHCTOS2siJzXksABrgHODK7CQkqQSXAz/NTqKjei4AdgbmlpuLRnFKdgKSVCL7uBxzGWFjoJEKgN3Lz0UjuAs4KzsJSSrRT4i+TtUbNraPVAC49n+O7+Ojf5LabSnR16l6w8b2kQqAUTcOUKm+k52AJFXAvi7HsLHdKwD1cA8xAVCS2u4cos9Ttca9AjAJdwDMcCbu+iepG5YQfZ6qtQvrbPC3bgGwPbB+ZeloFS+JSeoS+7zqrU+M8Q9ZtwDw/n/17sPZ/5K65Syi71O11hrjLQDy/YBY/1+SumIR0fepWmMWAE4ArN4Z2QlIUgL7vuqtNcZ7BSDfr7MTkKQE9n3VW2uMn7TOf7wL2Li6XDrvr8B22UlIUpIbgW2zk+iQu4FNVv3LmlcAtsLBv2rnZScgSYnsA6u1MTHWA2sXAN7/r9752QlIUiL7wOo9NNavWQB4/796Vr+Susw+sHoPjfVeAcizCLgkOwlJSnQJPgZdNa8A1MBFuPufpG5bSvSFqs6IVwB2Skiky7z0JUn2hVV7aKxfswDYMiGRLrswOwFJqgH7wmo9NNavKgA2A6bn5NJZ12YnIEk1MD87gY6ZToz5DxUAfvuv3p+zE5CkGrAvrN6WsLoA2GqM/1HFux13wpIkgHuBO7OT6JitwAIgy3XZCUhSjVyfnUDHrFUAeAugWl7ykqTV7BOr5S2ARF4BkKTVLACq5RWARBYAkrSaBUC1vAKQyJNdkla7PjuBjnESYCKvAEjSan4pqpa3ABLdlp2AJNXIrdkJdMyWAJOAWcADubl0ykpgytBPSRLMwF0Bq7beZPz2X7VFOPhL0poWA8uyk+iYLSfj/f+q3Z+dgCTVkH1jtbayAKieJ7kkDWffWK2tvAVQPedbSNJwC7MT6JgtJwMbZ2fRMVa5kjScfWO1Np4MzMzOomO8AiBJw1kAVGumBUD1PMklaThvAVTLAiCBVwAkaTi/HFXLAkCSpA6yAEhge0vScPaN1bIASDArOwFJqiH7xmpZACSwvSVpOPvGalkAJLC9JWk4+8ZqzZxM7MKk6niSS9Jw9o3VmuEVgOrZ3pI0nH1jtbwFkMD2lqTh7BurZQGQwJmukjScY1G1LAAS2N6SNJx9Y7UsABI46VKShnMsqpYFQILJwPTsJCSpRqYTfaOqYwGQxDaXpNXsE6s3czIwJTuLDnIioCStZp9YvSmTgQezs+igzbMTkKQamZudQAc9YAGQY6vsBCSpRuwTq/fgZOCB7Cw6aOvsBCSpRuwTq+cVgCRWu5K0mn1i9SwAkniyS9JqXgGonrcAkniyS9JqfimqnlcAkniyS9Jq9onVswBI4skuSat5VbR6D1oA5LAAkKTV7BOr94BzAHLMBDbJTkKSamBjXAo4g7cAElnxSpKX/7N4CyCRJ70k+WUoi7cAEm2TnYAk1YB9YQ5vASSal52AJNWAfWEObwEk2iM7AUmqAfvCHN4CSLRndgKSVAO7ZyfQUd4CSLQt8fiLJHXVhsDDspPoKAuAZF76ktRlfvvP4xyAZBYAkrrMPjCPcwCSefJL6jL7wDwPTAYWZGfRYZ78krrMPjDPgknEmvR3ZmfSUffgREBJ3XUHsGl2Eh21/mTgLmBhdiYdtRGwfXYSkpRgGxz8s9zB0C0AgBszM+k4L4FJ6iKfAMhzI8CqAuAviYl03V7ZCUhSAhdDy7NWAeAVgDxPzE5AkhIcnJ1Ah1kA1MTBwIzsJCSpQlOBJ2Un0WHeAqiJWcCB2UlIUoX2BTbITqLDvAJQI0/NTkCSKnRIdgId5xWAGrEAkNQl9nm5bgSYNPQvs3BJ4EwrgDnEmgyS1GbrE4vPTc9OpKNWAjOBJauuADyISwJnmgw8JTsJSarAwTj4Z7oVWAKrbwGA8wCyeUlMUhfY1+V6aKy3AKgPPxSSusC+LteIBYATAXPtDOyQnYQklWgurgCYzSsANWVlLKnNnsLqyefK4RWAmnpedgKSVKLnZCcgrwDU1aHEJTJJapv1gCOyk5AFQF1NBV6UnYQkleC5xBoAyjViAXATsLz6XLSOl2YnIEklODo7AbEcuHnVv0xe5z/MrzwdrWt/YMfsJCSpQJsBT89OQsxnjS/6k9f5jxdXm4tGYaUsqU1eAEzLTkJrj/HrFgCXVJiIRudtAElt4peaelhrjPcKQD3NA/bOTkKSCrAdsf6/8o15BcACoD68CiCpDV6Ci//UxZgFwF3A9ZWlorEcxfDjI0lN4+X/eriedbacH2mA8SpAPWxDLAwkSU21J7BXdhICRhjbLQDq7bjsBCRpAuzD6qOnAsAnAerjUGD37CQkaQBb4eX/Ohk2tnsFoP6soCU10VuA6dlJ6CHDxvbRZmbeRFRvyrcY2B64LTsRSerR+sSa85tkJyIglv/det0/HG2WuVcB6mMG8MbsJCSpD6/Cwb9ORhzTLQCa4Y3AzOwkJKkHU4C3ZyehtfRVADgRsF7mAi/LTkKSevA8YKfsJLSWEcf00eYAPAwXBKqbq4gnAlZmJyJJYzgf2C87Ca1lB+CGdf9wtCsANwB3lpmN+rYrcFh2EpI0hoNw8K+bOxlh8Iexl5p1HkD9nETcX5OkOjoxOwENM+pYbgHQLLsBr8lOQpJG8ELgwOwkNMxABYATAevpw8CG2UlI0hpmAP+UnYRGNOpYPlYBcFEJiWjiNgf+X3YSkrSGtxMTzVQ/o47l4+3RfAOxCp3qZTGwCz6pISnf5sB8YIPsRDTMX4in+kY03n7zPyk2FxVkBk62kVQP/4iDf12NOYaPVwCcVWAiKtaLgf2zk5DUaXsAr85OQqMaswAY7xbAhsAdwNTC0lGRfkPMul2RnYikTjoHeGp2fRM5ZAAAGCFJREFUEhrRMmAz4N7R/ofxrgDcS6zqpHraD/j77CQkddKrcPCvs/MZY/CH8QsA8DZA3Z0A7J2dhKROeRRwSnYSGtO4c/h6KQCcCFhv04GvArOyE5HUCdOBrwPrZyeiMRVSAFwMLJh4LirRPOCfs5OQ1Akn4lXHuruNHhbz66UAWAmcPeF0VLY3AM/OTkJSqz2DWPRH9XY2Pewc20sBAN4GaIovAFtkJyGplbYAvsz4T48pX09jdq8FQE/VhNJtDnwxOwlJrTOJGPw3z05E4+r5qn2vBUBP9xNUC4cBH8tOQlKrfBR4enYS6snv6HHeXq8FAHgboEneC7w+OwlJrfA2ok9RM5Ty6P7BxKUFoxmxDHjOiEdSknpzNLHSaHZ/ZvQeB414JEfQz2SOqcSywO5F3xwPAE8GLsxORFLjPB04E5iWnYh6dg8wh/gCOK5+bgEsA342SEZKsx7wA+Dh2YlIapR9gdNx8G+an9Lj4A/9FQDgPIAmmksctznZiUhqhF2AH+FKf03U1xjdbwHgvgDNtDPwY2JnKEkazc5EP29f0Ux9jdH9FgA3AFf3+XdUD48FfgVsl52IpFp6LHAesH12IhrIlcCN/fyFfgsAgG8M8HdUD/OAXxOX+CRplUOBXxC3DNVMX6viRXbAx0KaHrcTk3wk6WhgCfn9kjF4rKDCKze/rOANGeXGfcDT1j2wkjrlHfiFrg0x0BN6g9wCgFgTWs02m3hE8EXZiUiq3CTgE8Q24m7u03yVjskbEIvMZFc9xsRjOfABBi8GJTXLhsC3ye97jGLiPgZ8ZHPQTv8+4HsD/l3Vy2TgI8Tzo+70JbXbY4CLgRdkJ6LCnA7cP8hfnMi3Pm8DtMvTgEuBJ2YnIqkUbyIe83Nl0Hb5SsaLTgb+Rv7lD6PYWAa8D+8LSm2xEV7yb2vcwAT66olcAVgBnDaBv696mgKcQKwc6DPBUrM9Fi/5t9l/E4VAit3Ir4CM8uJvxI5gkpplCvAPwGLy+xGjvHgkyS4ivxGMcuObwFZIaoL9ifk82f2GUW6cxwQV8ehXygQEVepFwB+ISUQ+LijV06bA54nlvvdKzkXlq8XYOweXkexSXEg8SiSpHiYBrwQWkN8/GNXEImBjJqiIb3O3ExPG1A2PI4qAk4kFoSTl2Y1Ymv1LxJcxdcMZwN3ZSaxyJPkVkVF9/BX4O2Aqkqq0BXAKsJT8fsCoPp5FjUwH7iC/UYyc+CPwElw7QCrbJsDHiZXfsj/3Rk7cQkFfuoqa0LUE+EZBv0vN8whiL+pLgcOTc5HaaDbwfuDPwHuA9XLTUaKvEgu21cq+5FdGRj3iN8AhSJqomcBxwG3kf66NekRtn/C4jPzGMeoTPweeiqR+rQe8GbiR/M+xUZ+4gBo7mvwGqiqWEo9iZOfRhLgUeDkwDUlj2RL4KM6pMkaO51OgoidtTQWuBXYo+PdmuRY4k/gmeztwD3Dv0M/7ifbbhliO8VHr/NwJJ8Wt62/EzOXPU6NHWKQa2B14B/BSYlK1tK5rgV2IfXhq683kV0kTjc8RA/lEPAx4L3BFDd5P3eI+Yh2BHQZtXKklnkqso5L9mTTqH6+hAWbR7Akr/1R8k/Bo4BPEc/PZ769OsYzo/F4EzBi4daVm2Rp4N7G8dvZn0GhG3EyD+sgPkN9gg8SdZTTGGiYDTyEemVuR/F7rFncAnwb2Gbh1pfqaTmzJ+0Oi8M3+vBnNinfTIJsSl3mzG63feLCMxhjFfsBvS3ofTY/fE48+zR24daV62JuY93I7+Z8ro5lxD7ARDfMv5DfcILFnGY0xisnAq4FbS3gfbYhlwLnAO4nJL1LdTSOu8n0K+BP5nyGj+XESDbQtzdwl8AKq3/J2I6LDcF3vseOPwD8DT8L9B1QfmxCPQH+deLol+3NitCcWA1vRUKeS34CDxNtLaIte7Aqc02OOXY87gdOJqwMH49Koqs5WwBHAicQVKgt3o6z4L0pU9nPquxKPwTXtefj7iedyr096/ecRt1B2SHr9JloGXE5cwfnNUPyR+BBJg5pJTEx9PDFv5/HA9qkZqStWEGPoNWW9QBUD8/dp5gYxZwHPSHz9DYEvEDOHNZi7iYJgVVFwAeU/6aFmewRrD/Z74QqWyvE94MgyX6CKAmB/4LwKXqcMnwfeQO7KS28n1iawEyrGtawuBi4e+vfbUzNShinAdsTk0n2JAX9fYLPMpKQ17EfJa/9XdWn+XOI+bRN9h1iec0liDgcA3yQmVqp49wLziVnb6/78G95GaKoZwI7Aw4Gd1/m5IxbVqq9fEpOdS1VVAfAs4AcVvVYZfkrcl1+YmMNc4LvAQYk5dNEi4DpGLhBuoIb7cnfMbIYP7qt+bkv1T/RIRTiMWCW1FSYRi7tkz6icSFwIzCm6Yfq0Hj4lUKdYSpwXjVukowWeQCyPmn0OGEbRcRkt9DLyG3ai8Rei48k0k7iakt0WBjxAzHFRjtfiktpG++KltNBU4rG67MadaCwHPk7uc+fTiLkJ2W3R5VgGPHu8A6XSvQaLAKM9cT0tXuTsdeQ3cFHxN+BY8u4xTiEmBma3Q1fjVeMfIlXk1VgEGO2I19FiU4jFWrIbuci4jLyJeTOAX/eQo1FsvK+Xg6NKvY3888IwJhKXE2Nkqx1KfkMXHUuBfyiykfowF/hzDzkaxcSnezssSvAN8s8Pwxg0DqUjfkh+Y5cR3wE2KLCderUbsWVk9vtve3wbHyurs9nA1eSfJ4bRb/yQDplHezfQ+AOxyEjVnkFMTMt+/22Nm4jlmVVvuxHrdWSfL4bRaywlxsTKZd1vuB3YnFh6s23mEOs3n0m1687PH/r55Apfs0veAFyUnYTGtYB4XLfUNdSlAv0H8JXsJKq2GXAX+dVXWfE3Yp3xKk0FLikgd2Pt+GU/B0G10NbbjEa74i46vP/EceQfgDLjFmJb4SrtRexbkP3e2xJLgT36OgKqg0cAi8k/fwxjrDiODptG7MaWfRDKjJuAbYpqsB59qIC8jYiT+2t61cjHyT9/DGO0uBY3pOII8g9E2XEx1a4cOI1YnyD7fTc9bsGJf022PvBX8s8jwxgpjkAA/Jz8g1F2fJfqdl8E2AefCphovLzvVlfdHE3+eWQY68bP0UMeTayxn31Qyo6PFdVgPfpUgbl3Lf5vgPZW/UwiHs3NPp8MY1UsJ8Y8reEL5B+YKuL5RTVYD2YTj0Rlv+cmxvMGaG/V05vIP58MY1V8gZqo8pL0eLYkJkXMzk6kZHcQs8pvruj1Dge+X9FrtcXtwNbEEwBqvtnEXICNshNR5y0knlC5JTsRqNeyprcAJ2YnUYHNgC9W+HpnAN+r8PXa4Os4+LfJQqr9zEmjOZGaDP51NBO4gfxLNFXEGwtqs15sA9xb0vtoYzxmsGZWje1EN+YZGfWNG4gxTmN4CfkHqoq4H3hUQW3WC++D9haXD9rAqj1XBzQy4yVoXJOA88k/WFXEhcTyvVX5Vknvo02Rta2zyncs+eeX0c04n3rNuau13YBF5B+0KuLDBbVZL9YHrijpfbQhlhGTUdVOm+NtAKP6WESMaerDu8g/cFXEMuDxBbVZL3am3ZswTSQ6tSd3R51H/nlmdCvehfo2me58WP9IfDuvyrOAFSW8j6bHCyfSqGqE95B/nhndifOo19N2jfJI4AHyD2IVcVJBbdarDxaYextiOe1fg0JxKTb7XDO6EQ8QY5gm4G3kH8iqTpYqdw2cBJxWwvtoalw5seZUg1xH/vlmtD/eRs014dLEKcAvs5OowCzg+ApfbyVwDPDVCl+zzn6XnYAq4z4PKtsvibGr1ppQAKwkHt9ZmJ1IBY6l2ktGy7EIWOWi7ARUmd9mJ6BWW8jqR05rrQkFAMCfgXdmJ1GBqcAJFb+mRUCwAOgOj7XK9E5izFLBzib/vk7ZsQLYp6gG68MUujsnYBmw3sSbUA0xi9jrIfu8M9oXZ6PSbAfcTf5BbutJNAX4GN17RNDlf7vnUvLPO6NdcTcxRjVGU24BrHIjcFx2EhV4GvCUhNddDvw/4DnEYkFd4SXh7vGYq2jHEWNUYzStAAD4Et1Ysa3KJYLX9UNiR7yudJI+AdA9F2cnoFb5ITE2NUoTCwCA1wB3ZidRsoPImQuwyvVDOXw2MYeqdKXQ0Wo3ZCeg1riTGJMap6kFwM3AW7KTqED2QhKLgTcQSwdfk5xLWS4CLstOQpVr1KVa1dpbiDFJFTud/IkfZcZi6rM73TTg7bRjI6F7iSsbexfaQmqSTck/D43mx+kozVzgNvJPgjIjcy7ASOYAnyEenctum37jIuJSnWv+C+B+8s9Jo7lxGzEGKdGR5J8IZcatwIzCWqs4uxLfou8jv43GiquAk8mdT6F6uob889NobhyJauFk8k+GMuOY4pqqcBsCbyI208lup5VEwfRV4JVUu7mSmuen5J+vRjPjZFQbU4FzyT8pyopLimuqUj0R+HfgCqpZTOhe4nGubxHLbz6a2OVQ6sWp5H+2jebFucSY03ht6iy3IAaDrbMTKcnBNGsXsznAE4iiYH/iuMyht9sZK4jtkVfFXcB84Np1ft5SeNbqklPoxtNEKs5NxBopt2YnUoRWVDFDbgVeAPwvMD03lVK8iWYVALcD3x2KNW1AFAJziCcLHhghFlWXpjrswewE1ChLiDGmFYN/W72B/EtEZcQS6vNIoNQGHyb/c200J95AyzR1IaCxfAb4cnYSJZgGvDY7CalFvNKkXn2ZGFtapY0FAMDraeda36+jXbdtpEwWAOrFxcSY0jptLQAWEc9o3pGdSMG2Bp6XnYTUEhYAGs8dxFjSynOlrQUAxGYfLyFmlLfJh4jbAZImxkmAGssKYgxp7cZRU7ITKNl1wFLgkOxECjSXWH3vvOxEpIabBzw/OwnV1vto53yyTplEPIqWPYO0yFgIbFdkI0kddBT5n2WjnvFd2rVOzojafAtglZXEUrpt2s52feBT2UlIUgtdQ4wZK7MTKVsXCgCIS+bPG/rZFs8HnpGdhCS1SBvHilF1pQAAuBo4NjuJgv07sEl2EpLUEscSY0UndKkAADgdOCk7iQLtBHwb1waQpIk6iRgj1GJTgHPIn2RSZHy20BaSusFJgMaqOIf2PxU3TNeuAAAsJzZ0uDQ7kQK9DnhrdhKS1ECXEmPC8uxEqtbFAgDgHmIC3Z+yEynQv+CkQEnqx5+IfvOe7EQydLUAgNjS8VDas6f8FOBbwJOzE5GkBriFGAM6u71vlwsAiJUC21T9bQD8BDg6OxFJqrFVV4Gvy04kU9cLAIDLgMNpz2YP04HTgHdnJyJJNbSI6PMvy04kmwVAOBd4Me2ZBDIJOJFYJ8BjLElhOdHXn5udiOrnWPIfRyk6zgTmFNlIUkv4GGD3om2Lwalg7yL/JC06biWWt5S0mgVAt+JdSD34JPknaxlxGi4dLK1iAdCd+CRSjyYBp5J/0pYRNwHPKqylpOayAOhGnEoHtvZVsaYS98+zT96y4ofA3oW1ltQ8FgDtjzNxrxQNaBbwK/JP4rJiBbF40C5FNZjUIBYA7Y5fEX24NLCNgd+TfzKXGcuIy2QPL6bJpEawAGhv/J7ouzUGnxEf393A04E/ZydSoinAMcC1wM+AlwHrpWYkSYP5M9Fn352diNpjZ2ICXXZlW1XcA3we2L+IxpNqyCsA7Yu/EX21VLidiN2jsk/yquMmYq7AW4BH45UjtYMFQLviT8COqGc+GtG/rYBzgN2yE0l0D3AecAlx22D+0M8m7Ko1B9hjjfgS8V7UPUcBX89OQoW4gtjZ7+bsRJrExyP6dzPwBODHwL7JuWTZCHjmUKzpPlYXA9eu88+3VZjfbGC7odgemMfqAX/Ldf7fH1eYl6TiXQAcBtyZnUjTWAAM5k7gEOD7wFOSc6mTDYi1BUZaX+A+YAFx9eAe4N41/nmkf18MTBuK6WP8XA/YhtUD/nb0N/vXq2BSc/0MOAJYmJ1IE1kADG4hUXV+E3huci5NsMFQ1I3zGaRm+h7wEuLLggZg5zcxi4EXAP+dnYgG5hUAqXlOBV6Ig/+EWABM3DLiGfpPZyeigfgZkJrlZOBVwPLsRJrOzq8YK4lH5E7ITkR98zMgNcfxwHFEn6sJsvMr1geAv89OQn3xFoBUfyuBtwIfyU6kTSwAivcvwKvx8lRT+BmQ6m3VbdZ/y06kbez8yvFFYpGRJdmJaFxeAZDqy4nWJbIAKM93gMOBB7IT0Zj8DEj1tJBYbOz72Ym0lZ1fuc4Cnoa7UtWZnwGpfu4gFln7RXYibWbnV77zgAOJ5XBVP94CkOrlKmIX0t9mJ9J2FgDVuAp4HPCD7EQ0jJ8BqT6+CzwevzBVws6vOvcQcwI+gs+w1omfASnfCuD9xIQ/1/WviJ1ftVYSC1kcQWx+o3zeApBy3Q08G/gofjmqlAVAjjOIrYT/kJ2I/AxIia4gbo+6LXcCO7881xBFwP9kJ9JxXgGQcnyHmOw3PzuRrrIAyHUfcCSxhPCK5Fy6ys+AVK0VwHuJ3fy835/Izi/fSmIToefgegEZ/AxI1bkLOAw4MTsR2fnVyY+Ie2FXZCfSMd4CkKpxOfBYYoE01YAFQL3MB/YDvp2dSIf4GZDK9y3ifv912YloNTu/+rkfeBHwHpwXUAU/A1J5lgPvAl5M9G2qETu/+joJeAZwZ3YiLectAKkcdxKb+XwiOxGNzAKg3s4B9gF+lZ1Ii/kZkIp3LtF3nZOdiEZn51d/1wNPAo4DHkzNpJ28AiAV50Hg7USfdX1qJhqXBUAzrABOBh4NnJ+cS9v4GZCKcR6wF/CvuKRvI9j5NcsfgYOBdwOLk3NpCz8D0sQsAt5J9E3u4tcgdn7Nsxz4J+AxwEXJubSBtwCkwV0I7A18Ep9aahwLgOa6iniu9gPA0uRcmszPgNS/xcRyvgfgpmaNZefXbMuIZYQfB1yWnEtT+RmQ+vM7Yob/icQVSTWUnV87XEYUAf9IFAXqnZ8BqTdLgQ8Sq5VemZyLCmDn1x5+OAfjZ0Aa36X4JaN17PzaZ9XluZPw8lwv/AxIo1sGfATYF28zto6dXzstJvYSOAi4JjmXupuSnYBUU1cAjweOx4nGrWQB0G6/IR7R+RDwQG4qteVnQFrbvcQM/32Ai5NzUYns/NrvQeDDwCOAU/FZ3XX5GZDCcuBzRF9xIrAkNx2Vzc6vO24CjgUeC/xvbiq14mdAgrOJpcZfD9yWnIsqYufXPZcATwaOIJYW7jrnAKjLrgYOA55O3PNXh1gAdNf3gd2JnbvuTM4lk58BddHtwJuAPYEfJ+eiJHZ+3baU2LlrZ+BTdHOmr58BdckSYt3+nYH/wGf6O83OTwB3Ae8AdgW+l5xL1fwMqCtOB+YRO/fdk5yLasDOT2uaDxwJPJFYUKgL/Ayo7S4itup9AXBdci6qETs/jeRcYtnPY4C/JedSNicBqq3+CryCWMXv/5JzUQ1ZAGg0K4GvAI8kVgJbmJtOafwMqG0WEvuCPBL4b+KzLEkD2wR4H3Ar0aG0Jb5SZCOpUY4i//wrMm4lPqObFNlIkrTKTOANxHyB7A6viDit2OZRg7SlAJhPLOAzs9jmkaSRTQFeREwWzO4AJxJfK7ph1BgvJv/8m0hcBLwQb2NJSvRU4BzyO8RB4nMltIea4Znkn3+DxFnAISW0hyQN7DHAN4nFRbI7yV7jQ2U0hBrh0eSff73GMuDrQzlLUm09HPgMsRNhdsc5XrympDZQ/c0l//wbLx4APg3sWFIbSFIpNgdOIPYayO5IR4tHlfbu1QTXkH8OjhR3ENt4zynvrUtS+WYTSw3fSH7HumZcXeabViP8M/nn4ZpxA/A2YP0y37QkVW0a8eTAj6jHPIEPlPt21QD7kn8eLgXOBJ4PTC337UpSvq2ITUmuJKfT/Rt+y1L4H3LOwcuBvwe2KP8tSlI9PZaY6HQH1XW+r6jknakJdiW2ya3ivLsdOIV4YkaSNGQ6cRn0TOKyaFmd8ClVvSE1xisp73xbCpxB7LQ5vaL3I0mNtQUxcfD3FNsZfwtXTtPIPkyx59plwHHE0zCSpAE8BvhXYAGDd8aLiDkHDv4ay8uBuxn8PFsAnAzsXXXiktRm04AjiElbvd6zvQ/4DnGfV+rF9sQmUb0WAkuIc/II4hyVGmFSdgLSgOYC+wPbAtsNxYbAPUNxF3A+8DNgcVKOarZpwJOBg4gtdjcGNgLuJda0uBH4K3GeLUjKUZIkSZIkSZIkSZIkSZIkSZIkSa33/wGqXnFnZWCSoAAAAABJRU5ErkJggg==;" vertex="1" parent="98">
                    <mxGeometry x="373.00111111111113" y="35" width="63.77777777777778" height="63.77777777777778" as="geometry"/>
                </mxCell>
                <mxCell id="114" value="プッシュ" style="text;strokeColor=none;align=center;fillColor=none;html=1;verticalAlign=middle;whiteSpace=wrap;rounded=0;dashed=1;labelBackgroundColor=#FFFFFF;strokeWidth=3;fontSize=16;fontColor=#000000;opacity=70;" vertex="1" parent="98">
                    <mxGeometry x="410" y="140" width="100" height="30" as="geometry"/>
                </mxCell>
                <mxCell id="100" value="TaskDef" style="text;strokeColor=none;align=center;fillColor=none;html=1;verticalAlign=middle;whiteSpace=wrap;rounded=0;dashed=1;labelBackgroundColor=#FFFFFF;strokeWidth=3;fontSize=16;fontColor=#000000;opacity=70;" vertex="1" parent="1">
                    <mxGeometry x="300" y="860" width="60" height="30" as="geometry"/>
                </mxCell>
                <mxCell id="95" value="" style="group" vertex="1" connectable="0" parent="1">
                    <mxGeometry x="990" y="1040" width="60" height="94" as="geometry"/>
                </mxCell>
                <mxCell id="22" value="" style="outlineConnect=0;dashed=0;verticalLabelPosition=bottom;verticalAlign=top;align=center;html=1;shape=mxgraph.aws3.android;fillColor=#5A69A4;gradientColor=none;" parent="95" vertex="1">
                    <mxGeometry width="50" height="64" as="geometry"/>
                </mxCell>
                <mxCell id="94" value="php" style="text;strokeColor=none;align=center;fillColor=none;html=1;verticalAlign=middle;whiteSpace=wrap;rounded=0;dashed=1;labelBackgroundColor=#FFFFFF;strokeWidth=8;fontSize=16;fontColor=#000000;opacity=70;" vertex="1" parent="95">
                    <mxGeometry y="64" width="60" height="30" as="geometry"/>
                </mxCell>
                <mxCell id="44" style="edgeStyle=none;html=1;entryX=1;entryY=0.75;entryDx=0;entryDy=0;fontColor=#FFFFFF;" parent="1" source="22" target="9" edge="1">
                    <mxGeometry relative="1" as="geometry"/>
                </mxCell>
                <mxCell id="115" value="app" style="text;strokeColor=none;align=center;fillColor=none;html=1;verticalAlign=middle;whiteSpace=wrap;rounded=0;dashed=1;labelBackgroundColor=#FFFFFF;strokeWidth=3;fontSize=16;fontColor=#000000;opacity=70;" vertex="1" parent="1">
                    <mxGeometry x="580" y="360" width="100" height="30" as="geometry"/>
                </mxCell>
                <mxCell id="116" value="db" style="text;strokeColor=none;align=center;fillColor=none;html=1;verticalAlign=middle;whiteSpace=wrap;rounded=0;dashed=1;labelBackgroundColor=#FFFFFF;strokeWidth=3;fontSize=16;fontColor=#000000;opacity=70;" vertex="1" parent="1">
                    <mxGeometry x="70" y="355" width="100" height="30" as="geometry"/>
                </mxCell>
                <mxCell id="119" style="edgeStyle=none;html=1;entryX=1;entryY=0.5;entryDx=0;entryDy=0;strokeColor=#FFFFFF;strokeWidth=3;fontSize=16;fontColor=#000000;" edge="1" parent="1" source="117" target="118">
                    <mxGeometry relative="1" as="geometry"/>
                </mxCell>
                <mxCell id="117" value="" style="shape=image;verticalLabelPosition=bottom;labelBackgroundColor=default;verticalAlign=top;aspect=fixed;imageAspect=0;image=data:image/png,iVBORw0KGgoAAAANSUhEUgAAALAAAAB3CAYAAACjWspSAAAAGXRFWHRTb2Z0d2FyZQBBZG9iZSBJbWFnZVJlYWR5ccllPAAADlNJREFUeNrsXb1647gVxThTpEqULt3QXbqh6xSmunSWHyCfpCewVbhIJatK4UL2E4j6UqWyXG5lukm7nCcw9wlGu1W6BFe8HEEUAQIgSJH0Pd/HHa8tEfw5ODj34o8xAoFAIBAIBGN8okfQAdwtPf7fOT9G/BjwI8bjhT3MNkRgQtvJ+zMStwhbfjzx45GTefvRHs8ZMaT1mAvkTfAQMcDPvHOy3xKBCW1DgP9uuMKe7w7G4AhRfUUiLzmJX/kxIAtBaIuF+I7kBIswy/0Nfg+qe5OzGOCPFwcEf5hFRGDCKQj8jMHbdqe8RT43JfIKP6cCEBuIvObniclCEJrAU87rHgNI/TC75j9NS87lo2L/zEkPnnlCCkxoQoVfBS885WQNS7IWHpI1sxVf8PtewTcSPGdEBCbURWCP7VNpYCGGVhbgbumjXx6x47Tc4843dywVRwTuDolBQV8FLzu0Jps8+OucGv+OmNER/OenhP31b5/QCvyZH7/nv/vJ8lz/5UfEz/dvtBV/EXz2hP9+YH1uUmCCgR8eFqnl3/+5HqAH3qn1v/4x3mqo+yrnkaupPGUhCBJcs31+d6743AotxzsntKc8Y1oJLhh0lhxmLN7RNxOBCY6QKuIC/y8oIhgqbkb0QQnR9+dNU3FiZ8lgVwnuliMiMMElQuHncdEHOIljgYyeQQV53FmHvcoDiZ/bmjMmAndXhbM0mlQdOYlDJOKb4fmjHIlTS9JCEhOBu4v1D3VV+9RrTuR7i0oSS0gcEIEJLrApsxGowlEFpS8i8XObAjsicHdtRMLSgTlKG+GgnFjiiQdEYEJTNsIFia+F33g7EhOBCQ5sRKaMNzUrPqi9mGIL2jADhHriuo67JXRYZNmBc7QWdZb3nLMsF6ccW0wK3H0shJ/nDZQ3PcpMkIUgVAzmQvy/Se1prjQHLQ6c93mZ90RgQhXMBFWsP82VrkUhpvFucMwyEZhQWRWz8QuDBioNE8qcE4EJVVVxJhCqbhVOcv57corcMBG4X/gi/NxEZuAxF9BNiMCEKgh+kLeJgehpGYdemAhMsELafGe2Yd1gyWJZXtODfYjA/VNfllPFulU4Yofrtc2JwAQbXOG/Ue29ccdYHFSkBlNqROD+ILMPb42XnC60chIVJgL3j8CnGpfwJPzcWEqNCNyfAC7DqabBh7myb4nABFP1PR3SlJqowjdNqDARuG+QLQsFZEoXRakTYsfGoAkVJgL3z04Ekr+sMENQ5/Sj446NmlWYCNwPlC0dBUqYEXdc87WIKbXaVZgI3A/bEOdIk4eY1hrVmqdNc9CNqTARuH8q7OfUt2gt4LrHLDw1pcJE4P4gU+FLjQxFvXnaNJAMD1qAmlb1IQL3B1kPXJAjp0joqMEMwYIdr+rzfTf9yGHlIQL3B5sDhS32xC+CMt7UrMLghWe532YzN77vZlM78OJE4H4FcnGBx/VzNmORI1Od1wSV5RyJHB/ZmHT94VWVikQE7hey4MmTzBROcrOYb2sfOQblwZKtD7MLgcxJAZGt8tO0sEnfcLgFQXygwA+zT/gZIG226xEMvxye4Dp9bAFE4oY7ghvMJiEF7h/EhUf8Qo+cqvBUCPomjV8lWJ50RXhxywS4jleTZQGIwP3zwkDOYa6ZTthhD1k2izkj8fJkq02m13EuVDAfSaxVqchC9NtOBEiSSPEZIMpqR6BUEU95vZNdZdpnTo43OCcCExQknuEeGae8Fg9JPPrhix9mUyIwoYw4IyTOdSt2st9XKqUSE4EJ+cxARuJtQ2VmywEE+JuvgoUQNywv3OScCEwoItSSpRt/JzXaBCDsDdOfTVLo0YnABBmJM0+cOD63aA1kAAsDLQCU/Q3Jm5CFILShcoDyilObsj3v4HhRZkyIwISWkFjsLQRYb1NAHRmEU0BckJuxCvsxkwITTqXCRV54Y+q7icCEU/th2PUovzDLEyfxPRGY0AUSeyyb8n+IdHPFEjUmAhPaQmSY4jQvUOOhKsAjAhPaROJsrt6NQGQliYnAhC4QWUpiInDN+O3pTwfe7g8336NTlItIePlJx4g8RzLHSOKtPoH3gztUmDrpbkzTKqplj9ZFgzlaSFjIZ8Jq6UULiojeDogMs4Q3nFRbR4QdYzDklXw8Kzu0KZuXBZwoGsMQ8/PNasxWJHkSfy75alAQHeYBL8rFGFKdgR1hi4kbYDTtaXx8gM8NjhX/LtzXwkYdscIsNcvNv9cl//4jlm1CZF+DF+4A3ct3y3Mk8Yql05B2ONN40GUYO6hhHmvDGrf25AUCvRqSSAS0Pu/8PPcGZQ748Ywv1atw+dA8/8zP1e7nD6qbTj5NxOlPZQT+qlUbq0/NHmmqRhvJu2INrUYukhcrjKulUuH9vbaexCmRD2Ytu1Bg5uBBjlkHwV/4LSvfnTJBzwk2YYM/J7YWSSCvr1luxPT2zRh0hsQCPmvUTB1cWvtgE/sAQWUbprvsiaRa2QaucybLOuD3AyHg22h64FXJ81pgcJYUlDfCa/YUJIbzX3SFwGeOCDyqMC3bRL0HLXp2E8X17FI+qpQZBE38ANLChMVsxRqdgG2kyGxc8PPdF1UELC9EcqqU3uflTPpC4LqIaGsf2kTgK8Xfrk2ieiSXzueXCvJChYk1y5qy/UqVRZh3n8Dme95eNZB9aJM/kz2fTR2dBaiKshZxoUPeHMQVfI5aXlT7XirwxqGNKHpIEes2vtV0Xtmq6tC7Zhx/YCULux5Yf7ZQuxeFXRgxs86GseT8nkRtLiUtRSCN6k16CdPeQK/Q06ZLIOngSw3qq2qpqmzsDTvN3xq2MJ0h8ECRnoklD/RKm8By+7DB83gG9zFXeMNHw/N4kshelygjTriZi+5hzfhibXtSsB38WhPJPUNHiW9hTVpvIRLFQzOxESOJ0iVGlSqdxbp15Ms9RVahqHLIrnHp+D1dyiqoA4JFHYk5jAlc/NCOt1GyzUaMFWoSGz7QjbQZ1K1Q6iU9Y8MXP8FOjroDRhfq+M2iQndagTMSJ9aqp7YPgF8Nr+jFQYXypDakuFV4KTkfDJR5xg6EKv53wNT55qqILZS/4wSuno2wsQ8i+fMVauPARvgmTSx2CsQa9/lesWNA1TL86oADCeswzgybrUQzeChTvasSokQWSrmpGE1/tWhiVblU0RPDkMl3ySDzKqgcKHZqgLsDBU4E1YutbESqzoHLaLqkSR9oLprhmQY5GEANNYkE54fBMqYDZgLL5t8F/L4R2IWNGBVWDP1BOr7El1e1EbLzRiUKlpE4NiAkjL9dVfXHDWDQTQLrb7JhEzxdaVSE2PKhRlY2Qt5trkVKIDE/YJDMzKBZnzDDQewEfQXWq3mmOdhUlUel9sF+ceUXafOtrpS+YYWQERk6TWBkmW7nyW5IJvpjn+hYv4V4q2gjqtoHwBcLSwNQ9e1fGtxvGYm3OLHx3KACZP64bSSOukpgE+9jYiOuHDwkT9EibJUVqmYFzkf3/Bga+GObGREB++A4qxx9qoOnSw378OKYPCob4RXYGo/JB/C4SFNF6I91U27PZAyay0KU2wi1Am4NRnlVvRbZNQQWLYsNkUN2uKGftIXJdXyoKvIfq14XjnQzsYy9JPCbVFH2OdgrQ7LZNZtqGzE28L+uK1bmj2FNg7Dko1V7D91YMgcdJW0j8NbiZV9Z2Ie6KpRfEFgGkpahtk4CnNITa1bSuGYCmw5i6gSBL41uqDx4srEPVR6eno1IU2teE+pbgEWJF/6h2grhGJRYAB1cqvz7R7EQKjWVjY8tezj2A1XSQUGxRvPciP+VkMOkksSGvt6FJduwDsAlgTc6iuKEJHo9hWuNFzZuKLCsSxxM/HJRAKdagPDlYxE4tRGRI8KXYVDh/INdBSgfk1wrSpr+xKC1CiqMcrup6f10UoFNau2m9r141TbCVzS9TSnPRNcy4IAhlY2YW1SgW4V9CB3P6WucwLbR7cYx0atCZiM8iX1ITOyD7UB17G2bGz6fpxIVXjkqf1sSYHaCwHbD6NSqZ0p0FykcWdM7llTStSF5s4Hqt7pDI/F7ryr7gJ0e+aAvZOrZExOcwuRpKO+r4h0/dWmQ++cazrkuUfBI0z6oPuNr+W3I5d4tE3acKpO95NDgPufCuSDLAnPg4JrehGsTlx8IsOJ4JedVrZE2LSH/LmWJC2a/5QivUz50e99XePewrtqrYTZmKLQKy5yAfcNrhpWHIhx6Cmm/WTYb25TAuuq6rNk+mLQQcD06M4S1F0FRLPMU4GG7ttijKr2GL/FR434mrHzZ16J3e+3gvdgGlAlalyVeyxorJJxvy+87ZvtNX7QXuC7KNOjYiKRF0a1uf/7a8GW77qUKdfaXwM+ENTyn6SkDN+xmj7Dl/UVY7yJBIt8Wtcp1bfa9kb54FxvCuPHBeVsTGTzsWBhhVvV+4KVcY/eybvlTpje6zQTZNCePtQtZXHVTJDJ1EXjtQOXcIG01yki2sFQNUM1zJNPG4sVAueeGvXJiUHeO53AlCmA73ltI5Ce0DaFuEDesSBoInoYVMwux4joSC7J40tbCQH0VZAqFVdd9VjzGAO7pFwyWKlsQbPIhsLnHIAia2i+Ke33DaxgzdRf0BLMaISvePWnG6pvwKc4rDFEYEszOJPyaDiYIfIyNDu+W/1P89fwEtubkwN67JSvP+S8qZiZqxdkHIO9EaR0+IHmzjIbGTBHT1T0bx6eekxeauXdJcwcB5QUjiBvW3BZkJsI2X/tZj8kLTaOsx2kX+RN19166YCZ13Hby9kOB00VJ0gmYqeL6GKSorMOwauDWc0UeYdAUE4FPG6AVYdqFTcMJFMQV2QYib8/w+YPcZ4zkjemVE4HbBkh0jxTEfSLV7S/6kUbbB2+BQNz4o+Z4CQRCR/B/AQYAVK1c2ILBw1kAAAAASUVORK5CYII=;" vertex="1" parent="1">
                    <mxGeometry x="980" y="1207.71" width="102.05" height="69" as="geometry"/>
                </mxCell>
                <mxCell id="120" style="edgeStyle=none;html=1;exitX=0.5;exitY=0;exitDx=0;exitDy=0;entryX=0.5;entryY=1;entryDx=0;entryDy=0;strokeColor=#FFFFFF;strokeWidth=3;fontSize=16;fontColor=#000000;" edge="1" parent="1" source="118" target="9">
                    <mxGeometry relative="1" as="geometry"/>
                </mxCell>
                <mxCell id="118" value="" style="shape=image;verticalLabelPosition=bottom;labelBackgroundColor=default;verticalAlign=top;aspect=fixed;imageAspect=0;image=data:image/png,iVBORw0KGgoAAAANSUhEUgAAARsAAACnCAYAAAAhUvibAABkP0lEQVR4Aeyde5Bc5XnmT/dMz12akTQjzYw0A9LofhEGJCRAQiCEQBiEBbYBB4NNiO1svCqwHSgS4iIu79bmr61sbbacsuP1eoOT7KYqa3s3cWqXxdhZ4mCXMXYlXCQuugtdZjSX7unu6Z7e3zP1NdUeenr6ck5PS3qfqq9On57uPqfP9Puc57283+cZ/IPBcObMmfvfeOONN0+dOvWH7BpyEPYMBoNvGB8f752cnIyGw+FzniEosjEYDPF4fIBNY319fdQzBEU2BoMBRdObTqcb2Ua1n8lkzMaMbAwG/4EL1QXZhEHMPRXxDEY2BoNfGB0dDRGvWZVKpdpxocZB0gNO3XR4BiMbP2AwoGbqhoeHb2fb1tDQMJxIJFJZscPogHCaGCHvMka9ZzDUKFAJodOnT3ePjY21JpPJpkgkMtHS0hJbuHDh8Lx580YKuDJh3rcYtdEajUbbPNDU1DTe1dU1yAgkS9Te3h46f/78zZBNe11d3WHONZlDNjGe72F7gpE0sjEYaiv20QjBbMZIP4ci2MxYzjjH/r9AQi+Q9fmf1LK819/fP45xZzzwzjvvhBctWtTM3/W+T/H6q3j6akaIx2/y3PdisdhzkNDhJUuWJHw+3xaIbSvbtlAoFGVMeIBtmmOf5XxXsx2ZmJgYhIgyRja1A4PFQD52+PDhr2G8rRipJ+CaLMKgVw8ODn4Yg31ywYIF/41A7B+pls4DxEqWj4yM/N6hQ4ce5D0RRj0jq5I28N4NKJwHu7u7v8Lj51pbW31RGXxWBBK7VvEaZZ8gmATnNeHlgGO9RRyn3+2eN7KpARgMZ8+evQbjvR4y+SGk8m5jY+MJ4iCnUDor+NtHIJRNGPYyiOg3MfRdQ0NDT6MY2nFjHmN/J4+bIR4PlfP9+fPn/wDlcxZVswSyWs1n9PPZd+OOHcb4X25ubq5Y4Vy4cKEVgrkRomlkN8NIsv8+kfE4A85wXjdyLqNGNgZDjQCjPAaRfB2CiUM0o6iRKCPGc/Nxf76PMtkG6TwMuWzFPbkWIvn3GHSE2M5qD/D3H0BUfwaZ/DNkcgTCGuczW1AbUh7tkM4CeV2MlOcD2traWnDpbpOa4jwmGUlIxZENcO4URPczxgDnHOL7HDKyMRjmGL29vWfZaEzHOTd+SgD4V6iWu1A1D6B0NqB0PPYHGd9CtTzX0dHx8+nejhsnPZ8BoS1GUV0DGdaBEKSWQFl9QDFBnu9yvtt5XRO7RjYXAwwG1MuLbF4kKPwaquFhJZxQM9/FoP8D7lO0iu0JjSioqyA7uVKei9lMZJVNHsJ5A5W1DhX2IRTRL4xsLhIYDMuXL//me++99wsMN4xi+CUp8aqmliGNbsbNIhoNzsEDqdyYzbRA8SsEuDfSHf6gc/MmrKjvIoHBQBzn5xjxz6pNNM6F6iZzdr2IRsiSjVwpbwbgYp0iFqVCwK1WQWwwGIoNZncTr1mV05qgZsw0Y6JAQPkF4kpvHz9+/FkjG4PBMCvIarUxNqpiWfsuZqPthAsQ54XIiL8rQNxA2vxu3l9vZDMjDAYDsZcrqNnZAnlk09sJbRUcZhSsEoZsfklA+4UTJ058hfd1GNkYDIZCvVuriNfc4Mgmw3Y4SzpFxHrOMf6eIPFa6oU+ybbVslE1CoNBXdRHjx7dTO1KNw2WC9ifoPN6kEbN06S/3yLNnJyBJOopwlvP+3qox+khuFxPsd05DP4En/MvBJqLSp2jTlYRr1mMisnuj0A0ixXKKTLe8xZ1QT88efLkQWqLfsZTPzayMRiCJ44691AVuLM2KkIOi0g53872s7z+uiNHjjRh7Eotn6b25WX+9r3XXnvtn/r6+t4iIDvuYiz1pJyXS43wvod43w24MS1khTyyQ+rcfkWNmhDY93n8NiNVgCjmQVjrXIzGc+7TmB4zisqKqWGzs7PzO/SAfZvjPgwJvsl3eM/IxmAIbi6YEEHSVW5Wu3cZo7MoggZUyD5WMfjPag9Q5geX5IIIi+fVrLmf2pv9EM/bfPYfEFv5Pi0LKY5xLX//KlmgXVIjvC9J28CwWgkUpKUSeR3j30EAW/nb07z2XT43M0M/1BZIba1zoYSMyEP7HLMoskGBqQXj7zmHY1REP8b5vsj+XyiAbGQTAAwG1EUDhvoIYxHjT3jqVa8AcJV6IZaeZcuW/SEkclz9TyiTo5BQD/GP+yCXj0IUyyCDFaiGbyxevPhPUAyD/O0hxUhENLhYZzH2P8dt+ks+4x0IQiS1DsWznM9ZrmktXGvE6AxKbCNqZA3nm5tlUi9Xhu8z6RUJ3n8B5fUiqushzvt+vssrPP3PRjYGQzCBVm0WQQDhYlwoDP0km29BGilGUgMymYAopIpex+D/C4V+BzD6gxhxB02bn1ORHVjE1uvp6fkmMZ2vQTzvcLxB3ityOAuJvctnNappk/2YRoElWzYyOuS6CTpvRlxzD6dBCRXIKUjvb9juhgx347rdZWTjPwwWpwmLaIi36HEzhjqEsc+ayUGNJPM1akJW6WyzJnGZ4wMDAz8iCPxbkM39GHMbweCTqJx/Cyn8L4rq3s0z216cjcbwbGtD4Yotn57NdVXDMT6/aLIhGD0JN/0f1NURrkWv1A3n/BPS4i8a2fgEg0GqAwPrYrzDbhvjtOIong/AiEU6z0M0J4mDSLEsg2BeID7yLf6WrnCyrOs49z6ppGlkI5UVU1bMKwG8ZwTC/YWaM1FXmyGeR1FXP2GbMLIxGPzpmFapvyadeovRirGOM3xtTEQFvYZ78hWUQotfq1SibG6CbJYqXjMNEzwXY6TKmBPn/6HG9hJ4HoB0bmPcx9PfsaI+H2AwYJS9GNVVKI8Mo83NA+N7MyXxmZiIxq+5kTV3DWps3nSykfskwiwnm4TqeplY0zFUjki4h7T6F1A3iypckcHIxmBQEBbDXcNoVtyG0SqycfPA1CRwccIQzSbOXdkwD+Qjm3g5ZEMW6pAya+5zRTgrcQH/leZgNrIxGCrrK9qAO3IN5HJedTZyoxTGcS5ITQIXp45xK+fbMT1eI2SAyEaZMa8MoGzeJMgtV0zkO19ZND6y38jGYKiskG8thrsV92Fw7dq1IRcgTrgAcU2CbFZaVcsQwUIIIW/7BJAblSozO6fJtA5rTpwQIJXfTfr+KbJTXUY2BkP5sY8NFMUNcDe/gIHJ0DStptyoCa8GgeGHUR0DBIbXa67hfLYkAmIkGGVlu6ggfpVs2es5LloYdXNAqzJo/XAjG4Oh9NRxL0Z7lYxTS5toCRQMuEFrZGPQmRpdx6oFctzDec7z8sB1etdry5goc5WGo5DvEZFNjgKch7J5HLJbY2RjMJRuuDdBOB9SC4Eqbp0LFYZ4ol6NAmNvI850D2QTyecBce4XRJryfspN30vVESQ+k0s2ig1xXK2NdUAZMCMbg6G09oQtkE23VI1SxUp7SxwwapZscPU61S3u1oaarmrUNjHkqqAnRBoVXJtzEE562ueLcO7XAnxGNgZDCXUqinso3a1gKiNOTEJL7KZwGeJeDQL3qYFzuyafsnBTTKSlbLQelMhG2agKVN8QQfNzfG6u4tHzm+lI/yjn0WhkUwQMBtyBXbgkS+UeSBEwxjGgVmIVcdaAmqzRlHcPWahdhQQJBDPsiGCi3GyUQIBYjaGnptfx8Jm6dnuZiuLTRjbFwWDB4Vuor1kOyWR7ieIoghb2Y2xrkmwIWi+hoO92nXM+SNlAEFPKRmTDSFXgrg3iRp3IRzZcN5HeAZThEiObWWCwaTwxmOs1y112RjvFbJT1ZRvDYGuyoI9zW4UrtZSHhchmSMKExxW5USi885Db8ZlOBbK+gV6vg0Y2BkOBUn+I5mpcqH5IJ2ukcjnkRrUpE8VI12DmrIvWgW2c80wE+n6A2CmbZLmpbwFVM6qq6nzHk7qBqNsgmwcgP60tHjKyMXwQloEKYyT3sG3HGLPGkyWbVrlRtTgdJkHZqyHK22ToBTAVIOZ7TCkbRqoCsokXKgHQtcONWsYk6b/PboeRjcHwwfl2m4g33Kqen5zF3JJuZrtWtjVJNmAT6matzrmQG+VS341s07hBlZCNZh2MFSIbFUCSCr8XdbMbpRMxsjEYHCT3IZR+3JENGGR9juFOMOJuLpsYhjpZY4V8CyDHTS5N7xVAlmya+J4Z4i5lfw83gbsm4Cr0Go0ME249Q6ZsDecXMrIxGADuk0rub82tvnXZqARbTYvZgrEqQFxTyoYY03YCsldxnrMFkFOomanUN98hrtdXiGgxvIRS3MQ1vYPjtRnZGAyABsM2pY65WzfkrLGk2MM46zhlp5dQgV9NkQ3GLLJZVwR5aK2rUbYRXjsGASzQulYVqJsoo5jX1bFkzeOc4xYjG4MBcLfvhGx2yoXKZnBkwBhlFPVQJ2XDa2oqZgNZtHNum3FR1O9UjOsz7mIuIgq9YRFk2lRmj1SySLJR3dJSVOMDKpQ0srncYUV8zYxrCWTOl33kuB4ZRlQE5Ir6orUUs+GctxNjWj2b0btAtwr/4mwzjBTjrKb0hKyuK9PtVK1OpsgaIO/cuXP3EMS+08jmcoetoNDLnXdfvpUIXNVwPSObjUrVUMr7w5BN/2wulCOjCbaT2nWPx8gUNaI2NvL9G8qYxXAC8koUSzaQ2hKu8YOaH8jIxnDZAqPpx3B35DGSBCOGm1InspEbVQsBYmV2lIpH2WxTAV0RLpQnhQaxNLiZ+mLu+VNyqSCbXWVUEaf4zJES0uXq37qBSdIPqmnUyOZyhKW8wxjhSvX05Bqti9nEGVEMuy7bG8X+ZA0EhcO4JLdAOouLdaE4b2Wi9B20SkTcA6wX/gbkeZoA7mf4vPpS57WROiohoCySbESJ3cY5bTeyMVyOk2T1KlPijDavG4WRRGSors5mzt0oFrALo8Sm5hkuJoXtlp+JapUILU6XG3fi+w2xP8Z2u0v7FwUFyhnREvu3PK09zpzFXzKyMVyOjZdrIJzr85GNmz5znNfUueVKYozJGmi6bIJsblO/VpEZoYSUjfqiIJ3EoUOHJnM+64358+e/hHvz+wqEl5C9Uzd8VMqpWLiq7DCEs5WYzydw3yJGNpcTbG2o9bgla6YbrXOjEmxjSP86tlOpb81QN8fNoo2aslRpZBmuVxi5LRej7juMo4jSOQvPDROz+ilu5Fqt/KmJw4p0o1KMUc+hRHdqMeT2JOfTZWRjuCygOhWIRKX+DTMse5Lgrj/W3d1dz2tqIkCsqS9IIz8MKbhznh1uYT0Fc5sVh5reqsA1OElR4ysULx7ke3aXQDZjZarJsKqeyU79FgqtzcjGcMlDS9Qi6Wcs9cco4sRHYr29vVNkUwtTTKCs+sjq7NXDEtREgveNuABxfHoVtOI5NKF+j8/dh2raXYy60Xw4qkSuoALZY0a/z6tWCAING9kYLmlwR79eLhRGM6ORKnODMcj4InPdiImr04Yau4nz6XDra5ekbCBMkc30db61sF2MJVr+Qd+PNaAeJZayrshs1GiF9U2djEe4xn1GNpcyLOVdp1J/uVIzuFAim7hb8qRNT9XAygortFRL7vkWG7NhjPC4yQW9J6eRUQbVc4TpPn+FutmhuYx1fWZRJqmislGFCcuD3B5CTe3V8YxsLlWYC7UBoukrZLiuqC+FkdYE2aACroAMduqcS4HIRvEVpb71nfK5gtTaZCCbH8k9Iib0sdkaJ3HLNIH6mA9LHGuS9I9zvKuNbC5VGNnchPFeOQvZKL4xIfdDpKO08RzWA3USX1K2qJ7dkpUN555VNvHpykYgED65aNGi/0tm6hTGrzWz9s7imiUZFZONW5HhRgLF+41sLkkYcBV2o2xUgTujkbou6SR332Y1Yc7lMi4Q40ZUzV2cUznuylSAWFXQPI7ny6gRCM+QkfonXndaAWJS7B+GALYXcqMqjdlkA8W6vhzvPhTVHUY2lwwMqAO1J/QSHF7Lj7x+lqk0E26uXpHNKPGSuUx5b0HdrC+HbHiPyGbUuVHj+Vou1MGtWhzWhHoLdZPG+K/i+z5SKBvlhxvlyFDkv45O8seIo7Ub2VwSMKjPiTv2PpX6QyCzGYEMc8LN0helPiUzR/VA3RjhNs4jVEZNS5Y0h3NT3wUaLF9lDEFuTbhStzJunKF5NQWB+UI2bs5iLaGj9dU/YWRzScBAireeu/YdGJ4mNS9opHI5ZOuK2SjAypgTstH5QpBbpQDKRIIxKjcqGyAuEPj9FeOUFBTq7wr6mJ5AdTTmUUsZxqiPLRhyFbuoLP48RLdU5GNkc7HDJjWfj/Fc7+Iws5biMJSN0mujjMxcpOi16Bt3/SvKcaHcd9TqEJNaWcGtXT5ZYHrU1yCjM24qiwYXlN6BCxfJF/ryfILOU0NrdpEZ+wLEM9/I5mKGZaCaZDwinGLutHI59FANjHKj5kLZaLF+rfggQyzHhcLdUTHgCMHt+mzqm5EusI73EZTNWed+iXAWsf7TlzQXTp5rNJZLgD4Fi1upvfkUx19tZHMxwybJmodLskd9RcUELSGmOBmgCEbQpOrauVA2BGnvdy0V5RpwmveqerjOpb5dgDg/9Deu0zGCv1llFVHchudvmt7G8Pbbb7tmTP8QApzrAtypp8lOdRvZXJQw8Dtuo6bjLowuUkS8RoY2jqpocMpmtJrKBlIMQTI9jFtQFa3lKhvFnUQ2csfkDvJ0QWXjCOYQCue9nODtPNTGk5BA17R0/NQqmwGQcAiS3UfsZo9cOSObiw02z3AdxLEOl6KvmN+UgqhSAVpnybkfUYZXLbS3t2cICj+Awa3kPCpJK8cYIpusG+WK+gpWB4ts3ub1XhYovJs5n1sV68p53SRjMIg5fkTwHPNxvv9GI5uLDTadRBdq4dYSsiMxNlNkI/fDxScyVWy6XKSpJNR0WQnJqa4GslHae4pslM6fbZoMgsRHec3J3Imx9Bh18xlIe23OZ0vZDAVBNny2CO5alOh9XIN2I5uLBgZ+vP38ePcUqxJ4XYwRx0gbRDbVTH2jwBox6lulxHImyCrLjXKxpqmYjSObOCM9y2TmZyCbc3mM/wathS7VkZ3ThueH5EaBINxeLRnzcW4Se41sLgoYNB0DxttPoHNTMWSTnexcdi+yqXY2imMv1iTkeuiDwY7LjeIz63J7o2YhmzHco3N87+mfpYD1Aa7ldTnNmGeCUDaOzJSNW8m412UQjWwMNe9CtTE2Y2wlxTpkqBhcVtlEq+VGccyV3M13uUB2pUQ7ToPl2Jo1a+pcbZELEM9KeOcZHzB+zus6zX/s0uQJxruupQMEQzgcbw/p98eMbC4GGNmsxki2l2i4v6ZsqlXUh+u0DFVzf4HJx0ttVRhHgSiTpu8RcY2YsyoRXKYhppyITydonRdxlL38/aYFCxaMqQgwe6wg4CqZO3Hf7tECd0Y2tQ7LRG1Aim/jh1tKyvj9mI08i2q5UcRWVhMYvs+vzJdiTxou7R1iO85IF6EozuNOnZ5OIjovlMZmCOcTqJoME6a/rPR3FRpot3BdHjeyqVkYMN567owbtY53KcpGk5tLFWhhNbcEyhgj6M7uRWoSRYl1+qgMYiJKJZmyzaUU7c1Kmqiacyii45BNvipfNWnu4Vx38XmnFi9e/Ge8VssUB6Zu1J+meBEKZyePQ0Y2NQcDRKPVLjeXkzLGeGJaB1uxjmpkozDgnaSX7+U4fgXGRZpRt9Beq54SiRa5vO55COTYDKpH17UPd+8Jto24U/8Rd+ofFW4Kyp3KLgFD7OYZtkuMbGoRRjY7kOAl9xZJ1WBwcVyFhpyivkyACmw+SuFO7twrOLZvZCPFoZYFKYNswLhIsrkg1VKgh6kBctyBCtvDNTrH6gzfgHDeDUrduErmiFaW4H96JzeBJiObmoKlvDGIaxV0hShKMlK1KrCES/zKK69slCsVdDZKLgKGdJvfrpoW2XNKrUW7jHiRS8ZEFYvRtShAOO0ojSeJ33R2dXX9Jas0/G2QmSkdk5E5fvz40xxzHUQXMrIx1Iqq6eIOOKC7balqQbENNhMiGi2/q5iNYh0BkaKmkbgdBdZfCikW2bkushExNLKfLHbdK75rQoQzS4d2Pee9ld1dHkDdfJM2i3/gmnkBQj1jK7hm+/k+C4xsagIG3JIdBF37y2xijLpitRZGmhFY1zdxmodxn27w87ee00way3pGIp4333wzUyRRpWZby9u5Ns0sNvcU17mP/Vdxqb7NGBLBB4iwFriDdLYZ2dQKbFLz27T8CYZTTmB1ilwYbY5s4gGkc0MYaavSyASx5er5XRCnib9Gs2JFcSiOWQphjhY5584WtRRwzerITH23p6fnjwPu3p+qvaGV4SGu2wojm7mE1dVoTpR5bK/RXLrlKBvciKi2CqzmLOzmK6hRyUA0Mphr5UqVcJ6lVEGPZd0okU0pMSEpm2JjY2SmfodrtZHvNNjZ2fmnS5Ys+fMg1Y2IWdNQoF7vMbKZS9gKCnWaIJwffw+GUHYxXHbyKLlUQUxRiqH0YKSac7fDb6JxZDGiymcCz2HVxqjmppQgN4olXgw5uUK/qznOnRynjfec7u7ufpaA8Uu6/hp+w81ZvABFpQXurjKymTMY2SCx71a2pAIjzmZxVGcTDSAo3IqxfIKxVsoA+P35OvdRRtTNTNgg15BRtOUTF5lA4RUlT1yT5r2a39ntv4079UWUzi94HEj9jYgQkttGduogpNNsZGOoOsiINPCjv0W1KxVMpxl17oeMNOp3Sl5L/5I2/tfsOvfJf7h0vYK8DS5APF5KkJtamwmpoxIaJq9BDd2pibp4b4ZVNn9C+cCTEM5rEnMBFfrpWu5kd7eRjaGqwH2qY7Nes/RjZGVLdEZCXdfs1rtlZn2DFBcux92omj4RjxcAstXDOne1bEjduHWwMiUoh5TUUSnGrxYGCGdvznm8QPzmyxT8HQ4iJe6qmQdQYY+rSdTIxlDNNZbmaXE1LVtSyQ+Yz0jgjjWxKyON+RzAXk26+yDGGehvWy0WitOIaNwyLnFGpgTymGCMlELSKMoNBL0/5jkwvYUyYn9H0PhZFOch4lNBEGuY/9WHaNT8DDeZiJGNoVorKLQRO9ivuxyGUnbKGPWRBE0uSxT1sdlSQc27MI6lAVdPe06VSNk0OGUTY2RKuA5amSFeYkuBXNgdKLd9ngPVxXLfvgvxPMV4SYQTgDu1kBUZpG6uMLIxVAXECvr4sV8tkqikU5r3J/gBNyv+oNiHj82W16NqfkMGEjQc2YzyPSKugnicUYoRT2qUeEy5sv1nzpz5fO7SL9TfxHCn/obtl9n+rdLiDF/VDcddRWLg87hy7UY2hqAXoWvFf9/u5qAJVRDrUIxmimzYRtx+xdDdF0PYr2bLaqzUoOVncidthzjKqYIuiRFymjRvIHZzt4uhvQ86xJ9ftmzZFyGdv0KFnvcrNa7j6pqibh5zleP1RjaGIOM1V+JC3c6Pzo9iuCRG4CvZqKubc3TNlsGD44wSK0lnU9+l1tm4CupUOQF21dscO3bsd4lPLYFcQ9PU5+s0uD6Me/U15s15U8fwKzWuimzc39/k+ANGNoZAXSjupjsqdVEUo8FAk6CJrbJRUR+K+CIQzT3VUjVu6d1o9tiMkgPEIiZGms8qZzqIelTNFrZ7RNp5XpNE4TzT19f3uXnz5r3EfkKn7Ud2Cjf1gDJiWpjPyMYQ1ETha7iTtvhRnyJj4GET23oQ9aHZ8pPqIRLRVBGjLtWuKmgptHFGqcomXa5bow1uzRch2KUFlMiPly5dev/y5cu/yrkNca6eHyAz9QBZsRuNbAxBzAezgjvp1txYjQ8B4iYZqfYrabaEAOfxw/+Nspsty3ejclsumhS/KUU98J5JDa98aD6hDRx/N6SS9yaAK5VC2ZyGnP4TtTgfQe18Q0pKNTmV1EmhIq+F5PaXfM08g2H2FRQ2qqDMD2NWIRw/9CQGoulA68FYJc2WqhSWS1HN3zIulIKl4+771KvORqRZoquSYaQrnauHNPhB+qR+zu5PGXlBSnyQzY9Rf0chnf8NUewhs3SA69YplVTGVKmNEM593IR+wjw7f21k4yfMhdrID3SZfpR+uFGqs+EzpwLESiGXeU5hfvBrCZQ+lm2dqBaY+GqC65FwBj9VQSw3iselZnjSlTZMQiDruQ5q0nzdZchmBCrnCJsj3DheInj8IspwB99jN9vVkP8U6XBeRcVueM+VuK+PylXjerznhxtlsBn5FuCqbMSgfCvz52HCLaIfEfmUSTYLMJQnUF1XlmLkPn2HYYw14VLuWWUzXmo2ik3aJzf3o7hURcdQ6Ks6TibtOdyqgxDQs0zI9Rzq6FeQRrLYGh2REse8jvjNp/1SNgZLee+EcDZBCr6V+bNJqs4GIy0rQKygLHfW63BlHg0B4FUTmj8Yw4xnyQa3qsl1sledbJy62Yg7dQ/X5celkDfvnWDzFxpqQzl69OhD/D+28jmLUSydhTrmdVwtj4O6URvDX3PctxgZUzaGSorltvBDXO2XQav4jexIGkylvnkqWkaB4SqqaH97rn6/6mnCsBIecOt8N5ShbCYZaR/O5f0mTW4Md3hlgljO8+vWrfv0ihUr9jJ9xb9Bub2iOFShWiD+JsJZQtzs9yD/jkrdKIMFh9fzg9K0l75mcZSNYhPRfhnndB0BzjvKOCffJs6CKBMegDjrOZ8GlM44w4fUd9nNrasVtPUhPnea7/On/f39u9evX38f7tV3dcnlWs2wqF4zbpyOu1lxNCMbQ7ku1DbiNVf6rJSi2tLD08RnR0qdYgLZvp04wefcFBVVh1vje4S08vsBYoYCxHFGKalvYdLPVSSIYYmEKyIcYjiTFAPGiesM8z2fZ/sEpHPLFVdc8VXUz1GRTm69TgiwP//EiRNf5qa01MjGUBaIBdxOvGY5hODnqgRjLn3crKdKIRv1BZGu3Q8JBl/AV1iVXOD8404JNGbXkMqAktwf4GNjqIL5/ZDNZyF0X4gYV2qCPqtjkIyyV3/M6T7CTeIPSKX/0gO59TrOjbuL/1GrBYgN5RTN7URSL/TTsHE1Rp2RNiseUEr6V+s/8aP+mErl55JslI3SzHxut4mRVsymjILaOr9XtdRaU7pG/O/+ijqktI8zNJ5j80Ncppcg/J9BKrdwzFsgGAWUdfw65nz+bY75Kq97qVhlY7AZ+cKQzGqGFqHzfdIpp1JENokSmgA7caE+hauw0jVbziXZaPnc98lGnoT2GZlSJmVn1AUw90wbM+t9CcXR4wUAiviStED8YO3atU8xLenTKJ+vt7W1qeFTbvcmsmIfxz1eaGRjKFZB1HEHu0dLtgQQhM0qG9WmFE02/IgfwK3b7tUAOO/hnHW9m8pZaE9ko3iP32Sjz+T/dzUulSYRa/ECBPGd5+kw/wyu1TM8/hH1OqPqm+K38xEjG0Oxd68IUvxWVeYGQDZRp3DCMtgiFUAXsYhHuGP28r65XuNcruAI26RTaCIbpbGTpU7MzqgLYqJykKEG6QlU4CpNWu4FDILl/33lypX7IJ1vo4YXQHb3ctxuIxtDMYbQyV3xGpXh+0k2IgoVksl9CIEYKCJuFCbT8QVcuwHeUivTbYwozY1h1avAUERTBimEGUH5g2rSHOD/uJvr3VKlFo4YbtVTKJ1nUFXrIbvfNbIxzFb63orvvUsTNPnNYXKbII8JrYTJY5FabBbSk0Fupqv7waAWmytTPQxr6xanE+GMl7PkDCNI+6sjxvU7XO+rvCrBLW/zdcj4j9hdwu/oZiMbQ6Hg53yM+67spOZ+wi19otnOW2VssxX0oYA6CHY+qzXFZeM1QjS6RiPZuJNTJ+PlfFS52agSVmMYwB3epzoYr0qg5+oC/9vvML4H0e1lGzGyMczkImgu31tENkFMEs7npkBrtpq40BSUqoglVrPfGXmtkHEaAkw4smlwsw2Wo2zC1ShM5Po9AOns9KqI1atXj5Iq/zvqc17mRvEhuc1GNobpay6paG4T264AlERGaW8MTDGbVkc+0QKxmqvpuTlYa+Eszb9DPUnK7TeIlMuZAAy1oakpWoIkUcXIVCqAUj0AwXdUeeXUUaqP/wffUzGj+SLXLNkYDPph9qAmNKl5EO7HlKFK2bgfYEiTn8+0UgJp7gc4l40yxloC5zxENW3aKZtKySZw98Y1ad5M6QAKsfqgyO8fOYc2EbORjeHXJjXnhxmY5Haz9KWzd3RNOJXPvdAi+rgqj5Lh8GoJjjA1vUTKkaLIpq4cN0rVvqpjqgI5ZpTJg2wOuEbJqsJl6kYZ7uAGAyBO0o/7sjwgNZF1o1Kgxa3DPZ7Hfdogw9B8N7Wmatx3GGakcuYfjrAf90pEd3d3hED5vErqfXIH55I7pJxE7rqBnFOFL71cQ8pMzVUvGSNZ7/YN1nTZxdiiux8IolPaE9nw+TLU5pkCxBDNJ5Uy1TnMHajEnSK6MGPSC7nmbMDToSHVCjllE3FZu2gZiqMBcm9im71G04gk/z6vF4Ho2p3l8dSASM5on/Getm6cOX78+BhI8nfFydQoOlSlOq06jtfn5jiO43aKbC4Y2RiycZI1GPmOAI08kyUbRivGEJoe61DmCfdJqqalev1PGRikwUvXtWrLHgadmfBCk+NefXrUMUzEm+QP4h9cqAucd1bZNIgzFXsqIxg/wAjpe+qaQwj67ASPz/OcxiCPRWxy2wa1wiUGe56CuRHqZ8bdMWO6hvw9yt9jkFCMlgE9jnsBQn1tqKRezr+P81kGqSzhfCf1/yVGMwrBneccznI+mhtHmTuN95WNwchGk5pvCJpskunwRDqdgGxYnL8uEstZ0bKLSuGD/IgHeF1V2g6ESYikMXHSWxh91WtMnpxSMeHJJGQT9+qYeudC+/XemY59Xjg1iqoIT6W5lf72gFtCpa3UlS2VCqbC9wTzxvxXjFJ3/RGIfoTnhzHQYREaYyQ7MOCp56uUkWxjtPPd2iGSDh53aKtsFpBS6Tly5MhidetzTmcY5zm/s6jiESk8yEWLEA5yjU7wt7M2xYRhOtG0oCg2yniCC8qymkB90/BA78L04ddfbUo1LWWOifhwtpr29JnBz8biyW2TkxkUTyg/ORQkjtmfd0Hp3P1U6v+39x5gklzlvff/nFOhc56eHGZz2JW0ChIgMEgIAYZLkLmACfY1YO69+PoD+7M/8H2M7WucMfjDBGRsZAIGjEAGBRAor8JKK620u9KG3ZnZ2clheqZz6Arn3FO9vbsdalazEsIC9vc856nq7uru6uo6/3rDe04poWow/xDtn/28puWnGRqxARronKnEu6ZUgznbl2X8Y+9pS8aZh5gQMgVg4nyHKsgalPtlJ72vfkeEF5yqYTHTNPyVStVnWYa3Wqn4nf9bintAioJPjm8KyccdMjjfYVlWwrbtDuexbD1SQHrlY49M+UOKoyMwE5TSQ0KIg/F4/HGZ4n7qwoTnLwBiaR8BZQrsHAWnQq4DVBVQZKOaAHfWNdkA4hkQeA6IxT0K7LIKbgmAYFUEB6gGdL68Spgqnsco7x3ypNv5QgdkCS+ZYvSm4HxpPFE2wh6fmGFi7Otho5TetjR97MPC4gFKVAhBAAg0WFlCrtv1AY+nlxxA07qzbN3m9DoAJwvmpN2LzhXYEQxnGQzH0tES36Ba6VeCgYHiFAKAx1vxd2775uBA/CbV9FEAeRl/SAGo1O9ScIIQ8m0AqfMUGxOA+VMcpa9KUdBkU6tGVTWrpipyY3q1kFI7hnap/lhvpFzM9koRkcJhdlm23Sm37XYeU0r7pEUblS4sCCFtVciMsVp8SLpnR2W7R1YI/0DW0DyIdl4AsbmAH2bhctiFADi1QZkNwixwVa5rztKQzQSHEGZmBiy4TCgTaxezJwms7EUwCushLA4QcQ6xoWB6BcBdAKrP43YtV8kTdssL5kIRCiIM4pv/0Saold/wZsZfoqb2xrVY4tWc6VfmHv/su8PlUqyqdIpS8BLD0uIWEZYjFE5MolAfc5OTS2c97zx21uVzTnPWi84QArmer29fIIQU5BXYeb4AwGn5uhi1IY596bdRLV4PirNwAMHeWeihR8IqObrKFAszAGZeQJeGOE2KgjO/EHGafExlI1I0iZxTRqOUdjl3A5WP+6SYyiZ6hOA91C4O69TuSY09nFg4zkFAIQgBZKtqA7AUPwAGUj+9XCxa08m8SUvuwWQy+TWnIrht/qEXWGwuQPU+3P3OL6G80AkhCOpD+lGjYd0AcNUffRqDb/o0gALWii8ZwEP/508wdu+roePcCAEE+qbx9tdd+XzExkmJOlXDL0SsRICCwoZemVY9z/zJr8PKvSMErgGg5ATZABARF1yPcVAeHJgjm7/4MdG9/fZsNkPHxsacuIAAcKa1ALEKNSnmXDjUp+AUWI1yOo4qAF+L2PiHUnrmYPY/cd6cHtm6ZOtz1gkhffXWK4ToOXz4cKI+5IECYHKdCsIo5RW69cgfUK08R0XjzxaAoArG1n8aeXXnKfERojWeBMaYM0HWP0kBu1HG0qaEEJW6NYYLYvOzRPAglkc2ggC1JuCOASB7fBtS+7sAjGKtTN72NqSevAJmPoBzIQAwClA9jfvfJ56H0AzLu0qud/okXgAE1UDNRXQufhOsuuAF53V9lgh4ISFENgB0eSQOO5clqrKCnyXVTAzC5fh6E0vE35V+geJkndKi7JIi32WaZtJZytbtNCGEk90JHz9+XKtXKev15jw+va7U73jQ4P4QgHAoxhKUyjyoWQBoy2+igKlEwJ3/hZtwqNfpOOLmTET/b9JV+qr8/oPSbVqAGy+82FxAVFMUi4/1Q6zhyKkASvODWHiwZ61iI0SR4IdveQdyc0lozzI6iQPQQ0XEth1CecF+HkMUXiVP8BeokI+ACBO+0iiiK3eBQAC06eVmLK4hP7FeVNKUeKIcPwNE7mQQ+/82BuoiNmpsCZHNy8+hODImXZsOx1qU684yIVvceU7GfOKapgXHx8dDzuTgnPOAbD7ZnPWgs5TPo3GqH0JI27pcnmmnEYTWMmme6gwICEBbjjEBLLUDlhIAQE+LXs2FkgHi26Sr9G353Xul69R2vv6sxeYCK88EkDm+CWSNEwikD2xCfGcP1oAwphnmH30VVg5dBNNSoOHccABULyO29ThsgwM/fq5i8xrnakopXVu2p/2x+3NCwFKC8FfGkVy+Baz5KusOBZAb3SKtwSSAefwsyB5KwsjEQNCMDSDUOU6G3jTVcifOsGEYTotIIYnU08NR+VpIWgRhQkhEDiB1UsXOc40tAsAnixYhBaVJNOrLpvXn5tI6YmNBr06BCBvtMBhaF0AYAFETGpkRmw+HI1/3+gLfiMViB1HnF0JspqeXGYBtKyuF9bfdto8dOTLNfT5d6DoTgYA3L4R44G/+5j02XoykDsaQHd8Assa581dmYggO92AtKF4PDvzj76CyEl3zv+IEh2NbjsOq8OdwozciSR49evQqJ5PBGGurXAWhoITUloQQIddNSolF5LLezqwDaHoehFU4URGZO9YTSd27DnSNxyw/vgUz967/WYmNWViKqMZyvG3/CFAl3u6RqYVXlbLZ0EBPIiEzNkl53JzUcIcUD2fZ6TQpHknZFHn72jNujWyuQsIYq7UXhlogHr7yKCgvAjYA0uh22zDUBAAKbtuO0Jzo7Or+vN+rfT4YilQh+YUSmx/84HGforA/fOyx4+81DA4pNGdOcPn8iFy/GEAZL0bST0dRXtiwZsumCiA/1SNsgxGm2auHgYoM+dHNmLnnOhgVDxieHQFA0SuIbhmBXbGfg0XDJJc4larypHOK1U6nj2Wrr8OqMkpKxMnwKEqRUqVoGFZRVdVahqje8vXMUEmpbVPPEHkCKTVzuF+Z2PP7MMx10PHsMADZkU1Q/UMAHsZPAcMwaaVaPZUWri9N01INo6pmDK+2krvnFcnSfB+h7W7w0lLl7Vml+h6Uc4EjR1Mg9WwOgbNEfUlAICGAqmr46SPWviUR9YpohrJ3HQi3AFIPLgoCW/Gi4N8BDgaPrs739vV8IhGPfwV1fuHEplw2qGXxfo9HNwkxVSEEbJsDINV4PLifS/BiJTcRRmlhGARrgwEozXbLDhQHsIjVqBTjOPgvvwFu6KBYG6Ju2YTWnyDEz9teLp4kIKzlSRtQgyBaXMjgHxdCTMp5Yz/GGLUoU7KUkLwUDEc8arUoeJ6Iw194M8a+9zao5zF3XepYJ4bfOrCWaTWlS1NLB0sBqaWEnaVlWUS6NkRwm23dtjXMLcMR+z5hm32QS9hmj1z2Em706IT0VpZHA2Zmtn3+A4WgAk/MME2oEC2pYbH6+k8dgrVCuQWbBTHf9ZtY6Hw3BCGyqQBUuaQAWC0wDEqNoYG+P/L6/F+HRJRGCOQxAyFYM0IAml/ASIHErhQvSrG54YaXki984UcbDcNUKSVn/H1nuoFEIjBhWS9isRl+WwgPfqjvvMSmstiN5QND5xQbI9OBsW++G7apgqxRaCgAPbIMeKrt5wFXYaW9AONowqagXksI4fhQluysx6W2jxICgBJOVR2MgYHndWHl/QAXgACEIGBMgOgmkQ1rQGSObcJjH5OWGgj08+hXBgC72ItnJ1RPDdcaIcRp3YTQPjC91+J2z9i+H/uZlWaUVynhVUbtCoWoUlU+1uwq9YOxcPZBqHa2uU8LwFKj4NQLArs5kc8rtTFTRFgv8EylAhBA1TPoLOrfJ3BueE1UTDUOyqsg3ASEDYoKmF0FBGCrUfQMbP5zVfPe7tE1W5gzHgglDlVRQYg4D7EhUAMWRDkNoPiiFBsZl+mS1k2UcwHGCBycdVWl1WQyfNI0bYEXK0xPomxReM+j81RSPVjcMwRgr3uGKxvG8a9eh+JyAuw8rBpfxABRThLCRHP18f4Ynv7cB/DMl98FjaAJQwA9lx/AJR/9OIDJ+h0TbdThT3+uF1b+f2Dk228ErfsKqG8R7ltE73VfA/ANrIXxW96Gibtec55nWN2VOrmxmjryyrI+VDQrhQFptTixki7ZumVGpxdA4siRI956Wlg2rnMuNIv6dfCKFk7fr/cv3Ey08iSIMEEg6iO35RIckI2cHkXNS842bbphaglw6ne2a8j0mEgs34r48k9A7QJA8MIiAFsJYKHzvUhHr4VNPWB2aVWRs6kPnuo01o3/MZizf2d+swA4B/fEjcy2P31IYeQbAb8nBYfZva/Gvk/8JUzDEZvzdO+YgLSExQMf/A/8yj99khAiXjRiMzW1oqVS2Y2ci8bvrVs2rNzZGToBEIEXIaIw4cXIv/Wf9w1WM8f60fmydViN3IlhHPnS+3G+/7MezsE/dAKtpJ9JIPXElZg9cHFbRqsEwB8uwRNPwwUy9cMkhH29fO8loC01Q1ZmHl2vIFgDdmr/Juz58OtQLgSgnyMEQdzPSGNl9IrU8d3/kEn4TZj5UD01HKg3zbZtSAGCpN4/GCw1BH/+MJKp7yKceQS+yhjA12B8EJdtBGBoHbCZDxB2w4YcgcIz8BcONgdfX0gIoBhfgGbOYynxZlgsBsrLLvEaAgIut1tEMPME2jABsMKKNnzp/6eFkhM4TW56C8aevBj6cxLDuvWeHsJD/2uDMOY+TrTuhReF2ExPp3ylUnWLW9pU19Vib29sfyIRsfFiZOnJJAqTg6DnKTb5jA/cGoYLojyvYOKOl2D+mZ3QsHY4ADWYQXznGFopnIzBzEXhAaC4vC88PE488TzcSF4cxrF/WwePy0kV6DmJ7qsfP3fQuRgwKtUIP/Tx36eL+y+G4t55OPUB4I5L4nrMaHEiai4eiKbVX3FclrasTnNqmNbcnXj2fiQXvo1I5kEQywIYnPacMdQkuOID0Cg2ApoxD1AKgAMEPxM8xXF0zXwNNvFiMfmOVapJGZhdhKc6BVB3AUVgw6QW6tl31qrOqDj4qS4QABqeOysnurDy+d+GN5AXy0/9PYnvmluT2DzwwKFQoVDtnp1NexWF8rVXRNo0EglUdu0ant6wobMAF06eXPJxLrbU7weEsxDI51k2W+367ncfDVFKbFVVuKIw4eyDqjI7FgsVL7qoPw0XHn/8BJXv6Th+fCZRLFZVxig/n/v3dHfHc69//cXj5xabp7pRnHMXG7HKlZoAsAAUZUbKKmlE8RloZP6hTZi6480Qz+GKooayiG1vF5vs0Rgqy12uAuX3m7Ark1iNvleEsOevE1DRhmC+iuHfas0s5tZZ5YzPMKpeOZ7KLwvBnBYSQIccYpDQihOdUkDfg1LWB609fpqLXo1c4HJ4KhOIZHdDMVbajptileC3psEUBvYsiiGIgnDuYQxMfRre7DGA/XQuoabaUXNLCHhDANaGZi4AvF1oXlBUQK0soXPx31HV+5ENX+1i3TAwKw9vadT94uTxGgj0HkMjywe6kZ8ceN7HS6lr8r7P/i9Q/ZBYfuxrJH6VtRbL5vJMpvihQqHSKzu6cR5iowFkcX4+8yP5/h9EIv42dbNt7pOvbxZCNGmNFBOk04Wun/zk4Mc9HkWQej2HFBuLUiqXtGIYfEYK4H3ys4/G49FsZ6dfoE42W9LkZ7xN7vMbpNiEnezKeYgNXV7Ojx05MvPtoaGOR7xeLQc3qsvdKEwMgqAdqlggRICbqqt1U12JIntoEMBIs4AdvBYnf3wNNJwfHIAWzCK6td2NsssxlGa7XK9soYElcH6ysdbGmW2uUjUVLeD18BM3baYmANWl5sTWk6mi+h5ezaw3TaNLvq+LMdabSqWi8u6HEIRBESUMyk5PKguA0n7xtRU/Zrs+gFT8DYjIwKxmLCBU3dNW5Qob0KoLUM3lejZFrOL/CHgrY1Jo/hbewiigwF0ExPkneiwlAZv667EeAgIbqp0Gs4qAeP4u1HnvlwJ4CyNILt2MdPSaNrGpHX87J0V8zP17vMk0/J2H0cji4+tQmusHew4Zd+ISayuUNJRTvwIh7gCw8Kxiwzm27d59+E3VquVYCDgfpJhg376x11122fpXVKvm/5SuUQ4NXHvtdu/f//1t650O3ri3zvfIoHHkiSdG3uqWYTuN/LzqDTdc+WddXYl/BrCMOkePTjvjRK49dmz21VJstPPdb9lxXv7oo8ff8q53Xf2H8nO+TKmLZRS/OCljKz2gbq7JwCQUbxnLh7aDuoiNkY9i4anNjWIjMiMxPPWXL0WhqMP7HMRGD2ZJYHARrXRfG8HI92Ku+8m0RWx53xRwM4QQqkwRr3dGC4MqnaW58c1iYv/rA4qbFQXkbN+2yZnFP1WtldYS+np9CYe3PINEfjeYXW7L7giqYjn+q6joPVCsDGwaRNk7hFB6j+uJzOwcfKXjKAR2gLhVLBMKxSqgd+bz0MuT7rGX+nYg7i8SYbv3KgGYauKUuycsCEJAuQG9MgNArCI0pPZdzYj6vgv37Slze74ewLbdtLXmKjEX99MRG8YL8DiGK3H77/15RC89jkayhwdQnuttt8gpB5UNVLjvuyAQNoUQtE1NnIRHZiy+JrEpFMrxfL6iyis8KCWrlKO7p+QJYTAMSzt0aOr1+/dPvPmBB47e8spXbimijmnageXlQlLTGHF7/2ol80KcsZ70b3/74Y/H47FxAP+OOu9618vp5z73w3WGURPIVfd7tfE/qqogkymEHn105B1dXZGDAB5DK+WlJIpmuzBYABIXH4AnsYQFKTaam9jkIlh5aiMamfrxGzD30MugrHJVIU4jvO0PPT0uS4surTKoMIIKAJ+bKd2xCF/vVH10b8fIyMgPTdOMc+YjvtJR1p0d18Da94UrfphqEpTYrseQU60Wy+hc/A6oXXaP0zAvljp+rZaWlR2mVjZf1YdWNVoUOwtf5YQUm4sACKc1dyy7hFB+j2xPOEKwqkVTCF6CqmcAnGgQVK9ldISzThg6F/4danUBbtXDlhoBl9sz24CAAipMaMZs3V9A20jqqqcXZc9653Pr1hCviYJzXDzl8bb/wvAkkY5eD5sFmn4bp14pskcQW7oTYG7xLi8s6oPKq+1iYxehS7Fxj/EFcohua7asfX0DWPlaX9vUGvFNx9D32nsQ6J+FXfJBcAIuKGAzgAgU5zowe//LsTK6CUrrOZaYR3Tj4ppiNqWS2SE7NdpnSyPQdQWapkC6K8hmiwAIpCjVOishONNkEDhy333P/I93vONl95/OwcvhCVTGbPpP3U6CNQmAFAmYpgW/X4cQqH13Lld2Xqs9R0jj/hm+kyfnrpaC9sD27f3zp9LpHi2dLvbZNienrRpCAM5ra/XPFY6rhkrFhKKw2n6f3ZbAEcDDh6euHh7ueJOr2FSk2Ai0YwGIX/Q0IhtHsf+fP+h6oSrNJGCWtqCRxT2vwcrJftcgbkz+2VbFi9zkgOsAwXBXCcXZGbhhrMQhAPeYTf8iPImTdWEvOBNkO4MwTQjQ6hLU6hxA3K7yEZhaZ60TtUEIiLDhrZxEdOWe9jQyRy3Qmoq/EVW9FwADEVZtMKChJQGFAWi/iqtWBt7ycQC07XVBVFBeQHz5R+4paIEa8z3vw3L0tTDVmLOPdSuHQQDQjSUkUrdBFWiBwFYDjig1TZNBuOlMH9p+DMSpgHc6cj2WY6+rZbBq30XVmtB0LN0KT2m87ZgYWg/mun+rWURBaoKYWL4NscU7XWurnKwbcbHeKK/W3E5icffEgOYvIHFRs2VTTfeh1FLKwQH0v/ZhRLbdCLs0CxZhEHa9M9kEggDxjktRnNyIlBSb1u8Jds0ivCP9rGKTSuWjcjhBR+vVyxGDK6/c8GA2W/6OHMs0t2FDl/r+91+r2bYV+vGPD/7O9HR6C6WnOi2VK1JQyNjY/JXBoMePOnNz6aCMjaxv+eha51+/vmu0ry9+0+23PzElq4ghXSH8+q+/XApO6S333Xfo1whBw9gSKl8vx6RwBOqWGFlczMpaDNvf7BpxhEK+3KZN3T+QwnS7dNPwpjddrvT3J+jMTPrKe+45+H753b7TgsMYc2I/nqWl7Ob2Ca32d+PAJ7tA4Y4nvoDI5qcRjKZRTUdBWiybSkVDYWYT6ojpu16JR37vMtgWg+IyNUXf9XehtNiJFSk2mptodKbg7ZhECyJ7MoSn/iLmup82AG/nPPH35Ot3MahEIpHbpdhsNrgS1cwV6NUZgLjFL2KOMLgM7hOwaAD+8hiSqe+dimfQ9k5f8QzLjvXbtbStqImTWrMaqloPSv6N8BWOtsVtqFV23Kj69u0pXt1YQDC717XzC6ohHX0VFhNvQ8Uz0HDgBIigACx4K1MAbJffS2q/lRMVELxBUE3oxozrAEdOPSj6d6Asf6eQ64BdT5sLAJar1Wqo8dr2ipVrsk6oMGrf5QZnGiwWAQRvj9dYzv83vXpW1N+5QFRf9WwmdDGAhz7UBeFyniR2HUDX1YdJaKOAC+Kh3yWwjUirq1z/njmi+OxnFZvJyeUhabV0MEZbg79Yty65V1b4/tP//t9vNSH50z9FjQMHTk7ccsvevztxYn6Lx6M1CpQirZN4Q9o7vrJS3EgpaREbAz09kaPvf/81f40GvvGNmvgtHj06s31qanmLY1HVCwCdwsAFmUFagUQKhy73eZMQIK3xI7k/uYsuGrr1Qx967XchuemmMwJ3p6KQvBwI+kcASIuVFSyVqwGfVy+cVeGn1qGS6nK1Mvw+G7mxHDyJOXRccgTT973MxQUHSvNJp4CP6OEsRr7xW8iMDUF1s1q6Z9FxxeNY3Hsl7NXiNfF5eUJMAS3DWvKjXTCyMdcrvQaBQO98w61ErGg0erMcXPibtqFEVWsZajUNN6FyLAND7W63QMBAhQV/4QDCyw+4ChVnuuNi1GIwfnMJAgQgtJbpka5SzdqRYuPqO6vGYq1uxGKh+pks6oHQYm2wIbNKcHP7qlo3Zjvfh4raCfBKsyCRupVSmapZA25IF68emOZNU2U4ndndslGkqA2CwALhZQD81H6aaSeG0i6GTIGpdTjCJZuBs2hQzGVo1Xm4wam/NhcNwNu6sWYuQa9MuMdrguEKOB9HIysH1qHsUkhKAXi7RupC4w63NyJ9ZKjtXAnHy5jftwx3mjefn08PSBeoTWycjuvzaXOXX74erVx88dBt8vlbfD69ILdriL8Qx9XqLRYrDJITJxai0rLZ2BpPkd/luDSLcEFaOPOy9mak8XM555BzMx9fvz65Ui8U9C0t5TcCghLSOuMYqXR1RafGx1MUDXg8aur66y/+x3XrOh930uxCnO6ABNWq6V9M5XvRyPJTg6gud7qKTagrDbOYla/n0HHZQfBVYn52ScfKwYtEfmwLFh65GtWyD9TlqrLtfV9FoH+6NhMgxSppzPgiYtvbnfP8WBfMTNw1OBzpTMMszaNOKBTiXq/3uM/v369R01CMJcDmrt9nqlFU9e62q7rN/DXrI5b+CahZgXumjkEz5tA/9Sn0zn5Rtn9Cj2x9MrCbXLql5pqsBuUVKWSHICwTNhewbVs2AmJmoFdOwu13csUjipGrDDN6eU7X1LyuMGfgaEU2QzaL1W45QqGb88JNbAQhqKhJWFAhuIVTE1SRuhs17Vpfw6mvZqXVBfFsKpqXoBvt1qLjCpnO9sJqj7tYOccdcnUNbearDaMg4G1upfMeb3VyFbEZXIQaHEUjC3u3oZruAG05UYORgkyJL+BceOL9yC4E26zY+JZJLB/LrKmoT6aW+2UHTzBG0Eo8HpoihJlwQaaM7xscTF4vYx6XS+EAQE53eI9hmAyAbRg8dsqNIg0iJhCNBkyvVx+HC3JkeMw07Y7mzAezo1HfzFlrbNGnqsoGIQQBSPM4MY1VuruDY1JARPtoYF6+6qpN35RTXlxkWRarF4s5+8TKJcuLRkrTQygtuIuNnphG10uzZPP7y+L4Pz8NDoC5iY2hI7X3CoxJi6a81C4IIALeUA5b3v8VVBYTKEz2g6wiNt7YIqJb2ntpVopN1bFs3OJAl5xA/uQ8WghH47dU80d3serSBrhTc39MJeZkkZqzKQCcsUWRzG6sVsBH7RL8uafPnealcIWKqghWjpWM+MuWueq3KLjNqW7oZaZ5RD4BINr6O21ff5oP/OoDfi85QeFVOeeKbDohpHb3SlvIpWlpfr50KRVmNwhYs4tDBPx9ac0brBBVA+FQbaJIuap6mJn1tKd8CQy1EzbVa0Fk4OzwBkdsVCPl4pZK8XZiYLBd09eqtZrY+GEr4fapPAmriY0Ubg4C2nYB02ML0i0aA76MM6SPbUZlqaPZfSUCiasOYPLOMlZBcJNi9wc7YQHQWofQ9I4jtGEFuPvZxWZ5OdtXLldjrVmhUMgrOOdprAIhmAuHvcuciyZn3efzpKPRoAHJVVdtjd544x3disKarA9puUxIt2YMLsigcpd0vfoYo2csoc7OyBKlLHt2n4sexsi6U4WCaEKTVza/35uCCwsLeSORCE8QQoQEAKlbWko16PdmWpS8D9mpENgqLk10fQ4OsXXHACIAQdrsRyeqP7/nJZjd/UoY2Qho23QRVWx//5dBlZPIHt8B00U0HMQpsSHevqJL9XBSvi/i6kb5ktPouHQBLfiDoR8FSeY3mZHa4Po+hdQyM4KwlqyJjmDxIEL5vYAlAAWrQ/GckGJjJsjUU+F1A3+m+JMzKkOBEDItMkc2YtH6JATeDNLcsdRgx/HIwGV/mOxYP4ZzYN9+/a2UWEkIMJDGc5la0Z4dN3p7N+yzWICaRjVpGpVBtVq8AgLXtMYpOPOKqqefUyIEQe1kqkcvORgvAs0B27pohJ3sXptLJkBr71Gs9CpulM9xKdssG8IUU+cZQ4ohBeBtvyDGFxHcMt7ipm5AYSYK2iS0HJGNR6FHCsB9cKUo31NJx91DCj1TCG/MrOk08Pm8fUtLOa1RbIQQkMHbk/fff7gAdxy3pMoYsQDRZFlIAcqgTrVqJaSQodmysaWQeaaGhxOuJ4Z0cxLz8ys9Z8UGkAHe0YceOpo9O4r8Cl1aZHWxIWdETNdVRKP+GbgjX6e2opBqYw/iHFBVYoTDagaNVFPdMAH3QrmheRSWMnDwxBbhC2cBItoL+9IRTNz+xtrVpHZetp4QkSx2feSfSXDAwMi3+sB51H2qSqdFluBGZiyJaj7m+j5v9xTC29rERjDkdJEZ13naPTishmEpkXYXivoQS9+NUG4vwPDThwLEMjQl/Uyvx+N5ijIcBzBzpsYCgrqPhvcV1Mi6aZwDyyhqtDQ7KFe0tv+BUFtLrH8QqudHtmXeanJ6k66ST3UEjdvhINqmZs3rHVt2x2Kx70jX9GHpmp4klHFiZiEFHG77aCnhesDdQhO19HXhHG6U13lvk0iZFkcypH4n4bN/iCo8rlatN5FC5xWTLdb6AIwWBSBESLE4gui2IlYjfXgYRibqfkHrm0R4c3pNYiOEcNwWENL4XM2FGpcWQh6rMDeX66pUrMjZeExt7IpQFCVz6vWsL5PJ9RHSHniWQxwmN2xoLqNuCDJ3ZDIl6nyuEKctm9DxeNyfPSt0mm95OdfZGCDmXMjP9eUJIRNYBSlQuvzsvkaLyLYdkdIK0iLLoY7ITyRQyUVWtTJ8XXOI70rB4cnPF5DcdQiEcoi2gCeFWfHKJXEp0Mtj4zu/CdV3Eg7BgW4UJt3/0NhwGvN73cUm3N+J3KLqesL55YnQ+ZIVtOAjRIRmb0l5FFiA24DE5OnUcZO5Hyw8hWD+8VPjkAheGIQAqksJUpmNK4Tw06OK5WDeOQQ6Z+EGr+qw81GcA0XzG6ikkrDdCvQEpIt6NByOlZMdcaO/O17pWL7NpuVUDEBbCpt6IvOe5PZ/EWAfJQTvMwzjjT19Q1ds39T3ls6AdRu4SwCbBFEgSdiWUbvg1icurxcq5qEYWYC4B4gdsRHCdt5Xe8/A0Pq/6ovwG3V7sQAB4lqvpUfnCFNtSMTK00TkxvthZMNt2wpBEN15GInL86uLzTPrYazmqg+eRGJn4VljNktLhZ6vfOWecKvQAAIyHX1CxlZW3YGTJxdfKmMf21WVnQ762h0dkdFg0FuoZ6I6c7niQHvgGVIU/BPJZDDrElMh3/veng4pAE1Wlvzco52d4TQkUuDI6OhcrxRI1uyeCciAdSYW849jFSglwQMHxn/VtoVCCIEQzns0xGKB6aaxVRl5cM1CeNV0cmBgBsGhYt15Lkrh2Y/5h6+AbTO3sVLun9E/hR0f/kcgVK3/0E6Uqsw17R0amIYaWoQbih6DYQE+l0tKcN0MYcyGC7oEpVnqXmPTBUtpFBsCQb1ILn0PvuJR1yAtbGdZbwKrQxqWqnusS9iGtzrx0AfGRw7NlyzNZ3ISWMlOdGsF8ZKQS8m8VU6vy44f+POpxUJOPqAQggiAlSsVWioWuUeFFVPSmtj9uiiBC4qvanHdK4Rg9RvcYbnqF/Hco0OuHUyPprWurY9sCPdOowFRmZoBX3mzm4CHOofvGdq08W4rn9llmEZftVrttW3eadrwEEdobO7qlprwoCxC0BmpRGId98jShe97Y7Fb1eUDvShO9Lll5hBJlrFyeLYh2UGgBLfBKgTaJp9nehWBvmMkssk+x4BkR2wSboWQCHbPEDXIn1VspCBslJ036FbFK1PeY4lEKAsX8nlD/fKX73rZwkImIt2pWtBXVYktB2PukSJUhGRiYrFX1swMUEqbBEHW4VTlZ0/BhVQq19GchhenYzxHpFtXOGWdOJmo3PrWgLazndyXjNz2xOrz6nh6n3564hq5bS04LAULsnp4SVD1aMsk55tg5sIgq9iFcsgAoYqAw+B1BVjVfQB9P9aCBcAfzmLdr/0HCQ6fxGkqizHYgLup2j0pYy/zwL82v2RkfLj3XUG4EetZQeboSayGL55AoeAyT0/dslHiIPWyfSI4/MWDCOceATXLbQJR8XQj7bsMaqCzHPJpj2maehwgBmAqEDYFJQosgwLcBEEVNiewKhExe//rSXkp1qZOglM+98grg1tfdp8/3rFMhLBgqEVqbvHiBDY3jXBmAJHFl2zq9k1KJftvsuPoIJSB24oqTBqNdgp4u1Q69eQOCBerhhJh6clqJpO+gVp6VpYFKMslZq3M7u6JrBy+lLkG66MpGt7RdmztzEw3K832tVpC0BTDm9xymy8e/oz8nk2lUrmLECRzJSvREfXFomn6Jli4qk1sbEAPdox0Dw7/0Mf4UQCPxuPx/ZDYe/7gGlJe3uCehVw3C8VzVghn7qfwde+EWQo27RtTOAL94xj7Tgbnwvme4mKk7btCyQzG7sjiHCgNae/11aoZau64oiYKiURkVNbCFOCCHI/0NllUt0sI4JSFwKEozLz00uE7SiUjXxeWrsXF3JAUjqZ0+tBQYlIuZ+DCzMzyYKnkiA1rHFZgSCtoMhDQOSTj4/PRdLrUdhsSR/CkeyXFpmPM/Q6QRvzWW/e9V9YBheV29edMuT/J/f39HQ81q97TG2HkI6BoJxiqYGFPFqfpelkF1cxTIMzGWrABJC/bh83/TSrHJ+qisRjG3e8Jrpr29nVNIdoee0H28CCqhSCY6yC8ZZluHxb3fyADNUBAqACVTQiOTb+uYO/H16OdeqVrp+NG1ZWRgooquha+DtVoKfPnp+pNVnrfWy6s++B+4knezQK4VY+GnoALtlXsLxXyO2zDDCl2KaJYf7JBm7ltFzFKWuPnEnDo+YMhj9f6DotFnkIdsXjf5XiS/Rpgs6YxVUaGRjJ3FxH1fIdsfHsWLQhz2Yf51HtA+JsA6M3BcNUUgcHJQoWb1Uo6apQycS3Y44n5rEGxMrIFrTDARCCWKpivmT05KnwerRQI+JfUYGfKmv3BECvO9LYNBYgOLAojNwtJJBI9DkC2s4jHPhwDx1VwwRsbuCPS0/F7aIEuProOxaUuV7Hx94yj+xXTwHfqorARWNy7E0Y22BQcZt4q4hftx8zdHOdEDKJcUKC1ZFITFx/F1O7ymsRmdjYzLMUm2H6/X8Jjsch4Mhmy0ICsEPbqunfzjTfe+afSwhh0Ut6nZt+jvKMjPLJz58CPCSFlAI7F0C1HdHc1i40N2bEP53KVafc4ULrvVBoeEAK1z5XW1ZTMUBUa4i5hKRJDrfvMuXBiL+n+/nbLRtb+xB97bPQ377zzqf9HCk3D5F3UlOn73S+9cvBgS+3KBpj5kKuVkdh5EiNfz6MO8fZzYZXHHdMaZtEHgJxTaPy+kqwW/gkJNWROVo71wyz5V017O2ObwluW0UphNgm74gNxnTs5BjX6u2DaMsw8AWU2COUgio3HPu7Fwt7t0NAOqQ1IrMUJnMAl5Ra85VFE0/eDWhU0nayUCSu0eaXc+5bbNm1Y/xeEkDahX1hMhdLptL+zs0srVuhLljPm6wyLh4WNbF/Xax7Tlh4cRqWUBG0cfCgIyxzrRSXF0UhxaQmxjWPIHN8AwemZ7c0qQ27yWlSyn5e31d0DykzYlgYuGGALHPzHCOZknZNt6CBtczpX1cjwo8MbtvwdGhAL916NSuZ1beOAvDLCYoWjM7PLvxvyeyxVVVcIIaOC4DAvpV6Gwlxn23eEN04SY3EBLoj5u9fj8FeGXAP8Ps2GXRmHG+HNgxh/yAvd7XzpmURk8wxOs+tjFP9x1VYYeW/znRe0ihSbZyC4CdwPN0QlH8Id10Tbpl2mRCA0NAotXAQefnaxSaUyw4ZhBhpdHUKI02lLlJq6FKIAAD8Aw7Jsr6zsfeV3v3vvX0h3Z52isDNDBBKJ4MLVV2/+F9vm5YYUdqczuFO6TU2CIMVjZMuWvtlV3Ki+UqmaIITWxIBSZkvxOHzXXQcrDUMdwnJMVJvYALUUtiVR5X7H64fEkNvL4RUHPnLvvc98CA04LtT27QNP9vbGdzdb8GmCH1w3hHJWcT8BuqYQ31UAGjwvq2wjtv1plBeTsA0N5Bwu1Prr7sLwDd8DPtZYK9O7qtiIWoHWDAn0mi7xGtMREPd5fdNxzN4XP2fshKEdhdSEBqAQRIFqzaNz4VsgvNIWKBXBzrS1/cNfYBR/TgixzmYhDSrdBUXeBC0g3ZJ3enT1qoX5mcFAIHB3f1/3x5zxWZBY2RODZPQfrkNmNtk2wrhcCME2h0S1eJDoflEvSitg/X/9HvZ/6sMwSmcLJBkAq+jB0196NyCbcJ1nqN5aO41uwd81Jx77fS+56tPls8KWGYIBtIlNoHdBiQ7/w8Wbur4khNA55z25XG5XsSr6WGF+l7eYiUNprR72rGDjB7LAp9DGymRCiqT7iP3Quow2/5MCWhDVjIYHPtAJsZrb3TOFmON217ErYRSm+2ADUJp+exWRHYcBbsEFMXk7QXrfFtglL4hLjVhg6AQ8idKaLBvT5EPSytBa4x+mafo/+clb76CU2GeuNQLEtm3ZkS0/gHoxXM19wqZNPbtf8YqtX5brFiSlEie33PJIEuAgpGlaB8TjkdHBwdgKXJDC1COHK8QZOy02xE4mo8c451XUufTSdeGvfvX+QflaazwGBw+eeMNHPzo1iYbrr4QYhu2V+66ftrI4d/ab4vrrd35+27aePagjjBkC8CjMUgT2Kp3R0z0lD3IBjRz4WxuRzc9g6YmXobisga025AACva++F8F14y0pyR7YJb+7uEFAC6/ADb07BapVnsvcLa4IwPB0w6L++pgiu1Z6H03fcyplS5ozHiS2Y593+3v/ZljxWmiAMbq+Uql8aHR0dIcMaH63v7//swsLC1OmaeZt2y6jDgsOTkHvWAIF2joOAZB1pu8QDwDIwOGyP1yBVbgJh//lN1Et+X4qtT1UMeHtm4Zd4agjijMqxr/nPrWItzsV9JKZeh+ompY1Ydl8JhIj1BfQu2HgOqjNvyNV1K5nJfYggANopXQyATPtPtxEDWUQ7MoCT6ERXpwYptWlKOgq/7mvc4b4EvyUhfaoipQUDO6S8qeagfjOZwDbgBvpEQLVuwFW2eceUhgal0L97GJTqfDgX/7lzXHbtqEoamv2kcjgbkQuG6lPzUhqS2kx1MTm2mt33vzWt17xUU1TKmddnZVe6Q4lm4cp1ARBhEL+aSdF7h54LvfKQZaKx6OfvoOgJbNQxwhBtWEfwlKQ/M6obknrSHK9XDZ0tMDYqcGiti1qI801jeHd737VR3bsGPi+qjZUSKdHGZi+HlbVu6qV4e+bQmhDHo34em2o/oMYv6UIgTDcMABsf/sPMPCGOwlV7OYfPtkDsxxw/c7Y9mmMfisHN6LbJmpTSNj4qWF6+8sW8XkNzhAuT6Jj+T9AbLO5I1cBdG48gV1/+A9U8ZZQR4rLNaqq/pa0ZoryD7qrWCx+BcAspTQjbx9jogVCGRcPf2Q/Fp+4FEYh2CY2ueM7azVKdbEhaqcQYmUCl//xJ7HnY3+JUr5tZsDzFVcQ1YB/cAbC4qgjvzeC4lyPq/hrHUskvHUSdVRF4QAMXlkiMtjd7tKaQGT4on9GYuCbgKu7m0A1517yoCgrld4bFoBbcZqyKdZVjv/bu7XC/EbFtbbKW4KvbwmnST2pg7LtEKbadLFw0HxZeDumiBYWcGPhIYJAz6Y2V13Urc/wllEEBys4B8rExDKTdQtDsuN53cocZDC1JiSu1F2QHTv6R1760k1fl+OkbpZp8onmepblYSkaScaaCwVlMHZsZGQqtcrseexzn7szYVm8PlVEzbIRQ0PxZ7xetYw6sk6my7Js0io0johIsam9z4X6iHAvpAV2x65dQzdv2ND3PV1XC2hk+RADVbbCrnhWnQo0PDCB+JZcy9SaFpjnCSieCjjc8foMaf3cDE9iFK2kj/fBLgXdv2/TCMAzcMEZ0StGvv19LDzxEixNdMGP54cA9I7td3QObT/pUeK9vhOjV4RTD25oq3z2eGzEd9xry4AwJNKKCU1PT39Aukm6aZp3l8vlqXA4/Pi2bdsKeDbCmx9DoP9XsXSkOUBOAcw9dCku+n+TjROQERIzxfSdX8Xm9w3g6L/+Dgo5DZ7nITZMNREbnASE3VDWn0Bpvtf19ry++CK6XzqGFkjmRBdKS64Dd9XYwB6ie6bhRvpQElamAxTtMH/W8q3fNDpb2GxlpzZFolElncmngiuHr6SVVMhVDDt2jCO1d/ns5x/VAbET3GquxfL4LGiRMSk0JlZj+4eAZz67GdVM+4VA8ZTh758i3gTHOVAWFlYYIWSzbduaXLbc8YBa27b17pM1NktSLCwh2jVXxl1mvF7lbif71NHRvrMyY7RVxl82SZerPiQA9RR2/JlqtboCF+TUoYPZbEnWH5hgrGaFONXIdjTqHfP5/DYkUiRDclbAfrcR6nJ/F/v6YoekoKTle1lL8JjpuicXDvsOhcPaD6+4YsN+uLFySAFhV8E2Tp00JgCrNW3dO0XCWww0QKK7uBArJ0BYBQaAM85nw0l6+dtuQ8clu4ke4WilNLsTmSUPOADSenJ3TSOyKQt8Da7Ett6G4dcmQR/4EFLHhkDw7KjAapkvJb75oUTf1q+HUkeupUvffQktlgCtxarZdOlT2P47/6TELzbnFxavLBQKL5HuUkyKzU88Hs9unA+9r9qNsW8to3RkY1safvrQJlwRb7tTJul7XVoc+uL/j23/PY3xH/4WFg4NQ4E7YtXn6v9v2QN/3zShfo7TpPZ3Ize6FWbDtqL+29Vghng7S+3nzoEBFCfXwWw5tgEvMPlACauheIYxM+kF0Bx8N4CqQfsNW9ka9bNZk0YzS0tLpe6B4TFP7uB/ofnlAETLoHyrJt7jENZZsZnb7Qe3rkGp6IV1dgpWREARGDwKPIJV6bmWyTFRV6BYbg6s0/pwiCM3FtFGm9hkHbHZaNtcp5S0jPTWS294wxV/Ew57nhZCmO2nJeHDw8lJnANVZbynJ3rM41H9isKEEBCAEJs2DfxEFt2l4EKpZAalGB0yDIs7bg4hcNLvx7LZaqbBYuqShYJ9lFKX+XE6H7/uuos+oetsWgioLVYN6+hILEci6rPUEyzYIMoxCPEt2PChY6uQHZ2eCS0KAIF1I3CBkJghHvn9W+HrWwQhAoTacslBFQ5bts3v/TTpfs003Bh47TPwdAsojKMRWxD0XnufPClWH6MWv3hFzD3wBfS8KoWR77wF5cU4QEV7zIYIENmYamLx8StQzYVAXC2pWap6V8TkrXkwaxGDlxZBmurubWz4rzeR3uuesIToWllaenU2m+VDQ0OfZ4zN4Twh0a0zYu8f3Y9S2QuNCwjZCAggCEqWCuo+EJhs/5+TAD4hjtw0I93M/+ZM5wFKOUA4KBGAs05tUHbqOUJEbYn69JdENlu2+IbjUmjKLUV+gL93Ab0XMTBm194rqA0uW3zXPrjBCENoeAL9u4JQiDjjJiQumoZpT2M1ht4yg0LuCaFSv2kavYIwTVWVeWqLst19xSHiT+zz+/R79HDX0tm5Zf77G5G8JAxFqd8gi0AiYBOg95X3InHpIvB/UCO80QTECPydS+ActWNjyxYamMPgGx8AvoVV4baK4PA0SKBa+01CUAhOwDwmErv2YPlJE88CufHGu4JSED4j56V5e6FQ8TNGz7hHcpjC4l/91Xu26TpZxnPk0KHZDYRYPUIImxDVJIRwxgjv7k6eCAZpxv2WIGZEWkO9Mm4TopQTSh0ry5suFivHLrlkgEPy/e/vfcXkZOqvn3hi7GrpAjWmtvHOd778MzfccNVH8J+IKC94QZkCVeEgmkGIz8QaEJWlKHhVA2mJ5QibwtuTIYQYWCOiMNtzShbJKZMSgtQbYFsq7FQMd/3G16XbsrXNGrCIwLsOvZTEtj0mS9y3SH9/w6nUZh3BCbRgGd7YERK7LGPZYjibWdkhC81ucx96YjBVVQVxRPcciPTBftSK4XQbil9w2yLcNgk3i6rSedk4vMm5Qi7nk+6a0tnZmWl3wfMdOH7zS8F0C2AmVLkkTkf0VqF6HVNZrisWiGbWmu4xQXWzJrxqoEqIp9qchbmtH7a5A1bpVC0Kc96rG/DI7UKbJomnp61viOV9nahmhlFZDtT+R1I/Xr7eNBTPKInvysMFOz/RxwtTl1VK5rZKOb/BKi2TaDS0W2fmAvp2HSDa5tnWO4NgYfdlKKVCYL4KqCOkCgeTSxBIERoHja6cHuYhsqMqQDqhayY4scB0uya2NGAQpldwDgS3/Zi68zIYWQ8oFYBgsA21JuKhdTOAOEy6Xm7iHCiyQzPL4utsmztuVMs8M3pKdvw8ngfbt/eMApBt7QQCNatDttWRgeFkNlvubc1ECVEbL7WM/2SkeV3Gc4B4OtI4T8TBf1DwyB8o+JUvEGx8L6sH/hkIDCCvApSiajknBwOzGYSpoDDfiWP/8r5aGpS6pTLjKXAjDwmJ7TwKQLbVURgZByDbWSYmJoh0pRTpWnk5570ApoUQhXPdOZFEL5oCINtZZucWaK6YI92mVw16xCCAy+plGF9ttyqDSwBuxU8JMvBf6vuzdkj8sgUAsq0NzjmRGTpWFIGqoYU2FOxKdzxG/y4Y7TyGc1A/jk9gjZDwBhPANJ4DhLIigN14HijvfOdL6Gc+85N19XtvN4wt0oxgUB3/xjfuwosRGWBO7Nt34vSI8MZZ/Jy0eQq/JIgnPqGCKm+Hv+ujeOgPuvD4H6MOOTtNIAGEQH2l/kbOajEKu6q3BX2ZYmLdm2/FyL+u4HlACInI9gEZm3u9jDGMySzUR92zj+4IIXyybuWqYrF0GaW4aH5+rntlRcv7fL79UsTuwi8IhJAAY+x9KyvLV9ucf1/3+L4EwUv4BUMJhTzxUqkSt20Bxs5aNqqqVJLJ8JiMgQi8CJHimEynC5oc7NkU1JbjoRaPH59L4ZeFTW9l2Pc3r4WR3QajwHA+hiiF68xuApaWib1ey/FoBvjMc/hvjD5p1XxEujpdMlh8n6yt+YNUKlUAkMOzUKlUt83Ozb/JMKqXTE1NmZqmyaSAdyIWi35jcXFxpVSSAR2vN0sIWcbPMUKI5Pz8/Gsymcw18ncymbHba9v2p/L5/PG+nq48fgFR5ufz6y3L9ghRGwd1JjjMGK12dkZHTdMSeJFh2xa5+eZHu0zTbkpvy31FPB6Y0nVlCb8sBNf5ZFr45agWKRQ8P2wAFEKOpdmDxGWP5zPkE0vL6bs64tGfPMt9tzplx/kVKS6DUgj60vIqICuGR6To3CeEeDIUCs3hHEg3a7O80d3rpbXSn8tlC/FYZE5+1vdljU5BdsIZJ9is6/riwMAA/zkTFKeMPWCaZocsAeiStUZD0lLbLH9LyBFfVVUXe3t775cuVJpSerC7u3sKv8Aoi4uFbV6vRlWVgRB6uuoTwaCvIkdXj7wYxUZOL5o0DKtb7qMTV2qa91im36fk5OyL+CVAZI+qWNp/CYrz3RCCPG+h4QA6L9mPK/7sj1V/fKRLtd5KhH3FysrKNtlZDCkKadlRcrZtK7IDBSUhKRCq7EBMLjUJkx1nWbo5Y1JsfkApLWIV5NVcle+/RnbGi6SbJWRg2bMkkY+PxWKxh6XILOLngMOHD68D8HYAJSGRv4NIEQGRSNEl4tT/Qp0mhZjJZkjRWZCvTctj9IQU4kP4JUGpVq1xn8/zRcuynZgNh0RRqFfGPsbjcf8z8nWOFxmymE8ByP3SharK2FKuoTrYJ+tn7pR1NrP4ZeDY153hFG+tFR7y87xdKlpqfzTdRv9VT2DrBz9LnRT7KT4rrYtrZ2dnb5AdyCtdooIQolyfFdErRcYnhYhL0XhGdpw7pNicSCaTxXP/dxkiO9tOIcQWubxEvj8hO+hD8qp+qxSZDH7+iAC4EkCOUirk8bKFEFyulxljOUVRClKgF6QYz0qhOSHrj0bxSwrBBX5uEXe/cxDc+CIW9l4CbioNAWAC0ZDmBk6tCzSkv4FT9T+qCRYsITz4BHb+3j+SoTfuPodbEJJWSFJ2IJMxtkgIKa/RnXCu8iHpanUkJbZt38A51y3LuknGc57CBS6IzQVe3IiRr0cA8WYYBQ3CVsAtJpsi1xlsUy5NFcJSzr52eimfB6fQw1n4+qax7oY9WHj4IFn/6zaeJ9LdIqZpEilKRFoxVLpUVFotnXL9VdLF+gCldEnGXr4or/J34wK/VCi4wM8vQmQB8e/gNiBsyCWpLWuNE9kgm/s6ausC3LYhLPOnITRCCE2KzDpCSBeAjZTSy2VF8XopPlkpLg8DeEfdGirhAhcsmwtc4Bxiwjjn606cOPFBKSAhIpGPvfJ5v6IoVI7uLshlilKaVVV1QQrMhIzLLMm4TFEGfJdlxe88LnBBbC5wgbXEXmRLSgF5jRQZDYDttFKpxGVglEuhcWpgMlJoCnK5LAPKc4SQKi5wgQtic4Hn4ioBSAIQAEwAJZmVKknLheMCFzgH/xdoZgyWFBBjvwAAAABJRU5ErkJggg==;" vertex="1" parent="1">
                    <mxGeometry x="760" y="1200" width="130" height="76.71" as="geometry"/>
                </mxCell>
            </root>
        </mxGraphModel>
    </diagram>
    <diagram id="xg6VJiPYmIJEvA15W939" name="データ図">
        <mxGraphModel dx="850" dy="827" grid="1" gridSize="10" guides="1" tooltips="1" connect="1" arrows="1" fold="1" page="1" pageScale="1" pageWidth="827" pageHeight="1169" math="0" shadow="0">
            <root>
                <mxCell id="0"/>
                <mxCell id="1" parent="0"/>
                <mxCell id="a-InGIvtAyUOARjhBxYH-22" value="&lt;font color=&quot;#000000&quot;&gt;firedept_staff&lt;/font&gt;" style="swimlane;fontStyle=0;childLayout=stackLayout;horizontal=1;startSize=26;fillColor=#1ba1e2;horizontalStack=0;resizeParent=1;resizeParentMax=0;resizeLast=0;collapsible=1;marginBottom=0;html=1;dashed=1;labelBackgroundColor=#FFFFFF;strokeColor=#006EAF;strokeWidth=3;fontSize=16;fontColor=#ffffff;opacity=70;" vertex="1" parent="1">
                    <mxGeometry x="460" y="380" width="170" height="238" as="geometry">
                        <mxRectangle x="460" y="380" width="70" height="30" as="alternateBounds"/>
                    </mxGeometry>
                </mxCell>
                <mxCell id="a-InGIvtAyUOARjhBxYH-23" value="code" style="text;strokeColor=none;fillColor=none;align=left;verticalAlign=top;spacingLeft=4;spacingRight=4;overflow=hidden;rotatable=0;points=[[0,0.5],[1,0.5]];portConstraint=eastwest;whiteSpace=wrap;html=1;dashed=1;labelBackgroundColor=#FFFFFF;strokeWidth=3;fontSize=16;fontColor=#000000;opacity=70;" vertex="1" parent="a-InGIvtAyUOARjhBxYH-22">
                    <mxGeometry y="26" width="170" height="26" as="geometry"/>
                </mxCell>
                <mxCell id="a-InGIvtAyUOARjhBxYH-24" value="staff_name" style="text;strokeColor=none;fillColor=none;align=left;verticalAlign=top;spacingLeft=4;spacingRight=4;overflow=hidden;rotatable=0;points=[[0,0.5],[1,0.5]];portConstraint=eastwest;whiteSpace=wrap;html=1;dashed=1;labelBackgroundColor=#FFFFFF;strokeWidth=3;fontSize=16;fontColor=#000000;opacity=70;" vertex="1" parent="a-InGIvtAyUOARjhBxYH-22">
                    <mxGeometry y="52" width="170" height="26" as="geometry"/>
                </mxCell>
                <mxCell id="a-InGIvtAyUOARjhBxYH-25" value="staff_pass" style="text;strokeColor=none;fillColor=none;align=left;verticalAlign=top;spacingLeft=4;spacingRight=4;overflow=hidden;rotatable=0;points=[[0,0.5],[1,0.5]];portConstraint=eastwest;whiteSpace=wrap;html=1;dashed=1;labelBackgroundColor=#FFFFFF;strokeWidth=3;fontSize=16;fontColor=#000000;opacity=70;" vertex="1" parent="a-InGIvtAyUOARjhBxYH-22">
                    <mxGeometry y="78" width="170" height="32" as="geometry"/>
                </mxCell>
                <mxCell id="a-InGIvtAyUOARjhBxYH-27" value="&lt;span style=&quot;font-family: sans-serif; font-size: 13.12px; font-weight: 700; background-color: rgb(248, 249, 250);&quot;&gt;fire_dept_code&lt;/span&gt;" style="text;strokeColor=none;fillColor=none;align=left;verticalAlign=top;spacingLeft=4;spacingRight=4;overflow=hidden;rotatable=0;points=[[0,0.5],[1,0.5]];portConstraint=eastwest;whiteSpace=wrap;html=1;dashed=1;labelBackgroundColor=#FFFFFF;strokeWidth=3;fontSize=16;fontColor=#000000;opacity=70;" vertex="1" parent="a-InGIvtAyUOARjhBxYH-22">
                    <mxGeometry y="110" width="170" height="32" as="geometry"/>
                </mxCell>
                <mxCell id="a-InGIvtAyUOARjhBxYH-28" value="&lt;span style=&quot;font-family: sans-serif; font-size: 13.12px; font-weight: 700; background-color: rgb(248, 249, 250);&quot;&gt;mail_address&lt;/span&gt;" style="text;strokeColor=none;fillColor=none;align=left;verticalAlign=top;spacingLeft=4;spacingRight=4;overflow=hidden;rotatable=0;points=[[0,0.5],[1,0.5]];portConstraint=eastwest;whiteSpace=wrap;html=1;dashed=1;labelBackgroundColor=#FFFFFF;strokeWidth=3;fontSize=16;fontColor=#000000;opacity=70;" vertex="1" parent="a-InGIvtAyUOARjhBxYH-22">
                    <mxGeometry y="142" width="170" height="32" as="geometry"/>
                </mxCell>
                <mxCell id="a-InGIvtAyUOARjhBxYH-29" value="&lt;span style=&quot;font-family: sans-serif; font-size: 13.12px; font-weight: 700; background-color: rgb(248, 249, 250);&quot;&gt;created_at&lt;/span&gt;" style="text;strokeColor=none;fillColor=none;align=left;verticalAlign=top;spacingLeft=4;spacingRight=4;overflow=hidden;rotatable=0;points=[[0,0.5],[1,0.5]];portConstraint=eastwest;whiteSpace=wrap;html=1;dashed=1;labelBackgroundColor=#FFFFFF;strokeWidth=3;fontSize=16;fontColor=#000000;opacity=70;" vertex="1" parent="a-InGIvtAyUOARjhBxYH-22">
                    <mxGeometry y="174" width="170" height="32" as="geometry"/>
                </mxCell>
                <mxCell id="a-InGIvtAyUOARjhBxYH-30" value="&lt;span style=&quot;font-family: sans-serif; font-size: 13.12px; font-weight: 700; background-color: rgb(248, 249, 250);&quot;&gt;updated_at&lt;/span&gt;" style="text;strokeColor=none;fillColor=none;align=left;verticalAlign=top;spacingLeft=4;spacingRight=4;overflow=hidden;rotatable=0;points=[[0,0.5],[1,0.5]];portConstraint=eastwest;whiteSpace=wrap;html=1;dashed=1;labelBackgroundColor=#FFFFFF;strokeWidth=3;fontSize=16;fontColor=#000000;opacity=70;" vertex="1" parent="a-InGIvtAyUOARjhBxYH-22">
                    <mxGeometry y="206" width="170" height="32" as="geometry"/>
                </mxCell>
                <mxCell id="a-InGIvtAyUOARjhBxYH-31" value="&lt;font color=&quot;#000000&quot;&gt;taishobutu_main&lt;/font&gt;" style="swimlane;fontStyle=0;childLayout=stackLayout;horizontal=1;startSize=26;fillColor=#1ba1e2;horizontalStack=0;resizeParent=1;resizeParentMax=0;resizeLast=0;collapsible=1;marginBottom=0;html=1;dashed=1;labelBackgroundColor=#FFFFFF;strokeColor=#006EAF;strokeWidth=3;fontSize=16;fontColor=#ffffff;opacity=70;" vertex="1" parent="1">
                    <mxGeometry x="730" y="380" width="170" height="366" as="geometry">
                        <mxRectangle x="460" y="380" width="70" height="30" as="alternateBounds"/>
                    </mxGeometry>
                </mxCell>
                <mxCell id="a-InGIvtAyUOARjhBxYH-32" value="code" style="text;strokeColor=none;fillColor=none;align=left;verticalAlign=top;spacingLeft=4;spacingRight=4;overflow=hidden;rotatable=0;points=[[0,0.5],[1,0.5]];portConstraint=eastwest;whiteSpace=wrap;html=1;dashed=1;labelBackgroundColor=#FFFFFF;strokeWidth=3;fontSize=16;fontColor=#000000;opacity=70;" vertex="1" parent="a-InGIvtAyUOARjhBxYH-31">
                    <mxGeometry y="26" width="170" height="26" as="geometry"/>
                </mxCell>
                <mxCell id="a-InGIvtAyUOARjhBxYH-33" value="&lt;span style=&quot;font-family: sans-serif; font-size: 13.12px; font-weight: 700; background-color: rgb(248, 249, 250);&quot;&gt;fire_dept_code&lt;/span&gt;" style="text;strokeColor=none;fillColor=none;align=left;verticalAlign=top;spacingLeft=4;spacingRight=4;overflow=hidden;rotatable=0;points=[[0,0.5],[1,0.5]];portConstraint=eastwest;whiteSpace=wrap;html=1;dashed=1;labelBackgroundColor=#FFFFFF;strokeWidth=3;fontSize=16;fontColor=#000000;opacity=70;" vertex="1" parent="a-InGIvtAyUOARjhBxYH-31">
                    <mxGeometry y="52" width="170" height="26" as="geometry"/>
                </mxCell>
                <mxCell id="a-InGIvtAyUOARjhBxYH-34" value="&lt;span style=&quot;font-family: sans-serif; font-size: 13.12px; font-weight: 700; background-color: rgb(248, 249, 250);&quot;&gt;appendix&lt;/span&gt;" style="text;strokeColor=none;fillColor=none;align=left;verticalAlign=top;spacingLeft=4;spacingRight=4;overflow=hidden;rotatable=0;points=[[0,0.5],[1,0.5]];portConstraint=eastwest;whiteSpace=wrap;html=1;dashed=1;labelBackgroundColor=#FFFFFF;strokeWidth=3;fontSize=16;fontColor=#000000;opacity=70;" vertex="1" parent="a-InGIvtAyUOARjhBxYH-31">
                    <mxGeometry y="78" width="170" height="32" as="geometry"/>
                </mxCell>
                <mxCell id="a-InGIvtAyUOARjhBxYH-35" value="&lt;span style=&quot;font-family: sans-serif; font-size: 13.12px; font-weight: 700; background-color: rgb(248, 249, 250);&quot;&gt;taishobutu_name&lt;/span&gt;" style="text;strokeColor=none;fillColor=none;align=left;verticalAlign=top;spacingLeft=4;spacingRight=4;overflow=hidden;rotatable=0;points=[[0,0.5],[1,0.5]];portConstraint=eastwest;whiteSpace=wrap;html=1;dashed=1;labelBackgroundColor=#FFFFFF;strokeWidth=3;fontSize=16;fontColor=#000000;opacity=70;" vertex="1" parent="a-InGIvtAyUOARjhBxYH-31">
                    <mxGeometry y="110" width="170" height="32" as="geometry"/>
                </mxCell>
                <mxCell id="a-InGIvtAyUOARjhBxYH-36" value="&lt;span style=&quot;font-family: sans-serif; font-size: 13.12px; font-weight: 700; background-color: rgb(248, 249, 250);&quot;&gt;taishobutu_address&lt;/span&gt;" style="text;strokeColor=none;fillColor=none;align=left;verticalAlign=top;spacingLeft=4;spacingRight=4;overflow=hidden;rotatable=0;points=[[0,0.5],[1,0.5]];portConstraint=eastwest;whiteSpace=wrap;html=1;dashed=1;labelBackgroundColor=#FFFFFF;strokeWidth=3;fontSize=16;fontColor=#000000;opacity=70;" vertex="1" parent="a-InGIvtAyUOARjhBxYH-31">
                    <mxGeometry y="142" width="170" height="32" as="geometry"/>
                </mxCell>
                <mxCell id="a-InGIvtAyUOARjhBxYH-37" value="&lt;span style=&quot;font-family: sans-serif; font-size: 13.12px; font-weight: 700; background-color: rgb(248, 249, 250);&quot;&gt;taishobutu_tel&lt;/span&gt;" style="text;strokeColor=none;fillColor=none;align=left;verticalAlign=top;spacingLeft=4;spacingRight=4;overflow=hidden;rotatable=0;points=[[0,0.5],[1,0.5]];portConstraint=eastwest;whiteSpace=wrap;html=1;dashed=1;labelBackgroundColor=#FFFFFF;strokeWidth=3;fontSize=16;fontColor=#000000;opacity=70;" vertex="1" parent="a-InGIvtAyUOARjhBxYH-31">
                    <mxGeometry y="174" width="170" height="32" as="geometry"/>
                </mxCell>
                <mxCell id="a-InGIvtAyUOARjhBxYH-38" value="&lt;span style=&quot;font-family: sans-serif; font-size: 13.12px; font-weight: 700; background-color: rgb(248, 249, 250);&quot;&gt;owners_name&lt;/span&gt;" style="text;strokeColor=none;fillColor=none;align=left;verticalAlign=top;spacingLeft=4;spacingRight=4;overflow=hidden;rotatable=0;points=[[0,0.5],[1,0.5]];portConstraint=eastwest;whiteSpace=wrap;html=1;dashed=1;labelBackgroundColor=#FFFFFF;strokeWidth=3;fontSize=16;fontColor=#000000;opacity=70;" vertex="1" parent="a-InGIvtAyUOARjhBxYH-31">
                    <mxGeometry y="206" width="170" height="32" as="geometry"/>
                </mxCell>
                <mxCell id="a-InGIvtAyUOARjhBxYH-39" value="&lt;span style=&quot;font-family: sans-serif; font-size: 13.12px; font-weight: 700; background-color: rgb(248, 249, 250);&quot;&gt;owners_tel&lt;/span&gt;" style="text;strokeColor=none;fillColor=none;align=left;verticalAlign=top;spacingLeft=4;spacingRight=4;overflow=hidden;rotatable=0;points=[[0,0.5],[1,0.5]];portConstraint=eastwest;whiteSpace=wrap;html=1;dashed=1;labelBackgroundColor=#FFFFFF;strokeWidth=3;fontSize=16;fontColor=#000000;opacity=70;" vertex="1" parent="a-InGIvtAyUOARjhBxYH-31">
                    <mxGeometry y="238" width="170" height="32" as="geometry"/>
                </mxCell>
                <mxCell id="a-InGIvtAyUOARjhBxYH-40" value="&lt;span style=&quot;font-family: sans-serif; font-size: 13.12px; font-weight: 700; background-color: rgb(248, 249, 250);&quot;&gt;total_area&lt;/span&gt;" style="text;strokeColor=none;fillColor=none;align=left;verticalAlign=top;spacingLeft=4;spacingRight=4;overflow=hidden;rotatable=0;points=[[0,0.5],[1,0.5]];portConstraint=eastwest;whiteSpace=wrap;html=1;dashed=1;labelBackgroundColor=#FFFFFF;strokeWidth=3;fontSize=16;fontColor=#000000;opacity=70;" vertex="1" parent="a-InGIvtAyUOARjhBxYH-31">
                    <mxGeometry y="270" width="170" height="32" as="geometry"/>
                </mxCell>
                <mxCell id="a-InGIvtAyUOARjhBxYH-41" value="&lt;span style=&quot;font-family: sans-serif; font-size: 13.12px; font-weight: 700; background-color: rgb(248, 249, 250);&quot;&gt;created_at&lt;/span&gt;" style="text;strokeColor=none;fillColor=none;align=left;verticalAlign=top;spacingLeft=4;spacingRight=4;overflow=hidden;rotatable=0;points=[[0,0.5],[1,0.5]];portConstraint=eastwest;whiteSpace=wrap;html=1;dashed=1;labelBackgroundColor=#FFFFFF;strokeWidth=3;fontSize=16;fontColor=#000000;opacity=70;" vertex="1" parent="a-InGIvtAyUOARjhBxYH-31">
                    <mxGeometry y="302" width="170" height="32" as="geometry"/>
                </mxCell>
                <mxCell id="a-InGIvtAyUOARjhBxYH-42" value="&lt;span style=&quot;font-family: sans-serif; font-size: 13.12px; font-weight: 700; background-color: rgb(248, 249, 250);&quot;&gt;updated_at&lt;/span&gt;" style="text;strokeColor=none;fillColor=none;align=left;verticalAlign=top;spacingLeft=4;spacingRight=4;overflow=hidden;rotatable=0;points=[[0,0.5],[1,0.5]];portConstraint=eastwest;whiteSpace=wrap;html=1;dashed=1;labelBackgroundColor=#FFFFFF;strokeWidth=3;fontSize=16;fontColor=#000000;opacity=70;" vertex="1" parent="a-InGIvtAyUOARjhBxYH-31">
                    <mxGeometry y="334" width="170" height="32" as="geometry"/>
                </mxCell>
                <mxCell id="a-InGIvtAyUOARjhBxYH-43" value="&lt;font color=&quot;#000000&quot;&gt;taishobutu_datail&lt;/font&gt;" style="swimlane;fontStyle=0;childLayout=stackLayout;horizontal=1;startSize=26;fillColor=#1ba1e2;horizontalStack=0;resizeParent=1;resizeParentMax=0;resizeLast=0;collapsible=1;marginBottom=0;html=1;dashed=1;labelBackgroundColor=#FFFFFF;strokeColor=#006EAF;strokeWidth=3;fontSize=16;fontColor=#ffffff;opacity=70;" vertex="1" parent="1">
                    <mxGeometry x="1000" y="380" width="170" height="526" as="geometry">
                        <mxRectangle x="460" y="380" width="70" height="30" as="alternateBounds"/>
                    </mxGeometry>
                </mxCell>
                <mxCell id="a-InGIvtAyUOARjhBxYH-44" value="&lt;span style=&quot;font-family: sans-serif; font-size: 13.12px; font-weight: 700; background-color: rgb(248, 249, 250);&quot;&gt;id&lt;/span&gt;" style="text;strokeColor=none;fillColor=none;align=left;verticalAlign=top;spacingLeft=4;spacingRight=4;overflow=hidden;rotatable=0;points=[[0,0.5],[1,0.5]];portConstraint=eastwest;whiteSpace=wrap;html=1;dashed=1;labelBackgroundColor=#FFFFFF;strokeWidth=3;fontSize=16;fontColor=#000000;opacity=70;" vertex="1" parent="a-InGIvtAyUOARjhBxYH-43">
                    <mxGeometry y="26" width="170" height="26" as="geometry"/>
                </mxCell>
                <mxCell id="a-InGIvtAyUOARjhBxYH-45" value="&lt;span style=&quot;font-family: sans-serif; font-size: 13.12px; font-weight: 700; background-color: rgb(248, 249, 250);&quot;&gt;code&lt;/span&gt;" style="text;strokeColor=none;fillColor=none;align=left;verticalAlign=top;spacingLeft=4;spacingRight=4;overflow=hidden;rotatable=0;points=[[0,0.5],[1,0.5]];portConstraint=eastwest;whiteSpace=wrap;html=1;dashed=1;labelBackgroundColor=#FFFFFF;strokeWidth=3;fontSize=16;fontColor=#000000;opacity=70;" vertex="1" parent="a-InGIvtAyUOARjhBxYH-43">
                    <mxGeometry y="52" width="170" height="26" as="geometry"/>
                </mxCell>
                <mxCell id="a-InGIvtAyUOARjhBxYH-46" value="&lt;span style=&quot;font-family: sans-serif; font-size: 13.12px; font-weight: 700; background-color: rgb(248, 249, 250);&quot;&gt;windowless_floor&lt;/span&gt;" style="text;strokeColor=none;fillColor=none;align=left;verticalAlign=top;spacingLeft=4;spacingRight=4;overflow=hidden;rotatable=0;points=[[0,0.5],[1,0.5]];portConstraint=eastwest;whiteSpace=wrap;html=1;dashed=1;labelBackgroundColor=#FFFFFF;strokeWidth=3;fontSize=16;fontColor=#000000;opacity=70;" vertex="1" parent="a-InGIvtAyUOARjhBxYH-43">
                    <mxGeometry y="78" width="170" height="32" as="geometry"/>
                </mxCell>
                <mxCell id="a-InGIvtAyUOARjhBxYH-47" value="&lt;span style=&quot;font-family: sans-serif; font-size: 13.12px; font-weight: 700; background-color: rgb(248, 249, 250);&quot;&gt;capacity&lt;/span&gt;" style="text;strokeColor=none;fillColor=none;align=left;verticalAlign=top;spacingLeft=4;spacingRight=4;overflow=hidden;rotatable=0;points=[[0,0.5],[1,0.5]];portConstraint=eastwest;whiteSpace=wrap;html=1;dashed=1;labelBackgroundColor=#FFFFFF;strokeWidth=3;fontSize=16;fontColor=#000000;opacity=70;" vertex="1" parent="a-InGIvtAyUOARjhBxYH-43">
                    <mxGeometry y="110" width="170" height="32" as="geometry"/>
                </mxCell>
                <mxCell id="a-InGIvtAyUOARjhBxYH-48" value="&lt;span style=&quot;font-family: sans-serif; font-size: 13.12px; font-weight: 700; background-color: rgb(248, 249, 250);&quot;&gt;building_structure&lt;/span&gt;" style="text;strokeColor=none;fillColor=none;align=left;verticalAlign=top;spacingLeft=4;spacingRight=4;overflow=hidden;rotatable=0;points=[[0,0.5],[1,0.5]];portConstraint=eastwest;whiteSpace=wrap;html=1;dashed=1;labelBackgroundColor=#FFFFFF;strokeWidth=3;fontSize=16;fontColor=#000000;opacity=70;" vertex="1" parent="a-InGIvtAyUOARjhBxYH-43">
                    <mxGeometry y="142" width="170" height="32" as="geometry"/>
                </mxCell>
                <mxCell id="a-InGIvtAyUOARjhBxYH-49" value="&lt;span style=&quot;font-family: sans-serif; font-size: 13.12px; font-weight: 700; background-color: rgb(248, 249, 250);&quot;&gt;owners_address&lt;/span&gt;" style="text;strokeColor=none;fillColor=none;align=left;verticalAlign=top;spacingLeft=4;spacingRight=4;overflow=hidden;rotatable=0;points=[[0,0.5],[1,0.5]];portConstraint=eastwest;whiteSpace=wrap;html=1;dashed=1;labelBackgroundColor=#FFFFFF;strokeWidth=3;fontSize=16;fontColor=#000000;opacity=70;" vertex="1" parent="a-InGIvtAyUOARjhBxYH-43">
                    <mxGeometry y="174" width="170" height="32" as="geometry"/>
                </mxCell>
                <mxCell id="a-InGIvtAyUOARjhBxYH-50" value="&lt;span style=&quot;font-family: sans-serif; font-size: 13.12px; font-weight: 700; background-color: rgb(248, 249, 250);&quot;&gt;building_area&lt;/span&gt;" style="text;strokeColor=none;fillColor=none;align=left;verticalAlign=top;spacingLeft=4;spacingRight=4;overflow=hidden;rotatable=0;points=[[0,0.5],[1,0.5]];portConstraint=eastwest;whiteSpace=wrap;html=1;dashed=1;labelBackgroundColor=#FFFFFF;strokeWidth=3;fontSize=16;fontColor=#000000;opacity=70;" vertex="1" parent="a-InGIvtAyUOARjhBxYH-43">
                    <mxGeometry y="206" width="170" height="32" as="geometry"/>
                </mxCell>
                <mxCell id="a-InGIvtAyUOARjhBxYH-51" value="&lt;span style=&quot;font-family: sans-serif; font-size: 13.12px; font-weight: 700; background-color: rgb(248, 249, 250);&quot;&gt;site_area&lt;/span&gt;" style="text;strokeColor=none;fillColor=none;align=left;verticalAlign=top;spacingLeft=4;spacingRight=4;overflow=hidden;rotatable=0;points=[[0,0.5],[1,0.5]];portConstraint=eastwest;whiteSpace=wrap;html=1;dashed=1;labelBackgroundColor=#FFFFFF;strokeWidth=3;fontSize=16;fontColor=#000000;opacity=70;" vertex="1" parent="a-InGIvtAyUOARjhBxYH-43">
                    <mxGeometry y="238" width="170" height="32" as="geometry"/>
                </mxCell>
                <mxCell id="a-InGIvtAyUOARjhBxYH-52" value="&lt;span style=&quot;font-family: sans-serif; font-size: 13.12px; font-weight: 700; background-color: rgb(248, 249, 250);&quot;&gt;building_classification&lt;/span&gt;" style="text;strokeColor=none;fillColor=none;align=left;verticalAlign=top;spacingLeft=4;spacingRight=4;overflow=hidden;rotatable=0;points=[[0,0.5],[1,0.5]];portConstraint=eastwest;whiteSpace=wrap;html=1;dashed=1;labelBackgroundColor=#FFFFFF;strokeWidth=3;fontSize=16;fontColor=#000000;opacity=70;" vertex="1" parent="a-InGIvtAyUOARjhBxYH-43">
                    <mxGeometry y="270" width="170" height="32" as="geometry"/>
                </mxCell>
                <mxCell id="a-InGIvtAyUOARjhBxYH-53" value="&lt;span style=&quot;font-family: sans-serif; font-size: 13.12px; font-weight: 700; background-color: rgb(248, 249, 250);&quot;&gt;interior_limit&lt;/span&gt;" style="text;strokeColor=none;fillColor=none;align=left;verticalAlign=top;spacingLeft=4;spacingRight=4;overflow=hidden;rotatable=0;points=[[0,0.5],[1,0.5]];portConstraint=eastwest;whiteSpace=wrap;html=1;dashed=1;labelBackgroundColor=#FFFFFF;strokeWidth=3;fontSize=16;fontColor=#000000;opacity=70;" vertex="1" parent="a-InGIvtAyUOARjhBxYH-43">
                    <mxGeometry y="302" width="170" height="32" as="geometry"/>
                </mxCell>
                <mxCell id="a-InGIvtAyUOARjhBxYH-54" value="&lt;span style=&quot;font-family: sans-serif; font-size: 13.12px; font-weight: 700; background-color: rgb(248, 249, 250);&quot;&gt;main_structure&lt;/span&gt;" style="text;strokeColor=none;fillColor=none;align=left;verticalAlign=top;spacingLeft=4;spacingRight=4;overflow=hidden;rotatable=0;points=[[0,0.5],[1,0.5]];portConstraint=eastwest;whiteSpace=wrap;html=1;dashed=1;labelBackgroundColor=#FFFFFF;strokeWidth=3;fontSize=16;fontColor=#000000;opacity=70;" vertex="1" parent="a-InGIvtAyUOARjhBxYH-43">
                    <mxGeometry y="334" width="170" height="32" as="geometry"/>
                </mxCell>
                <mxCell id="a-InGIvtAyUOARjhBxYH-55" value="&lt;span style=&quot;font-family: sans-serif; font-size: 13.12px; font-weight: 700; background-color: rgb(248, 249, 250);&quot;&gt;main_structure&lt;/span&gt;" style="text;strokeColor=none;fillColor=none;align=left;verticalAlign=top;spacingLeft=4;spacingRight=4;overflow=hidden;rotatable=0;points=[[0,0.5],[1,0.5]];portConstraint=eastwest;whiteSpace=wrap;html=1;dashed=1;labelBackgroundColor=#FFFFFF;strokeWidth=3;fontSize=16;fontColor=#000000;opacity=70;" vertex="1" parent="a-InGIvtAyUOARjhBxYH-43">
                    <mxGeometry y="366" width="170" height="32" as="geometry"/>
                </mxCell>
                <mxCell id="a-InGIvtAyUOARjhBxYH-56" value="&lt;span style=&quot;font-family: sans-serif; font-size: 13.12px; font-weight: 700; background-color: rgb(248, 249, 250);&quot;&gt;main_structure&lt;/span&gt;" style="text;strokeColor=none;fillColor=none;align=left;verticalAlign=top;spacingLeft=4;spacingRight=4;overflow=hidden;rotatable=0;points=[[0,0.5],[1,0.5]];portConstraint=eastwest;whiteSpace=wrap;html=1;dashed=1;labelBackgroundColor=#FFFFFF;strokeWidth=3;fontSize=16;fontColor=#000000;opacity=70;" vertex="1" parent="a-InGIvtAyUOARjhBxYH-43">
                    <mxGeometry y="398" width="170" height="32" as="geometry"/>
                </mxCell>
                <mxCell id="a-InGIvtAyUOARjhBxYH-57" value="&lt;span style=&quot;font-family: sans-serif; font-size: 13.12px; font-weight: 700; background-color: rgb(248, 249, 250);&quot;&gt;main_structure&lt;/span&gt;" style="text;strokeColor=none;fillColor=none;align=left;verticalAlign=top;spacingLeft=4;spacingRight=4;overflow=hidden;rotatable=0;points=[[0,0.5],[1,0.5]];portConstraint=eastwest;whiteSpace=wrap;html=1;dashed=1;labelBackgroundColor=#FFFFFF;strokeWidth=3;fontSize=16;fontColor=#000000;opacity=70;" vertex="1" parent="a-InGIvtAyUOARjhBxYH-43">
                    <mxGeometry y="430" width="170" height="32" as="geometry"/>
                </mxCell>
                <mxCell id="a-InGIvtAyUOARjhBxYH-58" value="&lt;span style=&quot;font-family: sans-serif; font-size: 13.12px; font-weight: 700; background-color: rgb(248, 249, 250);&quot;&gt;main_structure&lt;/span&gt;" style="text;strokeColor=none;fillColor=none;align=left;verticalAlign=top;spacingLeft=4;spacingRight=4;overflow=hidden;rotatable=0;points=[[0,0.5],[1,0.5]];portConstraint=eastwest;whiteSpace=wrap;html=1;dashed=1;labelBackgroundColor=#FFFFFF;strokeWidth=3;fontSize=16;fontColor=#000000;opacity=70;" vertex="1" parent="a-InGIvtAyUOARjhBxYH-43">
                    <mxGeometry y="462" width="170" height="32" as="geometry"/>
                </mxCell>
                <mxCell id="a-InGIvtAyUOARjhBxYH-59" value="&lt;span style=&quot;font-family: sans-serif; font-size: 13.12px; font-weight: 700; background-color: rgb(248, 249, 250);&quot;&gt;main_structure&lt;/span&gt;" style="text;strokeColor=none;fillColor=none;align=left;verticalAlign=top;spacingLeft=4;spacingRight=4;overflow=hidden;rotatable=0;points=[[0,0.5],[1,0.5]];portConstraint=eastwest;whiteSpace=wrap;html=1;dashed=1;labelBackgroundColor=#FFFFFF;strokeWidth=3;fontSize=16;fontColor=#000000;opacity=70;" vertex="1" parent="a-InGIvtAyUOARjhBxYH-43">
                    <mxGeometry y="494" width="170" height="32" as="geometry"/>
                </mxCell>
            </root>
        </mxGraphModel>
    </diagram>
</mxfile>